<?xml version="1.0" encoding="UTF-8" standalone="no"?>
<!-- Created with Inkscape (http://www.inkscape.org/) -->

<svg
   xmlns:dc="http://purl.org/dc/elements/1.1/"
   xmlns:cc="http://creativecommons.org/ns#"
   xmlns:rdf="http://www.w3.org/1999/02/22-rdf-syntax-ns#"
   xmlns:svg="http://www.w3.org/2000/svg"
   xmlns="http://www.w3.org/2000/svg"
   xmlns:sodipodi="http://sodipodi.sourceforge.net/DTD/sodipodi-0.dtd"
   xmlns:inkscape="http://www.inkscape.org/namespaces/inkscape"
   width="93.989998"
   height="20"
   id="svg2"
   version="1.1"
   inkscape:version="0.48.0 r9654"
   sodipodi:docname="centre-positive.svg">
  <defs
     id="defs4" />
  <sodipodi:namedview
     id="base"
     pagecolor="#ffffff"
     bordercolor="#666666"
     borderopacity="1.0"
     inkscape:pageopacity="0.0"
     inkscape:pageshadow="2"
     inkscape:zoom="8.9477606"
     inkscape:cx="46.994999"
     inkscape:cy="10"
     inkscape:document-units="px"
     inkscape:current-layer="layer1"
     showgrid="false"
     inkscape:snap-global="false"
     inkscape:window-width="1280"
     inkscape:window-height="968"
     inkscape:window-x="-4"
     inkscape:window-y="-4"
     inkscape:window-maximized="1" />
  <metadata
     id="metadata7">
    <rdf:RDF>
      <cc:Work
         rdf:about="">
        <dc:format>image/svg+xml</dc:format>
        <dc:type
           rdf:resource="http://purl.org/dc/dcmitype/StillImage" />
        <dc:title></dc:title>
      </cc:Work>
    </rdf:RDF>
  </metadata>
  <g
     inkscape:label="Layer 1"
     inkscape:groupmode="layer"
     id="layer1"
     transform="translate(0,-1032.3622)">
    <path
       id="path4101"
       d="m 19.483716,1042.3572 c 0,5.2289 -4.238904,9.4678 -9.467858,9.4678 -5.2289528,0 -9.46785742,-4.2389 -9.46785742,-9.4678 0,-5.229 4.23890462,-9.4679 9.46785742,-9.4679 5.228954,0 9.467858,4.2389 9.467858,9.4679 z"
       style="color:#000000;fill:#ffffff;fill-opacity:0;fill-rule:nonzero;stroke:#000000;stroke-width:1.06428289000000010;stroke-linecap:butt;stroke-linejoin:miter;stroke-miterlimit:4;stroke-opacity:1;stroke-dashoffset:0;marker:none;visibility:visible;display:inline;overflow:visible;enable-background:accumulate"
       inkscape:connector-curvature="0" />
    <path
       style="fill:none;stroke:#000000;stroke-width:1px;stroke-linecap:butt;stroke-linejoin:miter;stroke-opacity:1"
       d="m 19.84946,1042.3572 c 20.29214,0 20.29214,0 20.29214,0"
       id="path4874"
       inkscape:connector-curvature="0" />
    <path
       inkscape:connector-curvature="0"
       style="color:#000000;fill:#ffffff;fill-opacity:0;fill-rule:nonzero;stroke:#000000;stroke-width:0.91763097000000005;stroke-linecap:butt;stroke-linejoin:miter;stroke-miterlimit:4;stroke-opacity:1;stroke-dashoffset:0;marker:none;visibility:visible;display:inline;overflow:visible;enable-background:accumulate"
       d="m 56.723641,1049.1038 c -3.726059,3.7261 -9.767209,3.7261 -13.493268,0 -3.726068,-3.726 -3.726068,-9.7672 0,-13.4932 3.726059,-3.7261 9.7672,-3.7261 13.493268,0"
       id="path4876" />
    <path
       inkscape:connector-curvature="0"
       style="color:#000000;fill:#000000;fill-opacity:1;fill-rule:nonzero;stroke:#000000;stroke-width:0.74579471;stroke-linecap:butt;stroke-linejoin:miter;stroke-miterlimit:4;stroke-opacity:1;stroke-dashoffset:0;marker:none;visibility:visible;display:inline;overflow:visible;enable-background:accumulate"
       d="m 53.463692,1042.3572 c 0,2.0032 -1.623908,3.6271 -3.627105,3.6271 -2.00319,0 -3.627098,-1.6239 -3.627098,-3.6271 0,-2.0032 1.623908,-3.6271 3.627098,-3.6271 2.003197,0 3.627105,1.6239 3.627105,3.6271 z"
       id="path4878" />
    <path
       style="fill:none;stroke:#000000;stroke-width:1px;stroke-linecap:butt;stroke-linejoin:miter;stroke-opacity:1"
       d="m 53.81509,1042.3572 c 20.29214,0 20.29214,0 20.29214,0"
       id="path4874-1"
       inkscape:connector-curvature="0" />
    <path
       id="path4101-4"
       d="m 93.475553,1042.3572 c 0,5.2289 -4.238904,9.4678 -9.467858,9.4678 -5.228953,0 -9.467857,-4.2389 -9.467857,-9.4678 0,-5.229 4.238904,-9.4679 9.467857,-9.4679 5.228954,0 9.467858,4.2389 9.467858,9.4679 z"
       style="color:#000000;fill:#ffffff;fill-opacity:0;fill-rule:nonzero;stroke:#000000;stroke-width:1.06428289000000010;stroke-linecap:butt;stroke-linejoin:miter;stroke-miterlimit:4;stroke-opacity:1;stroke-dashoffset:0;marker:none;visibility:visible;display:inline;overflow:visible;enable-background:accumulate"
       inkscape:connector-curvature="0" />
    <path
       style="font-size:10px;font-style:normal;font-variant:normal;font-weight:normal;font-stretch:normal;line-height:125%;letter-spacing:0px;word-spacing:0px;fill:#000000;fill-opacity:1;stroke:none;font-family:Verdana;-inkscape-font-specification:Verdana"
       id="path5064"
       d="m 11.5393,1042.7991 -3.04688,0 0,-0.8838 3.04688,0 z"
       inkscape:connector-curvature="0" />
    <path
       style="font-size:10px;font-style:normal;font-variant:normal;font-weight:normal;font-stretch:normal;line-height:125%;letter-spacing:0px;word-spacing:0px;fill:#000000;fill-opacity:1;stroke:none;font-family:Verdana;-inkscape-font-specification:Verdana"
       id="path5067"
       d="m 87.0741,1042.7478 -2.66113,0 0,2.6611 -0.81055,0 0,-2.6611 -2.66113,0 0,-0.7812 2.66113,0 0,-2.6612 0.81055,0 0,2.6612 2.66113,0 z"
       inkscape:connector-curvature="0" />
  </g>
</svg>
