0
SECTION
2
HEADER
9
$INSUNITS
70
4
9
$ACADVER
1
AC1014
9
$HANDSEED
5
FFFF
0
ENDSEC
0
SECTION
2
TABLES
0
TABLE
2
VPORT
5
8
100
AcDbSymbolTable
0
ENDTAB
0
TABLE
2
LTYPE
5
5
100
AcDbSymbolTable
0
LTYPE
5
14
100
AcDbSymbolTableRecord
100
AcDbLinetypeTableRecord
2
BYBLOCK
70
0
0
LTYPE
5
15
100
AcDbSymbolTableRecord
100
AcDbLinetypeTableRecord
2
BYLAYER
70
0
0
ENDTAB
0
TABLE
2
LAYER
5
2
100
AcDbSymbolTable
70
2
0
LAYER
5
50
100
AcDbSymbolTableRecord
100
AcDbLayerTableRecord
2
0
70
0
6
CONTINUOUS
0
ENDTAB
0
TABLE
2
STYLE
5
3
100
AcDbSymbolTable
70
1
0
STYLE
5
11
100
AcDbSymbolTableRecord
100
AcDbTextStyleTableRecord
2
STANDARD
70
0
0
ENDTAB
0
TABLE
2
VIEW
5
6
100
AcDbSymbolTable
70
0
0
ENDTAB
0
TABLE
2
UCS
5
7
100
AcDbSymbolTable
70
0
0
ENDTAB
0
TABLE
2
APPID
5
9
100
AcDbSymbolTable
70
2
0
APPID
5
12
100
AcDbSymbolTableRecord
100
AcDbRegAppTableRecord
2
ACAD
70
0
0
ENDTAB
0
TABLE
2
DIMSTYLE
5
A
100
AcDbSymbolTable
70
1
0
ENDTAB
0
TABLE
2
BLOCK_RECORD
5
1
100
AcDbSymbolTable
70
1
0
BLOCK_RECORD
5
1F
100
AcDbSymbolTableRecord
100
AcDbBlockTableRecord
2
*MODEL_SPACE
0
BLOCK_RECORD
5
1B
100
AcDbSymbolTableRecord
100
AcDbBlockTableRecord
2
*PAPER_SPACE
0
ENDTAB
0
ENDSEC
0
SECTION
2
BLOCKS
0
BLOCK
5
20
100
AcDbEntity
100
AcDbBlockBegin
2
*MODEL_SPACE
0
ENDBLK
5
21
100
AcDbEntity
100
AcDbBlockEnd
0
BLOCK
5
1C
100
AcDbEntity
100
AcDbBlockBegin
2
*PAPER_SPACE
0
ENDBLK
5
1D
100
AcDbEntity
100
AcDbBlockEnd
0
ENDSEC
0
SECTION
2
ENTITIES
0
LWPOLYLINE
5
100
100
AcDbEntity
8
0
100
AcDbPolyline
90
4
70
1
43
0.0
10
7.3349364905389223
20
17.704482671904348
10
11.665063509461106
20
15.20448267190433
10
14.165063509461106
20
19.534609690826521
10
9.8349364905389081
20
22.034609690826507
0
LWPOLYLINE
5
101
100
AcDbEntity
8
0
100
AcDbPolyline
90
4
70
1
43
0.0
10
15.20448267190436
20
11.665063509461097
10
17.704482671904344
20
7.3349364905388921
10
22.034609690826535
20
9.8349364905388867
10
19.534609690826528
20
14.165063509461076
0
LWPOLYLINE
5
102
100
AcDbEntity
8
0
100
AcDbPolyline
90
4
70
1
43
0.0
10
19.000000000000021
20
2.4999999999999978
10
19.000000000000004
20
-2.5000000000000036
10
24
20
-2.5000000000000044
10
23.999999999999986
20
2.4999999999999956
0
LWPOLYLINE
5
103
100
AcDbEntity
8
0
100
AcDbPolyline
90
4
70
1
43
0.0
10
17.704482671904351
20
-7.3349364905389223
10
15.204482671904334
20
-11.665063509461106
10
19.534609690826521
20
-14.165063509461106
10
22.034609690826514
20
-9.8349364905389081
0
LWPOLYLINE
5
104
100
AcDbEntity
8
0
100
AcDbPolyline
90
4
70
1
43
0.0
10
11.665063509461103
20
-15.204482671904355
10
7.3349364905388992
20
-17.704482671904341
10
9.8349364905388956
20
-22.034609690826528
10
14.165063509461081
20
-19.534609690826521
0
LWPOLYLINE
5
105
100
AcDbEntity
8
0
100
AcDbPolyline
90
4
70
1
43
0.0
10
2.4999999999999991
20
-19.000000000000021
10
-2.5000000000000022
20
-19.000000000000004
10
-2.5000000000000036
20
-24
10
2.4999999999999969
20
-23.999999999999986
0
LWPOLYLINE
5
106
100
AcDbEntity
8
0
100
AcDbPolyline
90
4
70
1
43
0.0
10
-7.3349364905389205
20
-17.704482671904351
10
-11.665063509461104
20
-15.204482671904334
10
-14.165063509461104
20
-19.534609690826521
10
-9.8349364905389063
20
-22.034609690826514
0
LWPOLYLINE
5
107
100
AcDbEntity
8
0
100
AcDbPolyline
90
4
70
1
43
0.0
10
-15.204482671904355
20
-11.665063509461104
10
-17.704482671904341
20
-7.334936490538901
10
-22.034609690826528
20
-9.8349364905388974
10
-19.534609690826521
20
-14.165063509461087
0
LWPOLYLINE
5
108
100
AcDbEntity
8
0
100
AcDbPolyline
90
4
70
1
43
0.0
10
-19.000000000000021
20
-2.5
10
-19.000000000000004
20
2.5000000000000009
10
-24
20
2.5000000000000009
10
-23.999999999999986
20
-2.4999999999999987
0
LWPOLYLINE
5
109
100
AcDbEntity
8
0
100
AcDbPolyline
90
4
70
1
43
0.0
10
-17.704482671904351
20
7.3349364905389161
10
-15.204482671904335
20
11.665063509461099
10
-19.534609690826525
20
14.165063509461097
10
-22.034609690826514
20
9.8349364905388992
0
LWPOLYLINE
5
110
100
AcDbEntity
8
0
100
AcDbPolyline
90
4
70
1
43
0.0
10
-11.665063509461106
20
15.204482671904353
10
-7.3349364905389036
20
17.704482671904337
10
-9.834936490538901
20
22.034609690826528
10
-14.165063509461087
20
19.534609690826517
0
LWPOLYLINE
5
111
100
AcDbEntity
8
0
100
AcDbPolyline
90
4
70
1
43
0.0
10
-2.5000000000000009
20
19.000000000000021
10
2.5
20
19.000000000000004
10
2.5
20
24
10
-2.5
20
23.999999999999986
0
CIRCLE
5
112
100
AcDbEntity
8
0
100
AcDbCircle
10
27.646364609059635
20
18.472710247901766
30
0
40
1.0000000000000009
210
0
220
-0
230
1
0
CIRCLE
5
113
100
AcDbEntity
8
0
100
AcDbCircle
10
18.472710247901766
20
-27.646364609059635
30
0
40
1.0000000000000009
210
0
220
-0
230
1
0
CIRCLE
5
114
100
AcDbEntity
8
0
100
AcDbCircle
10
-27.646364609059631
20
-18.47271024790177
30
0
40
1.0000000000000009
210
-0
220
0
230
1
0
CIRCLE
5
115
100
AcDbEntity
8
0
100
AcDbCircle
10
-18.472710247901773
20
27.646364609059631
30
0
40
1.0000000000000009
210
0
220
0
230
1
0
CIRCLE
5
116
100
AcDbEntity
8
0
100
AcDbCircle
10
26.33547101363159
20
34.307515315801488
30
0
40
1.0000000000000009
210
0
220
-0
230
1
0
CIRCLE
5
117
100
AcDbEntity
8
0
100
AcDbCircle
10
34.307515315801488
20
-26.33547101363159
30
0
40
1.0000000000000009
210
0
220
-0
230
1
0
CIRCLE
5
118
100
AcDbEntity
8
0
100
AcDbCircle
10
-26.335471013631583
20
-34.307515315801488
30
0
40
1.0000000000000009
210
-0
220
0
230
1
0
CIRCLE
5
119
100
AcDbEntity
8
0
100
AcDbCircle
10
-34.307515315801488
20
26.335471013631583
30
0
40
1.0000000000000009
210
0
220
0
230
1
0
CIRCLE
5
120
100
AcDbEntity
8
0
100
AcDbCircle
10
12.222561515103106
20
-5.1158078550235633
30
0
40
1.0000000000000009
210
0
220
-0
230
1
0
CIRCLE
5
121
100
AcDbEntity
8
0
100
AcDbCircle
10
-12.222561515103106
20
5.1158078550235615
30
0
40
1.0000000000000009
210
0
220
0
230
1
0
CIRCLE
5
122
100
AcDbEntity
8
0
100
AcDbCircle
10
12.222561515103106
20
-5.1158078550235633
30
0
40
1.0000000000000009
210
0
220
-0
230
1
0
CIRCLE
5
123
100
AcDbEntity
8
0
100
AcDbCircle
10
-12.222561515103106
20
5.1158078550235615
30
0
40
1.0000000000000009
210
0
220
0
230
1
0
CIRCLE
5
124
100
AcDbEntity
8
0
100
AcDbCircle
10
26.33547101363159
20
34.307515315801488
30
0
40
1.0000000000000009
210
0
220
-0
230
1
0
CIRCLE
5
125
100
AcDbEntity
8
0
100
AcDbCircle
10
27.646364609059635
20
18.472710247901766
30
0
40
1.0000000000000009
210
0
220
-0
230
1
0
CIRCLE
5
126
100
AcDbEntity
8
0
100
AcDbCircle
10
34.307515315801488
20
-26.33547101363159
30
0
40
1.0000000000000009
210
0
220
-0
230
1
0
CIRCLE
5
127
100
AcDbEntity
8
0
100
AcDbCircle
10
18.472710247901766
20
-27.646364609059635
30
0
40
1.0000000000000009
210
0
220
-0
230
1
0
CIRCLE
5
128
100
AcDbEntity
8
0
100
AcDbCircle
10
-26.335471013631583
20
-34.307515315801488
30
0
40
1.0000000000000009
210
-0
220
0
230
1
0
CIRCLE
5
129
100
AcDbEntity
8
0
100
AcDbCircle
10
-27.646364609059631
20
-18.47271024790177
30
0
40
1.0000000000000009
210
-0
220
0
230
1
0
CIRCLE
5
130
100
AcDbEntity
8
0
100
AcDbCircle
10
-34.307515315801488
20
26.335471013631583
30
0
40
1.0000000000000009
210
0
220
0
230
1
0
CIRCLE
5
131
100
AcDbEntity
8
0
100
AcDbCircle
10
-18.472710247901773
20
27.646364609059631
30
0
40
1.0000000000000009
210
0
220
0
230
1
0
LWPOLYLINE
5
132
100
AcDbEntity
8
0
100
AcDbPolyline
90
4
70
1
43
0.0
10
-14.897566915439583
20
1.7500000000000093
42
-0.88940698002624319
10
14.89756691543958
20
1.7500000000000029
10
16.90968657308586
20
1.7500000000000022
42
0.90184995056457884
10
-16.90968657308585
20
1.750000000000008
0
LWPOLYLINE
5
133
100
AcDbEntity
8
0
100
AcDbPolyline
90
4
70
1
43
0.0
10
-24.938674784358529
20
1.7500000000000251
42
-0.9322869078264866
10
24.938674784358529
20
1.7499999999999993
10
26.943227349372982
20
1.750000000000004
42
0.93715573389123352
10
-26.943227349372982
20
1.7500000000000067
0
LWPOLYLINE
5
134
100
AcDbEntity
8
0
100
AcDbPolyline
90
4
70
1
43
0.0
10
-34.956222622016817
20
1.7500000000000444
42
-0.95118973121134132
10
34.956222622016824
20
1.7499999999999911
10
36.95859169394852
20
1.7499999999999958
42
0.95377010823092889
10
-36.95859169394852
20
1.7500000000000004
0
LWPOLYLINE
5
135
100
AcDbEntity
8
0
100
AcDbPolyline
90
4
70
1
43
0.0
10
-2.5000000000000036
20
8.9999999999999947
10
2.4999999999999964
20
8.9999999999999929
10
2.4999999999999964
20
13.999999999999993
10
-2.5000000000000036
20
13.999999999999996
0
LWPOLYLINE
5
136
100
AcDbEntity
8
0
100
AcDbPolyline
90
4
70
1
43
0.0
10
-8.1317279836452947
20
4.5961940777125534
10
-4.5961940777125569
20
8.1317279836452894
10
-8.1317279836452947
20
11.667261889578027
10
-11.667261889578036
20
8.1317279836452929
0
LWPOLYLINE
5
137
100
AcDbEntity
8
0
100
AcDbPolyline
90
4
70
1
43
0.0
10
-8.9999999999999947
20
-2.5000000000000027
10
-8.9999999999999929
20
2.4999999999999973
10
-13.999999999999993
20
2.4999999999999978
10
-13.999999999999996
20
-2.5000000000000022
0
LWPOLYLINE
5
138
100
AcDbEntity
8
0
100
AcDbPolyline
90
4
70
1
43
0.0
10
-4.5961940777125534
20
-8.1317279836452947
10
-8.1317279836452894
20
-4.5961940777125552
10
-11.667261889578027
20
-8.1317279836452929
10
-8.1317279836452929
20
-11.667261889578032
0
LWPOLYLINE
5
139
100
AcDbEntity
8
0
100
AcDbPolyline
90
4
70
1
43
0.0
10
2.5000000000000022
20
-8.9999999999999947
10
-2.4999999999999978
20
-8.9999999999999929
10
-2.4999999999999982
20
-13.999999999999993
10
2.5000000000000018
20
-13.999999999999996
0
LWPOLYLINE
5
140
100
AcDbEntity
8
0
100
AcDbPolyline
90
4
70
1
43
0.0
10
8.1317279836452947
20
-4.5961940777125543
10
4.5961940777125552
20
-8.1317279836452911
10
8.1317279836452911
20
-11.667261889578029
10
11.667261889578032
20
-8.1317279836452947
0
LWPOLYLINE
5
141
100
AcDbEntity
8
0
100
AcDbPolyline
90
4
70
1
43
0.0
10
8.9999999999999947
20
2.5000000000000018
10
8.9999999999999929
20
-2.4999999999999982
10
13.999999999999993
20
-2.4999999999999996
10
13.999999999999996
20
2.5000000000000004
0
LWPOLYLINE
5
142
100
AcDbEntity
8
0
100
AcDbPolyline
90
4
70
1
43
0.0
10
4.5961940777125543
20
8.1317279836452947
10
8.1317279836452911
20
4.5961940777125534
10
11.667261889578029
20
8.1317279836452911
10
8.1317279836452947
20
11.667261889578031
0
LWPOLYLINE
5
143
100
AcDbEntity
8
0
100
AcDbPolyline
90
4
70
1
43
0.0
10
36.95859169394852
20
-1.7500000000000049
10
34.95622262201681
20
-1.7500000000000329
42
-0.95118973121134132
10
-34.95622262201681
20
-1.7500000000000009
10
-36.95859169394852
20
-1.7499999999999929
42
0.95377010823092889
0
LWPOLYLINE
5
144
100
AcDbEntity
8
0
100
AcDbPolyline
90
4
70
1
43
0.0
10
-2.5000000000000044
20
29.000000000000028
10
2.5000000000000067
20
29.000000000000021
10
2.5000000000000067
20
34.000000000000021
10
-2.5000000000000036
20
34
0
LWPOLYLINE
5
145
100
AcDbEntity
8
0
100
AcDbPolyline
90
4
70
1
43
0.0
10
-13.407518369865837
20
25.835797861914621
10
-8.788120707309389
20
27.749215023740064
10
-10.701537869134835
20
32.368612686296501
10
-15.320935531691273
20
30.45519552447103
0
LWPOLYLINE
5
146
100
AcDbEntity
8
0
100
AcDbPolyline
90
4
70
1
43
0.0
10
-22.273863607376274
20
18.738329701443529
10
-18.738329701443522
20
22.273863607376271
10
-22.273863607376256
20
25.809397513309005
10
-25.809397513308991
20
22.273863607376253
0
LWPOLYLINE
5
147
100
AcDbEntity
8
0
100
AcDbPolyline
90
4
70
1
43
0.0
10
-27.749215023740071
20
8.7881207073093961
10
-25.835797861914607
20
13.407518369865837
10
-30.455195524471041
20
15.320935531691283
10
-32.368612686296473
20
10.701537869134835
0
LWPOLYLINE
5
148
100
AcDbEntity
8
0
100
AcDbPolyline
90
4
70
1
43
0.0
10
-29.000000000000028
20
-2.5000000000000027
10
-29.000000000000021
20
2.5000000000000084
10
-34.000000000000021
20
2.5000000000000089
10
-34
20
-2.5000000000000009
0
LWPOLYLINE
5
149
100
AcDbEntity
8
0
100
AcDbPolyline
90
4
70
1
43
0.0
10
-25.835797861914621
20
-13.407518369865837
10
-27.749215023740064
20
-8.7881207073093872
10
-32.368612686296501
20
-10.701537869134835
10
-30.45519552447103
20
-15.320935531691271
0
LWPOLYLINE
5
150
100
AcDbEntity
8
0
100
AcDbPolyline
90
4
70
1
43
0.0
10
-18.738329701443529
20
-22.273863607376274
10
-22.273863607376271
20
-18.738329701443519
10
-25.809397513309005
20
-22.273863607376256
10
-22.273863607376253
20
-25.809397513308987
0
LWPOLYLINE
5
151
100
AcDbEntity
8
0
100
AcDbPolyline
90
4
70
1
43
0.0
10
-8.7881207073093979
20
-27.749215023740071
10
-13.407518369865837
20
-25.835797861914607
10
-15.320935531691289
20
-30.455195524471041
10
-10.701537869134839
20
-32.368612686296473
0
LWPOLYLINE
5
152
100
AcDbEntity
8
0
100
AcDbPolyline
90
4
70
1
43
0.0
10
2.5000000000000009
20
-29.000000000000028
10
-2.5000000000000098
20
-29.000000000000021
10
-2.5000000000000111
20
-34.000000000000021
10
2.4999999999999991
20
-34
0
LWPOLYLINE
5
153
100
AcDbEntity
8
0
100
AcDbPolyline
90
4
70
1
43
0.0
10
13.407518369865834
20
-25.835797861914624
10
8.7881207073093854
20
-27.749215023740067
10
10.701537869134834
20
-32.368612686296501
10
15.320935531691269
20
-30.455195524471034
0
LWPOLYLINE
5
154
100
AcDbEntity
8
0
100
AcDbPolyline
90
4
70
1
43
0.0
10
22.273863607376274
20
-18.738329701443533
10
18.738329701443519
20
-22.273863607376274
10
22.273863607376256
20
-25.809397513309008
10
25.809397513308987
20
-22.273863607376253
0
LWPOLYLINE
5
155
100
AcDbEntity
8
0
100
AcDbPolyline
90
4
70
1
43
0.0
10
27.749215023740064
20
-8.7881207073094121
10
25.835797861914603
20
-13.40751836986585
10
30.455195524471034
20
-15.320935531691301
10
32.368612686296473
20
-10.701537869134853
0
LWPOLYLINE
5
156
100
AcDbEntity
8
0
100
AcDbPolyline
90
4
70
1
43
0.0
10
29.000000000000028
20
2.4999999999999991
10
29.000000000000021
20
-2.5000000000000124
10
34.000000000000021
20
-2.5000000000000133
10
34
20
2.4999999999999969
0
LWPOLYLINE
5
157
100
AcDbEntity
8
0
100
AcDbPolyline
90
4
70
1
43
0.0
10
25.835797861914614
20
13.407518369865844
10
27.749215023740064
20
8.7881207073093961
10
32.368612686296501
20
10.701537869134846
10
30.455195524471023
20
15.320935531691282
0
LWPOLYLINE
5
158
100
AcDbEntity
8
0
100
AcDbPolyline
90
4
70
1
43
0.0
10
18.738329701443533
20
22.273863607376271
10
22.273863607376274
20
18.738329701443512
10
25.809397513309008
20
22.273863607376253
10
22.273863607376253
20
25.809397513308983
0
LWPOLYLINE
5
159
100
AcDbEntity
8
0
100
AcDbPolyline
90
4
70
1
43
0.0
10
8.7881207073094121
20
27.749215023740064
10
13.407518369865851
20
25.835797861914603
10
15.320935531691305
20
30.455195524471034
10
10.701537869134857
20
32.368612686296473
0
LWPOLYLINE
5
160
100
AcDbEntity
8
0
100
AcDbPolyline
90
4
70
1
43
0.0
10
12.508757324721023
20
37.024059612517391
10
13.80285255023362
20
41.853688743962707
10
8.9732234187882813
20
43.147783969475341
10
7.6791281932756821
20
38.318154838030011
0
LWPOLYLINE
5
161
100
AcDbEntity
8
0
100
AcDbPolyline
90
4
70
1
43
0.0
10
21.665063509461135
20
32.524990747593129
10
24.165063509461117
20
36.855117766515299
10
19.834936490538936
20
39.355117766515328
10
17.334936490538947
20
35.024990747593151
0
LWPOLYLINE
5
162
100
AcDbEntity
8
0
100
AcDbPolyline
90
4
70
1
43
0.0
10
29.344931419241757
20
25.809397513309005
10
32.88046532517447
20
29.344931419241725
10
29.344931419241753
20
32.880465325174484
10
25.80939751330903
20
29.34493141924176
0
LWPOLYLINE
5
163
100
AcDbEntity
8
0
100
AcDbPolyline
90
4
70
1
43
0.0
10
35.024990747593151
20
17.334936490538894
10
39.35511776651532
20
19.83493649053888
10
36.855117766515349
20
24.165063509461092
10
32.524990747593172
20
21.665063509461106
0
LWPOLYLINE
5
164
100
AcDbEntity
8
0
100
AcDbPolyline
90
4
70
1
43
0.0
10
38.318154838030004
20
7.6791281932756306
10
43.14778396947532
20
8.9732234187882298
10
41.853688743962749
20
13.802852550233581
10
37.024059612517419
20
12.508757324720982
0
LWPOLYLINE
5
165
100
AcDbEntity
8
0
100
AcDbPolyline
90
4
70
1
43
0.0
10
39.000000000000043
20
-2.5000000000000084
10
44.000000000000014
20
-2.5000000000000044
10
44.000000000000043
20
2.4999999999999996
10
39.000000000000057
20
2.4999999999999973
0
LWPOLYLINE
5
166
100
AcDbEntity
8
0
100
AcDbPolyline
90
4
70
1
43
0.0
10
37.024059612517391
20
-12.508757324721021
10
41.853688743962707
20
-13.802852550233617
10
43.147783969475341
20
-8.9732234187882796
10
38.318154838030011
20
-7.6791281932756794
0
LWPOLYLINE
5
167
100
AcDbEntity
8
0
100
AcDbPolyline
90
4
70
1
43
0.0
10
32.524990747593137
20
-21.665063509461135
10
36.855117766515306
20
-24.165063509461117
10
39.355117766515335
20
-19.834936490538936
10
35.024990747593151
20
-17.334936490538947
0
LWPOLYLINE
5
168
100
AcDbEntity
8
0
100
AcDbPolyline
90
4
70
1
43
0.0
10
25.809397513308994
20
-29.344931419241767
10
29.344931419241718
20
-32.880465325174484
10
32.880465325174477
20
-29.34493141924176
10
29.344931419241753
20
-25.80939751330904
0
LWPOLYLINE
5
169
100
AcDbEntity
8
0
100
AcDbPolyline
90
4
70
1
43
0.0
10
17.334936490538912
20
-35.024990747593151
10
19.834936490538901
20
-39.355117766515313
10
24.16506350946111
20
-36.855117766515335
10
21.665063509461117
20
-32.524990747593165
0
LWPOLYLINE
5
170
100
AcDbEntity
8
0
100
AcDbPolyline
90
4
70
1
43
0.0
10
7.6791281932756323
20
-38.318154838030004
10
8.9732234187882316
20
-43.14778396947532
10
13.802852550233585
20
-41.853688743962749
10
12.508757324720985
20
-37.024059612517419
0
LWPOLYLINE
5
171
100
AcDbEntity
8
0
100
AcDbPolyline
90
4
70
1
43
0.0
10
-2.5000000000000062
20
-39.000000000000043
10
-2.5000000000000022
20
-44.000000000000014
10
2.5000000000000022
20
-44.000000000000043
10
2.4999999999999996
20
-39.000000000000057
0
LWPOLYLINE
5
172
100
AcDbEntity
8
0
100
AcDbPolyline
90
4
70
1
43
0.0
10
-12.508757324721
20
-37.024059612517391
10
-13.802852550233595
20
-41.853688743962714
10
-8.9732234187882565
20
-43.147783969475348
10
-7.6791281932756608
20
-38.318154838030019
0
LWPOLYLINE
5
173
100
AcDbEntity
8
0
100
AcDbPolyline
90
4
70
1
43
0.0
10
-21.665063509461131
20
-32.524990747593137
10
-24.165063509461113
20
-36.855117766515306
10
-19.834936490538929
20
-39.355117766515335
10
-17.33493649053894
20
-35.024990747593151
0
LWPOLYLINE
5
174
100
AcDbEntity
8
0
100
AcDbPolyline
90
4
70
1
43
0.0
10
-29.344931419241753
20
-25.809397513309008
10
-32.88046532517447
20
-29.344931419241732
10
-29.34493141924175
20
-32.880465325174491
10
-25.809397513309026
20
-29.34493141924176
0
LWPOLYLINE
5
175
100
AcDbEntity
8
0
100
AcDbPolyline
90
4
70
1
43
0.0
10
-35.024990747593151
20
-17.334936490538915
10
-39.35511776651532
20
-19.834936490538905
10
-36.855117766515335
20
-24.165063509461113
10
-32.524990747593165
20
-21.66506350946112
0
LWPOLYLINE
5
176
100
AcDbEntity
8
0
100
AcDbPolyline
90
4
70
1
43
0.0
10
-38.318154838029997
20
-7.6791281932756439
10
-43.14778396947532
20
-8.973223418788244
10
-41.853688743962742
20
-13.802852550233595
10
-37.024059612517412
20
-12.508757324720996
0
LWPOLYLINE
5
177
100
AcDbEntity
8
0
100
AcDbPolyline
90
4
70
1
43
0.0
10
-39.000000000000043
20
2.5000000000000036
10
-44.000000000000014
20
2.4999999999999996
10
-44.000000000000043
20
-2.5000000000000049
10
-39.000000000000057
20
-2.5000000000000022
0
LWPOLYLINE
5
178
100
AcDbEntity
8
0
100
AcDbPolyline
90
4
70
1
43
0.0
10
-37.024059612517391
20
12.508757324720998
10
-41.853688743962714
20
13.802852550233593
10
-43.147783969475348
20
8.9732234187882547
10
-38.318154838030019
20
7.6791281932756581
0
LWPOLYLINE
5
179
100
AcDbEntity
8
0
100
AcDbPolyline
90
4
70
1
43
0.0
10
-32.524990747593144
20
21.66506350946112
10
-36.855117766515313
20
24.165063509461106
10
-39.355117766515335
20
19.834936490538922
10
-35.024990747593158
20
17.334936490538933
0
LWPOLYLINE
5
180
100
AcDbEntity
8
0
100
AcDbPolyline
90
4
70
1
43
0.0
10
-25.809397513309015
20
29.344931419241753
10
-29.344931419241735
20
32.88046532517447
10
-32.880465325174498
20
29.34493141924175
10
-29.344931419241771
20
25.809397513309023
0
LWPOLYLINE
5
181
100
AcDbEntity
8
0
100
AcDbPolyline
90
4
70
1
43
0.0
10
-17.334936490538919
20
35.024990747593144
10
-19.834936490538908
20
39.355117766515313
10
-24.165063509461117
20
36.855117766515335
10
-21.665063509461127
20
32.524990747593158
0
LWPOLYLINE
5
182
100
AcDbEntity
8
0
100
AcDbPolyline
90
4
70
1
43
0.0
10
-7.6791281932756483
20
38.318154838030004
10
-8.9732234187882476
20
43.14778396947532
10
-13.802852550233602
20
41.853688743962742
10
-12.508757324721
20
37.024059612517412
0
LWPOLYLINE
5
183
100
AcDbEntity
8
0
100
AcDbPolyline
90
4
70
1
43
0.0
10
2.5000000000000009
20
39.000000000000043
10
2.4999999999999964
20
44.000000000000014
10
-2.500000000000008
20
44.000000000000043
10
-2.5000000000000044
20
39.000000000000057
0
CIRCLE
5
184
100
AcDbEntity
8
0
100
AcDbCircle
10
0
20
0
30
0
40
45
210
0
220
-0
230
1
0
LWPOLYLINE
5
185
100
AcDbEntity
8
0
100
AcDbPolyline
90
4
70
1
43
0.0
10
16.90968657308585
20
-1.7500000000000098
10
14.89756691543958
20
-1.7499999999999982
42
-0.88940698002624341
10
-14.89756691543958
20
-1.7500000000000073
10
-16.909686573085853
20
-1.7500000000000044
42
0.90184995056457828
0
LWPOLYLINE
5
186
100
AcDbEntity
8
0
100
AcDbPolyline
90
4
70
1
43
0.0
10
26.943227349372982
20
-1.7500000000000098
10
24.938674784358525
20
-1.750000000000018
42
-0.9322869078264866
10
-24.938674784358522
20
-1.750000000000006
10
-26.943227349372982
20
-1.7500000000000029
42
0.93715573389123352
0
CIRCLE
5
187
100
AcDbEntity
8
0
100
AcDbCircle
10
12.222561515103106
20
-5.1158078550235633
30
0
40
1.0000000000000009
210
0
220
-0
230
1
0
CIRCLE
5
188
100
AcDbEntity
8
0
100
AcDbCircle
10
-12.222561515103106
20
5.1158078550235615
30
0
40
1.0000000000000009
210
0
220
0
230
1
0
CIRCLE
5
189
100
AcDbEntity
8
0
100
AcDbCircle
10
26.33547101363159
20
34.307515315801488
30
0
40
1.0000000000000009
210
0
220
-0
230
1
0
CIRCLE
5
190
100
AcDbEntity
8
0
100
AcDbCircle
10
34.307515315801488
20
-26.33547101363159
30
0
40
1.0000000000000009
210
0
220
-0
230
1
0
CIRCLE
5
191
100
AcDbEntity
8
0
100
AcDbCircle
10
-26.335471013631583
20
-34.307515315801488
30
0
40
1.0000000000000009
210
-0
220
0
230
1
0
CIRCLE
5
192
100
AcDbEntity
8
0
100
AcDbCircle
10
-34.307515315801488
20
26.335471013631583
30
0
40
1.0000000000000009
210
0
220
0
230
1
0
LWPOLYLINE
5
193
100
AcDbEntity
8
0
100
AcDbPolyline
90
4
70
1
43
0.0
10
-14.897566915439583
20
1.7500000000000093
42
-0.88940698002624319
10
14.89756691543958
20
1.7500000000000029
10
16.90968657308586
20
1.7500000000000022
42
0.90184995056457884
10
-16.90968657308585
20
1.750000000000008
0
LWPOLYLINE
5
194
100
AcDbEntity
8
0
100
AcDbPolyline
90
4
70
1
43
0.0
10
-24.938674784358529
20
1.7500000000000251
42
-0.9322869078264866
10
24.938674784358529
20
1.7499999999999993
10
26.943227349372982
20
1.750000000000004
42
0.93715573389123352
10
-26.943227349372982
20
1.7500000000000067
0
LWPOLYLINE
5
195
100
AcDbEntity
8
0
100
AcDbPolyline
90
4
70
1
43
0.0
10
-34.956222622016817
20
1.7500000000000444
42
-0.95118973121134132
10
34.956222622016824
20
1.7499999999999911
10
36.95859169394852
20
1.7499999999999958
42
0.95377010823092889
10
-36.95859169394852
20
1.7500000000000004
0
LWPOLYLINE
5
196
100
AcDbEntity
8
0
100
AcDbPolyline
90
4
70
1
43
0.0
10
-2.5000000000000036
20
8.9999999999999947
10
2.4999999999999964
20
8.9999999999999929
10
2.4999999999999964
20
13.999999999999993
10
-2.5000000000000036
20
13.999999999999996
0
LWPOLYLINE
5
197
100
AcDbEntity
8
0
100
AcDbPolyline
90
4
70
1
43
0.0
10
-8.1317279836452947
20
4.5961940777125534
10
-4.5961940777125569
20
8.1317279836452894
10
-8.1317279836452947
20
11.667261889578027
10
-11.667261889578036
20
8.1317279836452929
0
LWPOLYLINE
5
198
100
AcDbEntity
8
0
100
AcDbPolyline
90
4
70
1
43
0.0
10
-8.9999999999999947
20
-2.5000000000000027
10
-8.9999999999999929
20
2.4999999999999973
10
-13.999999999999993
20
2.4999999999999978
10
-13.999999999999996
20
-2.5000000000000022
0
LWPOLYLINE
5
199
100
AcDbEntity
8
0
100
AcDbPolyline
90
4
70
1
43
0.0
10
-4.5961940777125534
20
-8.1317279836452947
10
-8.1317279836452894
20
-4.5961940777125552
10
-11.667261889578027
20
-8.1317279836452929
10
-8.1317279836452929
20
-11.667261889578032
0
LWPOLYLINE
5
200
100
AcDbEntity
8
0
100
AcDbPolyline
90
4
70
1
43
0.0
10
2.5000000000000022
20
-8.9999999999999947
10
-2.4999999999999978
20
-8.9999999999999929
10
-2.4999999999999982
20
-13.999999999999993
10
2.5000000000000018
20
-13.999999999999996
0
LWPOLYLINE
5
201
100
AcDbEntity
8
0
100
AcDbPolyline
90
4
70
1
43
0.0
10
8.1317279836452947
20
-4.5961940777125543
10
4.5961940777125552
20
-8.1317279836452911
10
8.1317279836452911
20
-11.667261889578029
10
11.667261889578032
20
-8.1317279836452947
0
LWPOLYLINE
5
202
100
AcDbEntity
8
0
100
AcDbPolyline
90
4
70
1
43
0.0
10
8.9999999999999947
20
2.5000000000000018
10
8.9999999999999929
20
-2.4999999999999982
10
13.999999999999993
20
-2.4999999999999996
10
13.999999999999996
20
2.5000000000000004
0
LWPOLYLINE
5
203
100
AcDbEntity
8
0
100
AcDbPolyline
90
4
70
1
43
0.0
10
4.5961940777125543
20
8.1317279836452947
10
8.1317279836452911
20
4.5961940777125534
10
11.667261889578029
20
8.1317279836452911
10
8.1317279836452947
20
11.667261889578031
0
LWPOLYLINE
5
204
100
AcDbEntity
8
0
100
AcDbPolyline
90
4
70
1
43
0.0
10
36.95859169394852
20
-1.7500000000000049
10
34.95622262201681
20
-1.7500000000000329
42
-0.95118973121134132
10
-34.95622262201681
20
-1.7500000000000009
10
-36.95859169394852
20
-1.7499999999999929
42
0.95377010823092889
0
LWPOLYLINE
5
205
100
AcDbEntity
8
0
100
AcDbPolyline
90
4
70
1
43
0.0
10
-2.5000000000000044
20
29.000000000000028
10
2.5000000000000067
20
29.000000000000021
10
2.5000000000000067
20
34.000000000000021
10
-2.5000000000000036
20
34
0
LWPOLYLINE
5
206
100
AcDbEntity
8
0
100
AcDbPolyline
90
4
70
1
43
0.0
10
-13.407518369865837
20
25.835797861914621
10
-8.788120707309389
20
27.749215023740064
10
-10.701537869134835
20
32.368612686296501
10
-15.320935531691273
20
30.45519552447103
0
LWPOLYLINE
5
207
100
AcDbEntity
8
0
100
AcDbPolyline
90
4
70
1
43
0.0
10
-22.273863607376274
20
18.738329701443529
10
-18.738329701443522
20
22.273863607376271
10
-22.273863607376256
20
25.809397513309005
10
-25.809397513308991
20
22.273863607376253
0
LWPOLYLINE
5
208
100
AcDbEntity
8
0
100
AcDbPolyline
90
4
70
1
43
0.0
10
-27.749215023740071
20
8.7881207073093961
10
-25.835797861914607
20
13.407518369865837
10
-30.455195524471041
20
15.320935531691283
10
-32.368612686296473
20
10.701537869134835
0
LWPOLYLINE
5
209
100
AcDbEntity
8
0
100
AcDbPolyline
90
4
70
1
43
0.0
10
-29.000000000000028
20
-2.5000000000000027
10
-29.000000000000021
20
2.5000000000000084
10
-34.000000000000021
20
2.5000000000000089
10
-34
20
-2.5000000000000009
0
LWPOLYLINE
5
210
100
AcDbEntity
8
0
100
AcDbPolyline
90
4
70
1
43
0.0
10
-25.835797861914621
20
-13.407518369865837
10
-27.749215023740064
20
-8.7881207073093872
10
-32.368612686296501
20
-10.701537869134835
10
-30.45519552447103
20
-15.320935531691271
0
LWPOLYLINE
5
211
100
AcDbEntity
8
0
100
AcDbPolyline
90
4
70
1
43
0.0
10
-18.738329701443529
20
-22.273863607376274
10
-22.273863607376271
20
-18.738329701443519
10
-25.809397513309005
20
-22.273863607376256
10
-22.273863607376253
20
-25.809397513308987
0
LWPOLYLINE
5
212
100
AcDbEntity
8
0
100
AcDbPolyline
90
4
70
1
43
0.0
10
-8.7881207073093979
20
-27.749215023740071
10
-13.407518369865837
20
-25.835797861914607
10
-15.320935531691289
20
-30.455195524471041
10
-10.701537869134839
20
-32.368612686296473
0
LWPOLYLINE
5
213
100
AcDbEntity
8
0
100
AcDbPolyline
90
4
70
1
43
0.0
10
2.5000000000000009
20
-29.000000000000028
10
-2.5000000000000098
20
-29.000000000000021
10
-2.5000000000000111
20
-34.000000000000021
10
2.4999999999999991
20
-34
0
LWPOLYLINE
5
214
100
AcDbEntity
8
0
100
AcDbPolyline
90
4
70
1
43
0.0
10
13.407518369865834
20
-25.835797861914624
10
8.7881207073093854
20
-27.749215023740067
10
10.701537869134834
20
-32.368612686296501
10
15.320935531691269
20
-30.455195524471034
0
LWPOLYLINE
5
215
100
AcDbEntity
8
0
100
AcDbPolyline
90
4
70
1
43
0.0
10
22.273863607376274
20
-18.738329701443533
10
18.738329701443519
20
-22.273863607376274
10
22.273863607376256
20
-25.809397513309008
10
25.809397513308987
20
-22.273863607376253
0
LWPOLYLINE
5
216
100
AcDbEntity
8
0
100
AcDbPolyline
90
4
70
1
43
0.0
10
27.749215023740064
20
-8.7881207073094121
10
25.835797861914603
20
-13.40751836986585
10
30.455195524471034
20
-15.320935531691301
10
32.368612686296473
20
-10.701537869134853
0
LWPOLYLINE
5
217
100
AcDbEntity
8
0
100
AcDbPolyline
90
4
70
1
43
0.0
10
29.000000000000028
20
2.4999999999999991
10
29.000000000000021
20
-2.5000000000000124
10
34.000000000000021
20
-2.5000000000000133
10
34
20
2.4999999999999969
0
LWPOLYLINE
5
218
100
AcDbEntity
8
0
100
AcDbPolyline
90
4
70
1
43
0.0
10
25.835797861914614
20
13.407518369865844
10
27.749215023740064
20
8.7881207073093961
10
32.368612686296501
20
10.701537869134846
10
30.455195524471023
20
15.320935531691282
0
LWPOLYLINE
5
219
100
AcDbEntity
8
0
100
AcDbPolyline
90
4
70
1
43
0.0
10
18.738329701443533
20
22.273863607376271
10
22.273863607376274
20
18.738329701443512
10
25.809397513309008
20
22.273863607376253
10
22.273863607376253
20
25.809397513308983
0
LWPOLYLINE
5
220
100
AcDbEntity
8
0
100
AcDbPolyline
90
4
70
1
43
0.0
10
8.7881207073094121
20
27.749215023740064
10
13.407518369865851
20
25.835797861914603
10
15.320935531691305
20
30.455195524471034
10
10.701537869134857
20
32.368612686296473
0
LWPOLYLINE
5
221
100
AcDbEntity
8
0
100
AcDbPolyline
90
4
70
1
43
0.0
10
12.508757324721023
20
37.024059612517391
10
13.80285255023362
20
41.853688743962707
10
8.9732234187882813
20
43.147783969475341
10
7.6791281932756821
20
38.318154838030011
0
LWPOLYLINE
5
222
100
AcDbEntity
8
0
100
AcDbPolyline
90
4
70
1
43
0.0
10
21.665063509461135
20
32.524990747593129
10
24.165063509461117
20
36.855117766515299
10
19.834936490538936
20
39.355117766515328
10
17.334936490538947
20
35.024990747593151
0
LWPOLYLINE
5
223
100
AcDbEntity
8
0
100
AcDbPolyline
90
4
70
1
43
0.0
10
29.344931419241757
20
25.809397513309005
10
32.88046532517447
20
29.344931419241725
10
29.344931419241753
20
32.880465325174484
10
25.80939751330903
20
29.34493141924176
0
LWPOLYLINE
5
224
100
AcDbEntity
8
0
100
AcDbPolyline
90
4
70
1
43
0.0
10
35.024990747593151
20
17.334936490538894
10
39.35511776651532
20
19.83493649053888
10
36.855117766515349
20
24.165063509461092
10
32.524990747593172
20
21.665063509461106
0
LWPOLYLINE
5
225
100
AcDbEntity
8
0
100
AcDbPolyline
90
4
70
1
43
0.0
10
38.318154838030004
20
7.6791281932756306
10
43.14778396947532
20
8.9732234187882298
10
41.853688743962749
20
13.802852550233581
10
37.024059612517419
20
12.508757324720982
0
LWPOLYLINE
5
226
100
AcDbEntity
8
0
100
AcDbPolyline
90
4
70
1
43
0.0
10
39.000000000000043
20
-2.5000000000000084
10
44.000000000000014
20
-2.5000000000000044
10
44.000000000000043
20
2.4999999999999996
10
39.000000000000057
20
2.4999999999999973
0
LWPOLYLINE
5
227
100
AcDbEntity
8
0
100
AcDbPolyline
90
4
70
1
43
0.0
10
37.024059612517391
20
-12.508757324721021
10
41.853688743962707
20
-13.802852550233617
10
43.147783969475341
20
-8.9732234187882796
10
38.318154838030011
20
-7.6791281932756794
0
LWPOLYLINE
5
228
100
AcDbEntity
8
0
100
AcDbPolyline
90
4
70
1
43
0.0
10
32.524990747593137
20
-21.665063509461135
10
36.855117766515306
20
-24.165063509461117
10
39.355117766515335
20
-19.834936490538936
10
35.024990747593151
20
-17.334936490538947
0
LWPOLYLINE
5
229
100
AcDbEntity
8
0
100
AcDbPolyline
90
4
70
1
43
0.0
10
25.809397513308994
20
-29.344931419241767
10
29.344931419241718
20
-32.880465325174484
10
32.880465325174477
20
-29.34493141924176
10
29.344931419241753
20
-25.80939751330904
0
LWPOLYLINE
5
230
100
AcDbEntity
8
0
100
AcDbPolyline
90
4
70
1
43
0.0
10
17.334936490538912
20
-35.024990747593151
10
19.834936490538901
20
-39.355117766515313
10
24.16506350946111
20
-36.855117766515335
10
21.665063509461117
20
-32.524990747593165
0
LWPOLYLINE
5
231
100
AcDbEntity
8
0
100
AcDbPolyline
90
4
70
1
43
0.0
10
7.6791281932756323
20
-38.318154838030004
10
8.9732234187882316
20
-43.14778396947532
10
13.802852550233585
20
-41.853688743962749
10
12.508757324720985
20
-37.024059612517419
0
LWPOLYLINE
5
232
100
AcDbEntity
8
0
100
AcDbPolyline
90
4
70
1
43
0.0
10
-2.5000000000000062
20
-39.000000000000043
10
-2.5000000000000022
20
-44.000000000000014
10
2.5000000000000022
20
-44.000000000000043
10
2.4999999999999996
20
-39.000000000000057
0
LWPOLYLINE
5
233
100
AcDbEntity
8
0
100
AcDbPolyline
90
4
70
1
43
0.0
10
-12.508757324721
20
-37.024059612517391
10
-13.802852550233595
20
-41.853688743962714
10
-8.9732234187882565
20
-43.147783969475348
10
-7.6791281932756608
20
-38.318154838030019
0
LWPOLYLINE
5
234
100
AcDbEntity
8
0
100
AcDbPolyline
90
4
70
1
43
0.0
10
-21.665063509461131
20
-32.524990747593137
10
-24.165063509461113
20
-36.855117766515306
10
-19.834936490538929
20
-39.355117766515335
10
-17.33493649053894
20
-35.024990747593151
0
LWPOLYLINE
5
235
100
AcDbEntity
8
0
100
AcDbPolyline
90
4
70
1
43
0.0
10
-29.344931419241753
20
-25.809397513309008
10
-32.88046532517447
20
-29.344931419241732
10
-29.34493141924175
20
-32.880465325174491
10
-25.809397513309026
20
-29.34493141924176
0
LWPOLYLINE
5
236
100
AcDbEntity
8
0
100
AcDbPolyline
90
4
70
1
43
0.0
10
-35.024990747593151
20
-17.334936490538915
10
-39.35511776651532
20
-19.834936490538905
10
-36.855117766515335
20
-24.165063509461113
10
-32.524990747593165
20
-21.66506350946112
0
LWPOLYLINE
5
237
100
AcDbEntity
8
0
100
AcDbPolyline
90
4
70
1
43
0.0
10
-38.318154838029997
20
-7.6791281932756439
10
-43.14778396947532
20
-8.973223418788244
10
-41.853688743962742
20
-13.802852550233595
10
-37.024059612517412
20
-12.508757324720996
0
LWPOLYLINE
5
238
100
AcDbEntity
8
0
100
AcDbPolyline
90
4
70
1
43
0.0
10
-39.000000000000043
20
2.5000000000000036
10
-44.000000000000014
20
2.4999999999999996
10
-44.000000000000043
20
-2.5000000000000049
10
-39.000000000000057
20
-2.5000000000000022
0
LWPOLYLINE
5
239
100
AcDbEntity
8
0
100
AcDbPolyline
90
4
70
1
43
0.0
10
-37.024059612517391
20
12.508757324720998
10
-41.853688743962714
20
13.802852550233593
10
-43.147783969475348
20
8.9732234187882547
10
-38.318154838030019
20
7.6791281932756581
0
LWPOLYLINE
5
240
100
AcDbEntity
8
0
100
AcDbPolyline
90
4
70
1
43
0.0
10
-32.524990747593144
20
21.66506350946112
10
-36.855117766515313
20
24.165063509461106
10
-39.355117766515335
20
19.834936490538922
10
-35.024990747593158
20
17.334936490538933
0
LWPOLYLINE
5
241
100
AcDbEntity
8
0
100
AcDbPolyline
90
4
70
1
43
0.0
10
-25.809397513309015
20
29.344931419241753
10
-29.344931419241735
20
32.88046532517447
10
-32.880465325174498
20
29.34493141924175
10
-29.344931419241771
20
25.809397513309023
0
LWPOLYLINE
5
242
100
AcDbEntity
8
0
100
AcDbPolyline
90
4
70
1
43
0.0
10
-17.334936490538919
20
35.024990747593144
10
-19.834936490538908
20
39.355117766515313
10
-24.165063509461117
20
36.855117766515335
10
-21.665063509461127
20
32.524990747593158
0
LWPOLYLINE
5
243
100
AcDbEntity
8
0
100
AcDbPolyline
90
4
70
1
43
0.0
10
-7.6791281932756483
20
38.318154838030004
10
-8.9732234187882476
20
43.14778396947532
10
-13.802852550233602
20
41.853688743962742
10
-12.508757324721
20
37.024059612517412
0
LWPOLYLINE
5
244
100
AcDbEntity
8
0
100
AcDbPolyline
90
4
70
1
43
0.0
10
2.5000000000000009
20
39.000000000000043
10
2.4999999999999964
20
44.000000000000014
10
-2.500000000000008
20
44.000000000000043
10
-2.5000000000000044
20
39.000000000000057
0
CIRCLE
5
245
100
AcDbEntity
8
0
100
AcDbCircle
10
0
20
0
30
0
40
45
210
0
220
-0
230
1
0
LWPOLYLINE
5
246
100
AcDbEntity
8
0
100
AcDbPolyline
90
4
70
1
43
0.0
10
7.3349364905389223
20
17.704482671904348
10
11.665063509461106
20
15.20448267190433
10
14.165063509461106
20
19.534609690826521
10
9.8349364905389081
20
22.034609690826507
0
LWPOLYLINE
5
247
100
AcDbEntity
8
0
100
AcDbPolyline
90
4
70
1
43
0.0
10
15.20448267190436
20
11.665063509461097
10
17.704482671904344
20
7.3349364905388921
10
22.034609690826535
20
9.8349364905388867
10
19.534609690826528
20
14.165063509461076
0
LWPOLYLINE
5
248
100
AcDbEntity
8
0
100
AcDbPolyline
90
4
70
1
43
0.0
10
19.000000000000021
20
2.4999999999999978
10
19.000000000000004
20
-2.5000000000000036
10
24
20
-2.5000000000000044
10
23.999999999999986
20
2.4999999999999956
0
LWPOLYLINE
5
249
100
AcDbEntity
8
0
100
AcDbPolyline
90
4
70
1
43
0.0
10
17.704482671904351
20
-7.3349364905389223
10
15.204482671904334
20
-11.665063509461106
10
19.534609690826521
20
-14.165063509461106
10
22.034609690826514
20
-9.8349364905389081
0
LWPOLYLINE
5
250
100
AcDbEntity
8
0
100
AcDbPolyline
90
4
70
1
43
0.0
10
11.665063509461103
20
-15.204482671904355
10
7.3349364905388992
20
-17.704482671904341
10
9.8349364905388956
20
-22.034609690826528
10
14.165063509461081
20
-19.534609690826521
0
LWPOLYLINE
5
251
100
AcDbEntity
8
0
100
AcDbPolyline
90
4
70
1
43
0.0
10
2.4999999999999991
20
-19.000000000000021
10
-2.5000000000000022
20
-19.000000000000004
10
-2.5000000000000036
20
-24
10
2.4999999999999969
20
-23.999999999999986
0
LWPOLYLINE
5
252
100
AcDbEntity
8
0
100
AcDbPolyline
90
4
70
1
43
0.0
10
-7.3349364905389205
20
-17.704482671904351
10
-11.665063509461104
20
-15.204482671904334
10
-14.165063509461104
20
-19.534609690826521
10
-9.8349364905389063
20
-22.034609690826514
0
LWPOLYLINE
5
253
100
AcDbEntity
8
0
100
AcDbPolyline
90
4
70
1
43
0.0
10
-15.204482671904355
20
-11.665063509461104
10
-17.704482671904341
20
-7.334936490538901
10
-22.034609690826528
20
-9.8349364905388974
10
-19.534609690826521
20
-14.165063509461087
0
LWPOLYLINE
5
254
100
AcDbEntity
8
0
100
AcDbPolyline
90
4
70
1
43
0.0
10
-19.000000000000021
20
-2.5
10
-19.000000000000004
20
2.5000000000000009
10
-24
20
2.5000000000000009
10
-23.999999999999986
20
-2.4999999999999987
0
LWPOLYLINE
5
255
100
AcDbEntity
8
0
100
AcDbPolyline
90
4
70
1
43
0.0
10
-17.704482671904351
20
7.3349364905389161
10
-15.204482671904335
20
11.665063509461099
10
-19.534609690826525
20
14.165063509461097
10
-22.034609690826514
20
9.8349364905388992
0
LWPOLYLINE
5
256
100
AcDbEntity
8
0
100
AcDbPolyline
90
4
70
1
43
0.0
10
-11.665063509461106
20
15.204482671904353
10
-7.3349364905389036
20
17.704482671904337
10
-9.834936490538901
20
22.034609690826528
10
-14.165063509461087
20
19.534609690826517
0
LWPOLYLINE
5
257
100
AcDbEntity
8
0
100
AcDbPolyline
90
4
70
1
43
0.0
10
-2.5000000000000009
20
19.000000000000021
10
2.5
20
19.000000000000004
10
2.5
20
24
10
-2.5
20
23.999999999999986
0
LWPOLYLINE
5
258
100
AcDbEntity
8
0
100
AcDbPolyline
90
4
70
1
43
0.0
10
16.90968657308585
20
-1.7500000000000098
10
14.89756691543958
20
-1.7499999999999982
42
-0.88940698002624341
10
-14.89756691543958
20
-1.7500000000000073
10
-16.909686573085853
20
-1.7500000000000044
42
0.90184995056457828
0
LWPOLYLINE
5
259
100
AcDbEntity
8
0
100
AcDbPolyline
90
4
70
1
43
0.0
10
26.943227349372982
20
-1.7500000000000098
10
24.938674784358525
20
-1.750000000000018
42
-0.9322869078264866
10
-24.938674784358522
20
-1.750000000000006
10
-26.943227349372982
20
-1.7500000000000029
42
0.93715573389123352
0
CIRCLE
5
260
100
AcDbEntity
8
0
100
AcDbCircle
10
12.222561515103106
20
-5.1158078550235633
30
0
40
1.0000000000000009
210
0
220
-0
230
1
0
CIRCLE
5
261
100
AcDbEntity
8
0
100
AcDbCircle
10
-12.222561515103106
20
5.1158078550235615
30
0
40
1.0000000000000009
210
0
220
0
230
1
0
CIRCLE
5
262
100
AcDbEntity
8
0
100
AcDbCircle
10
27.646364609059635
20
18.472710247901766
30
0
40
1.0000000000000009
210
0
220
-0
230
1
0
CIRCLE
5
263
100
AcDbEntity
8
0
100
AcDbCircle
10
18.472710247901766
20
-27.646364609059635
30
0
40
1.0000000000000009
210
0
220
-0
230
1
0
CIRCLE
5
264
100
AcDbEntity
8
0
100
AcDbCircle
10
-27.646364609059631
20
-18.47271024790177
30
0
40
1.0000000000000009
210
-0
220
0
230
1
0
CIRCLE
5
265
100
AcDbEntity
8
0
100
AcDbCircle
10
-18.472710247901773
20
27.646364609059631
30
0
40
1.0000000000000009
210
0
220
0
230
1
0
LWPOLYLINE
5
266
100
AcDbEntity
8
0
100
AcDbPolyline
90
4
70
1
43
0.0
10
-14.897566915439583
20
1.7500000000000093
42
-0.88940698002624319
10
14.89756691543958
20
1.7500000000000029
10
16.90968657308586
20
1.7500000000000022
42
0.90184995056457884
10
-16.90968657308585
20
1.750000000000008
0
LWPOLYLINE
5
267
100
AcDbEntity
8
0
100
AcDbPolyline
90
4
70
1
43
0.0
10
-24.938674784358529
20
1.7500000000000251
42
-0.9322869078264866
10
24.938674784358529
20
1.7499999999999993
10
26.943227349372982
20
1.750000000000004
42
0.93715573389123352
10
-26.943227349372982
20
1.7500000000000067
0
LWPOLYLINE
5
268
100
AcDbEntity
8
0
100
AcDbPolyline
90
4
70
1
43
0.0
10
-34.956222622016817
20
1.7500000000000444
42
-0.95118973121134132
10
34.956222622016824
20
1.7499999999999911
10
36.95859169394852
20
1.7499999999999958
42
0.95377010823092889
10
-36.95859169394852
20
1.7500000000000004
0
LWPOLYLINE
5
269
100
AcDbEntity
8
0
100
AcDbPolyline
90
4
70
1
43
0.0
10
-2.5000000000000036
20
8.9999999999999947
10
2.4999999999999964
20
8.9999999999999929
10
2.4999999999999964
20
13.999999999999993
10
-2.5000000000000036
20
13.999999999999996
0
LWPOLYLINE
5
270
100
AcDbEntity
8
0
100
AcDbPolyline
90
4
70
1
43
0.0
10
-8.1317279836452947
20
4.5961940777125534
10
-4.5961940777125569
20
8.1317279836452894
10
-8.1317279836452947
20
11.667261889578027
10
-11.667261889578036
20
8.1317279836452929
0
LWPOLYLINE
5
271
100
AcDbEntity
8
0
100
AcDbPolyline
90
4
70
1
43
0.0
10
-8.9999999999999947
20
-2.5000000000000027
10
-8.9999999999999929
20
2.4999999999999973
10
-13.999999999999993
20
2.4999999999999978
10
-13.999999999999996
20
-2.5000000000000022
0
LWPOLYLINE
5
272
100
AcDbEntity
8
0
100
AcDbPolyline
90
4
70
1
43
0.0
10
-4.5961940777125534
20
-8.1317279836452947
10
-8.1317279836452894
20
-4.5961940777125552
10
-11.667261889578027
20
-8.1317279836452929
10
-8.1317279836452929
20
-11.667261889578032
0
LWPOLYLINE
5
273
100
AcDbEntity
8
0
100
AcDbPolyline
90
4
70
1
43
0.0
10
2.5000000000000022
20
-8.9999999999999947
10
-2.4999999999999978
20
-8.9999999999999929
10
-2.4999999999999982
20
-13.999999999999993
10
2.5000000000000018
20
-13.999999999999996
0
LWPOLYLINE
5
274
100
AcDbEntity
8
0
100
AcDbPolyline
90
4
70
1
43
0.0
10
8.1317279836452947
20
-4.5961940777125543
10
4.5961940777125552
20
-8.1317279836452911
10
8.1317279836452911
20
-11.667261889578029
10
11.667261889578032
20
-8.1317279836452947
0
LWPOLYLINE
5
275
100
AcDbEntity
8
0
100
AcDbPolyline
90
4
70
1
43
0.0
10
8.9999999999999947
20
2.5000000000000018
10
8.9999999999999929
20
-2.4999999999999982
10
13.999999999999993
20
-2.4999999999999996
10
13.999999999999996
20
2.5000000000000004
0
LWPOLYLINE
5
276
100
AcDbEntity
8
0
100
AcDbPolyline
90
4
70
1
43
0.0
10
4.5961940777125543
20
8.1317279836452947
10
8.1317279836452911
20
4.5961940777125534
10
11.667261889578029
20
8.1317279836452911
10
8.1317279836452947
20
11.667261889578031
0
LWPOLYLINE
5
277
100
AcDbEntity
8
0
100
AcDbPolyline
90
4
70
1
43
0.0
10
36.95859169394852
20
-1.7500000000000049
10
34.95622262201681
20
-1.7500000000000329
42
-0.95118973121134132
10
-34.95622262201681
20
-1.7500000000000009
10
-36.95859169394852
20
-1.7499999999999929
42
0.95377010823092889
0
LWPOLYLINE
5
278
100
AcDbEntity
8
0
100
AcDbPolyline
90
4
70
1
43
0.0
10
-2.5000000000000044
20
29.000000000000028
10
2.5000000000000067
20
29.000000000000021
10
2.5000000000000067
20
34.000000000000021
10
-2.5000000000000036
20
34
0
LWPOLYLINE
5
279
100
AcDbEntity
8
0
100
AcDbPolyline
90
4
70
1
43
0.0
10
-13.407518369865837
20
25.835797861914621
10
-8.788120707309389
20
27.749215023740064
10
-10.701537869134835
20
32.368612686296501
10
-15.320935531691273
20
30.45519552447103
0
LWPOLYLINE
5
280
100
AcDbEntity
8
0
100
AcDbPolyline
90
4
70
1
43
0.0
10
-22.273863607376274
20
18.738329701443529
10
-18.738329701443522
20
22.273863607376271
10
-22.273863607376256
20
25.809397513309005
10
-25.809397513308991
20
22.273863607376253
0
LWPOLYLINE
5
281
100
AcDbEntity
8
0
100
AcDbPolyline
90
4
70
1
43
0.0
10
-27.749215023740071
20
8.7881207073093961
10
-25.835797861914607
20
13.407518369865837
10
-30.455195524471041
20
15.320935531691283
10
-32.368612686296473
20
10.701537869134835
0
LWPOLYLINE
5
282
100
AcDbEntity
8
0
100
AcDbPolyline
90
4
70
1
43
0.0
10
-29.000000000000028
20
-2.5000000000000027
10
-29.000000000000021
20
2.5000000000000084
10
-34.000000000000021
20
2.5000000000000089
10
-34
20
-2.5000000000000009
0
LWPOLYLINE
5
283
100
AcDbEntity
8
0
100
AcDbPolyline
90
4
70
1
43
0.0
10
-25.835797861914621
20
-13.407518369865837
10
-27.749215023740064
20
-8.7881207073093872
10
-32.368612686296501
20
-10.701537869134835
10
-30.45519552447103
20
-15.320935531691271
0
LWPOLYLINE
5
284
100
AcDbEntity
8
0
100
AcDbPolyline
90
4
70
1
43
0.0
10
-18.738329701443529
20
-22.273863607376274
10
-22.273863607376271
20
-18.738329701443519
10
-25.809397513309005
20
-22.273863607376256
10
-22.273863607376253
20
-25.809397513308987
0
LWPOLYLINE
5
285
100
AcDbEntity
8
0
100
AcDbPolyline
90
4
70
1
43
0.0
10
-8.7881207073093979
20
-27.749215023740071
10
-13.407518369865837
20
-25.835797861914607
10
-15.320935531691289
20
-30.455195524471041
10
-10.701537869134839
20
-32.368612686296473
0
LWPOLYLINE
5
286
100
AcDbEntity
8
0
100
AcDbPolyline
90
4
70
1
43
0.0
10
2.5000000000000009
20
-29.000000000000028
10
-2.5000000000000098
20
-29.000000000000021
10
-2.5000000000000111
20
-34.000000000000021
10
2.4999999999999991
20
-34
0
LWPOLYLINE
5
287
100
AcDbEntity
8
0
100
AcDbPolyline
90
4
70
1
43
0.0
10
13.407518369865834
20
-25.835797861914624
10
8.7881207073093854
20
-27.749215023740067
10
10.701537869134834
20
-32.368612686296501
10
15.320935531691269
20
-30.455195524471034
0
LWPOLYLINE
5
288
100
AcDbEntity
8
0
100
AcDbPolyline
90
4
70
1
43
0.0
10
22.273863607376274
20
-18.738329701443533
10
18.738329701443519
20
-22.273863607376274
10
22.273863607376256
20
-25.809397513309008
10
25.809397513308987
20
-22.273863607376253
0
LWPOLYLINE
5
289
100
AcDbEntity
8
0
100
AcDbPolyline
90
4
70
1
43
0.0
10
27.749215023740064
20
-8.7881207073094121
10
25.835797861914603
20
-13.40751836986585
10
30.455195524471034
20
-15.320935531691301
10
32.368612686296473
20
-10.701537869134853
0
LWPOLYLINE
5
290
100
AcDbEntity
8
0
100
AcDbPolyline
90
4
70
1
43
0.0
10
29.000000000000028
20
2.4999999999999991
10
29.000000000000021
20
-2.5000000000000124
10
34.000000000000021
20
-2.5000000000000133
10
34
20
2.4999999999999969
0
LWPOLYLINE
5
291
100
AcDbEntity
8
0
100
AcDbPolyline
90
4
70
1
43
0.0
10
25.835797861914614
20
13.407518369865844
10
27.749215023740064
20
8.7881207073093961
10
32.368612686296501
20
10.701537869134846
10
30.455195524471023
20
15.320935531691282
0
LWPOLYLINE
5
292
100
AcDbEntity
8
0
100
AcDbPolyline
90
4
70
1
43
0.0
10
18.738329701443533
20
22.273863607376271
10
22.273863607376274
20
18.738329701443512
10
25.809397513309008
20
22.273863607376253
10
22.273863607376253
20
25.809397513308983
0
LWPOLYLINE
5
293
100
AcDbEntity
8
0
100
AcDbPolyline
90
4
70
1
43
0.0
10
8.7881207073094121
20
27.749215023740064
10
13.407518369865851
20
25.835797861914603
10
15.320935531691305
20
30.455195524471034
10
10.701537869134857
20
32.368612686296473
0
LWPOLYLINE
5
294
100
AcDbEntity
8
0
100
AcDbPolyline
90
4
70
1
43
0.0
10
12.508757324721023
20
37.024059612517391
10
13.80285255023362
20
41.853688743962707
10
8.9732234187882813
20
43.147783969475341
10
7.6791281932756821
20
38.318154838030011
0
LWPOLYLINE
5
295
100
AcDbEntity
8
0
100
AcDbPolyline
90
4
70
1
43
0.0
10
21.665063509461135
20
32.524990747593129
10
24.165063509461117
20
36.855117766515299
10
19.834936490538936
20
39.355117766515328
10
17.334936490538947
20
35.024990747593151
0
LWPOLYLINE
5
296
100
AcDbEntity
8
0
100
AcDbPolyline
90
4
70
1
43
0.0
10
29.344931419241757
20
25.809397513309005
10
32.88046532517447
20
29.344931419241725
10
29.344931419241753
20
32.880465325174484
10
25.80939751330903
20
29.34493141924176
0
LWPOLYLINE
5
297
100
AcDbEntity
8
0
100
AcDbPolyline
90
4
70
1
43
0.0
10
35.024990747593151
20
17.334936490538894
10
39.35511776651532
20
19.83493649053888
10
36.855117766515349
20
24.165063509461092
10
32.524990747593172
20
21.665063509461106
0
LWPOLYLINE
5
298
100
AcDbEntity
8
0
100
AcDbPolyline
90
4
70
1
43
0.0
10
38.318154838030004
20
7.6791281932756306
10
43.14778396947532
20
8.9732234187882298
10
41.853688743962749
20
13.802852550233581
10
37.024059612517419
20
12.508757324720982
0
LWPOLYLINE
5
299
100
AcDbEntity
8
0
100
AcDbPolyline
90
4
70
1
43
0.0
10
39.000000000000043
20
-2.5000000000000084
10
44.000000000000014
20
-2.5000000000000044
10
44.000000000000043
20
2.4999999999999996
10
39.000000000000057
20
2.4999999999999973
0
LWPOLYLINE
5
300
100
AcDbEntity
8
0
100
AcDbPolyline
90
4
70
1
43
0.0
10
37.024059612517391
20
-12.508757324721021
10
41.853688743962707
20
-13.802852550233617
10
43.147783969475341
20
-8.9732234187882796
10
38.318154838030011
20
-7.6791281932756794
0
LWPOLYLINE
5
301
100
AcDbEntity
8
0
100
AcDbPolyline
90
4
70
1
43
0.0
10
32.524990747593137
20
-21.665063509461135
10
36.855117766515306
20
-24.165063509461117
10
39.355117766515335
20
-19.834936490538936
10
35.024990747593151
20
-17.334936490538947
0
LWPOLYLINE
5
302
100
AcDbEntity
8
0
100
AcDbPolyline
90
4
70
1
43
0.0
10
25.809397513308994
20
-29.344931419241767
10
29.344931419241718
20
-32.880465325174484
10
32.880465325174477
20
-29.34493141924176
10
29.344931419241753
20
-25.80939751330904
0
LWPOLYLINE
5
303
100
AcDbEntity
8
0
100
AcDbPolyline
90
4
70
1
43
0.0
10
17.334936490538912
20
-35.024990747593151
10
19.834936490538901
20
-39.355117766515313
10
24.16506350946111
20
-36.855117766515335
10
21.665063509461117
20
-32.524990747593165
0
LWPOLYLINE
5
304
100
AcDbEntity
8
0
100
AcDbPolyline
90
4
70
1
43
0.0
10
7.6791281932756323
20
-38.318154838030004
10
8.9732234187882316
20
-43.14778396947532
10
13.802852550233585
20
-41.853688743962749
10
12.508757324720985
20
-37.024059612517419
0
LWPOLYLINE
5
305
100
AcDbEntity
8
0
100
AcDbPolyline
90
4
70
1
43
0.0
10
-2.5000000000000062
20
-39.000000000000043
10
-2.5000000000000022
20
-44.000000000000014
10
2.5000000000000022
20
-44.000000000000043
10
2.4999999999999996
20
-39.000000000000057
0
LWPOLYLINE
5
306
100
AcDbEntity
8
0
100
AcDbPolyline
90
4
70
1
43
0.0
10
-12.508757324721
20
-37.024059612517391
10
-13.802852550233595
20
-41.853688743962714
10
-8.9732234187882565
20
-43.147783969475348
10
-7.6791281932756608
20
-38.318154838030019
0
LWPOLYLINE
5
307
100
AcDbEntity
8
0
100
AcDbPolyline
90
4
70
1
43
0.0
10
-21.665063509461131
20
-32.524990747593137
10
-24.165063509461113
20
-36.855117766515306
10
-19.834936490538929
20
-39.355117766515335
10
-17.33493649053894
20
-35.024990747593151
0
LWPOLYLINE
5
308
100
AcDbEntity
8
0
100
AcDbPolyline
90
4
70
1
43
0.0
10
-29.344931419241753
20
-25.809397513309008
10
-32.88046532517447
20
-29.344931419241732
10
-29.34493141924175
20
-32.880465325174491
10
-25.809397513309026
20
-29.34493141924176
0
LWPOLYLINE
5
309
100
AcDbEntity
8
0
100
AcDbPolyline
90
4
70
1
43
0.0
10
-35.024990747593151
20
-17.334936490538915
10
-39.35511776651532
20
-19.834936490538905
10
-36.855117766515335
20
-24.165063509461113
10
-32.524990747593165
20
-21.66506350946112
0
LWPOLYLINE
5
310
100
AcDbEntity
8
0
100
AcDbPolyline
90
4
70
1
43
0.0
10
-38.318154838029997
20
-7.6791281932756439
10
-43.14778396947532
20
-8.973223418788244
10
-41.853688743962742
20
-13.802852550233595
10
-37.024059612517412
20
-12.508757324720996
0
LWPOLYLINE
5
311
100
AcDbEntity
8
0
100
AcDbPolyline
90
4
70
1
43
0.0
10
-39.000000000000043
20
2.5000000000000036
10
-44.000000000000014
20
2.4999999999999996
10
-44.000000000000043
20
-2.5000000000000049
10
-39.000000000000057
20
-2.5000000000000022
0
LWPOLYLINE
5
312
100
AcDbEntity
8
0
100
AcDbPolyline
90
4
70
1
43
0.0
10
-37.024059612517391
20
12.508757324720998
10
-41.853688743962714
20
13.802852550233593
10
-43.147783969475348
20
8.9732234187882547
10
-38.318154838030019
20
7.6791281932756581
0
LWPOLYLINE
5
313
100
AcDbEntity
8
0
100
AcDbPolyline
90
4
70
1
43
0.0
10
-32.524990747593144
20
21.66506350946112
10
-36.855117766515313
20
24.165063509461106
10
-39.355117766515335
20
19.834936490538922
10
-35.024990747593158
20
17.334936490538933
0
LWPOLYLINE
5
314
100
AcDbEntity
8
0
100
AcDbPolyline
90
4
70
1
43
0.0
10
-25.809397513309015
20
29.344931419241753
10
-29.344931419241735
20
32.88046532517447
10
-32.880465325174498
20
29.34493141924175
10
-29.344931419241771
20
25.809397513309023
0
LWPOLYLINE
5
315
100
AcDbEntity
8
0
100
AcDbPolyline
90
4
70
1
43
0.0
10
-17.334936490538919
20
35.024990747593144
10
-19.834936490538908
20
39.355117766515313
10
-24.165063509461117
20
36.855117766515335
10
-21.665063509461127
20
32.524990747593158
0
LWPOLYLINE
5
316
100
AcDbEntity
8
0
100
AcDbPolyline
90
4
70
1
43
0.0
10
-7.6791281932756483
20
38.318154838030004
10
-8.9732234187882476
20
43.14778396947532
10
-13.802852550233602
20
41.853688743962742
10
-12.508757324721
20
37.024059612517412
0
LWPOLYLINE
5
317
100
AcDbEntity
8
0
100
AcDbPolyline
90
4
70
1
43
0.0
10
2.5000000000000009
20
39.000000000000043
10
2.4999999999999964
20
44.000000000000014
10
-2.500000000000008
20
44.000000000000043
10
-2.5000000000000044
20
39.000000000000057
0
CIRCLE
5
318
100
AcDbEntity
8
0
100
AcDbCircle
10
0
20
0
30
0
40
45
210
0
220
-0
230
1
0
LWPOLYLINE
5
319
100
AcDbEntity
8
0
100
AcDbPolyline
90
4
70
1
43
0.0
10
7.3349364905389223
20
17.704482671904348
10
11.665063509461106
20
15.20448267190433
10
14.165063509461106
20
19.534609690826521
10
9.8349364905389081
20
22.034609690826507
0
LWPOLYLINE
5
320
100
AcDbEntity
8
0
100
AcDbPolyline
90
4
70
1
43
0.0
10
15.20448267190436
20
11.665063509461097
10
17.704482671904344
20
7.3349364905388921
10
22.034609690826535
20
9.8349364905388867
10
19.534609690826528
20
14.165063509461076
0
LWPOLYLINE
5
321
100
AcDbEntity
8
0
100
AcDbPolyline
90
4
70
1
43
0.0
10
19.000000000000021
20
2.4999999999999978
10
19.000000000000004
20
-2.5000000000000036
10
24
20
-2.5000000000000044
10
23.999999999999986
20
2.4999999999999956
0
LWPOLYLINE
5
322
100
AcDbEntity
8
0
100
AcDbPolyline
90
4
70
1
43
0.0
10
17.704482671904351
20
-7.3349364905389223
10
15.204482671904334
20
-11.665063509461106
10
19.534609690826521
20
-14.165063509461106
10
22.034609690826514
20
-9.8349364905389081
0
LWPOLYLINE
5
323
100
AcDbEntity
8
0
100
AcDbPolyline
90
4
70
1
43
0.0
10
11.665063509461103
20
-15.204482671904355
10
7.3349364905388992
20
-17.704482671904341
10
9.8349364905388956
20
-22.034609690826528
10
14.165063509461081
20
-19.534609690826521
0
LWPOLYLINE
5
324
100
AcDbEntity
8
0
100
AcDbPolyline
90
4
70
1
43
0.0
10
2.4999999999999991
20
-19.000000000000021
10
-2.5000000000000022
20
-19.000000000000004
10
-2.5000000000000036
20
-24
10
2.4999999999999969
20
-23.999999999999986
0
LWPOLYLINE
5
325
100
AcDbEntity
8
0
100
AcDbPolyline
90
4
70
1
43
0.0
10
-7.3349364905389205
20
-17.704482671904351
10
-11.665063509461104
20
-15.204482671904334
10
-14.165063509461104
20
-19.534609690826521
10
-9.8349364905389063
20
-22.034609690826514
0
LWPOLYLINE
5
326
100
AcDbEntity
8
0
100
AcDbPolyline
90
4
70
1
43
0.0
10
-15.204482671904355
20
-11.665063509461104
10
-17.704482671904341
20
-7.334936490538901
10
-22.034609690826528
20
-9.8349364905388974
10
-19.534609690826521
20
-14.165063509461087
0
LWPOLYLINE
5
327
100
AcDbEntity
8
0
100
AcDbPolyline
90
4
70
1
43
0.0
10
-19.000000000000021
20
-2.5
10
-19.000000000000004
20
2.5000000000000009
10
-24
20
2.5000000000000009
10
-23.999999999999986
20
-2.4999999999999987
0
LWPOLYLINE
5
328
100
AcDbEntity
8
0
100
AcDbPolyline
90
4
70
1
43
0.0
10
-17.704482671904351
20
7.3349364905389161
10
-15.204482671904335
20
11.665063509461099
10
-19.534609690826525
20
14.165063509461097
10
-22.034609690826514
20
9.8349364905388992
0
LWPOLYLINE
5
329
100
AcDbEntity
8
0
100
AcDbPolyline
90
4
70
1
43
0.0
10
-11.665063509461106
20
15.204482671904353
10
-7.3349364905389036
20
17.704482671904337
10
-9.834936490538901
20
22.034609690826528
10
-14.165063509461087
20
19.534609690826517
0
LWPOLYLINE
5
330
100
AcDbEntity
8
0
100
AcDbPolyline
90
4
70
1
43
0.0
10
-2.5000000000000009
20
19.000000000000021
10
2.5
20
19.000000000000004
10
2.5
20
24
10
-2.5
20
23.999999999999986
0
LWPOLYLINE
5
331
100
AcDbEntity
8
0
100
AcDbPolyline
90
4
70
1
43
0.0
10
16.90968657308585
20
-1.7500000000000098
10
14.89756691543958
20
-1.7499999999999982
42
-0.88940698002624341
10
-14.89756691543958
20
-1.7500000000000073
10
-16.909686573085853
20
-1.7500000000000044
42
0.90184995056457828
0
LWPOLYLINE
5
332
100
AcDbEntity
8
0
100
AcDbPolyline
90
4
70
1
43
0.0
10
26.943227349372982
20
-1.7500000000000098
10
24.938674784358525
20
-1.750000000000018
42
-0.9322869078264866
10
-24.938674784358522
20
-1.750000000000006
10
-26.943227349372982
20
-1.7500000000000029
42
0.93715573389123352
0
CIRCLE
5
333
100
AcDbEntity
8
0
100
AcDbCircle
10
26.33547101363159
20
34.307515315801488
30
0
40
1.0000000000000009
210
0
220
-0
230
1
0
CIRCLE
5
334
100
AcDbEntity
8
0
100
AcDbCircle
10
27.646364609059635
20
18.472710247901766
30
0
40
1.0000000000000009
210
0
220
-0
230
1
0
CIRCLE
5
335
100
AcDbEntity
8
0
100
AcDbCircle
10
34.307515315801488
20
-26.33547101363159
30
0
40
1.0000000000000009
210
0
220
-0
230
1
0
CIRCLE
5
336
100
AcDbEntity
8
0
100
AcDbCircle
10
18.472710247901766
20
-27.646364609059635
30
0
40
1.0000000000000009
210
0
220
-0
230
1
0
CIRCLE
5
337
100
AcDbEntity
8
0
100
AcDbCircle
10
-26.335471013631583
20
-34.307515315801488
30
0
40
1.0000000000000009
210
-0
220
0
230
1
0
CIRCLE
5
338
100
AcDbEntity
8
0
100
AcDbCircle
10
-27.646364609059631
20
-18.47271024790177
30
0
40
1.0000000000000009
210
-0
220
0
230
1
0
CIRCLE
5
339
100
AcDbEntity
8
0
100
AcDbCircle
10
-34.307515315801488
20
26.335471013631583
30
0
40
1.0000000000000009
210
0
220
0
230
1
0
CIRCLE
5
340
100
AcDbEntity
8
0
100
AcDbCircle
10
-18.472710247901773
20
27.646364609059631
30
0
40
1.0000000000000009
210
0
220
0
230
1
0
LWPOLYLINE
5
341
100
AcDbEntity
8
0
100
AcDbPolyline
90
4
70
1
43
0.0
10
-14.897566915439583
20
1.7500000000000093
42
-0.88940698002624319
10
14.89756691543958
20
1.7500000000000029
10
16.90968657308586
20
1.7500000000000022
42
0.90184995056457884
10
-16.90968657308585
20
1.750000000000008
0
LWPOLYLINE
5
342
100
AcDbEntity
8
0
100
AcDbPolyline
90
4
70
1
43
0.0
10
-24.938674784358529
20
1.7500000000000251
42
-0.9322869078264866
10
24.938674784358529
20
1.7499999999999993
10
26.943227349372982
20
1.750000000000004
42
0.93715573389123352
10
-26.943227349372982
20
1.7500000000000067
0
LWPOLYLINE
5
343
100
AcDbEntity
8
0
100
AcDbPolyline
90
4
70
1
43
0.0
10
-34.956222622016817
20
1.7500000000000444
42
-0.95118973121134132
10
34.956222622016824
20
1.7499999999999911
10
36.95859169394852
20
1.7499999999999958
42
0.95377010823092889
10
-36.95859169394852
20
1.7500000000000004
0
LWPOLYLINE
5
344
100
AcDbEntity
8
0
100
AcDbPolyline
90
4
70
1
43
0.0
10
-2.5000000000000036
20
8.9999999999999947
10
2.4999999999999964
20
8.9999999999999929
10
2.4999999999999964
20
13.999999999999993
10
-2.5000000000000036
20
13.999999999999996
0
LWPOLYLINE
5
345
100
AcDbEntity
8
0
100
AcDbPolyline
90
4
70
1
43
0.0
10
-8.1317279836452947
20
4.5961940777125534
10
-4.5961940777125569
20
8.1317279836452894
10
-8.1317279836452947
20
11.667261889578027
10
-11.667261889578036
20
8.1317279836452929
0
LWPOLYLINE
5
346
100
AcDbEntity
8
0
100
AcDbPolyline
90
4
70
1
43
0.0
10
-8.9999999999999947
20
-2.5000000000000027
10
-8.9999999999999929
20
2.4999999999999973
10
-13.999999999999993
20
2.4999999999999978
10
-13.999999999999996
20
-2.5000000000000022
0
LWPOLYLINE
5
347
100
AcDbEntity
8
0
100
AcDbPolyline
90
4
70
1
43
0.0
10
-4.5961940777125534
20
-8.1317279836452947
10
-8.1317279836452894
20
-4.5961940777125552
10
-11.667261889578027
20
-8.1317279836452929
10
-8.1317279836452929
20
-11.667261889578032
0
LWPOLYLINE
5
348
100
AcDbEntity
8
0
100
AcDbPolyline
90
4
70
1
43
0.0
10
2.5000000000000022
20
-8.9999999999999947
10
-2.4999999999999978
20
-8.9999999999999929
10
-2.4999999999999982
20
-13.999999999999993
10
2.5000000000000018
20
-13.999999999999996
0
LWPOLYLINE
5
349
100
AcDbEntity
8
0
100
AcDbPolyline
90
4
70
1
43
0.0
10
8.1317279836452947
20
-4.5961940777125543
10
4.5961940777125552
20
-8.1317279836452911
10
8.1317279836452911
20
-11.667261889578029
10
11.667261889578032
20
-8.1317279836452947
0
LWPOLYLINE
5
350
100
AcDbEntity
8
0
100
AcDbPolyline
90
4
70
1
43
0.0
10
8.9999999999999947
20
2.5000000000000018
10
8.9999999999999929
20
-2.4999999999999982
10
13.999999999999993
20
-2.4999999999999996
10
13.999999999999996
20
2.5000000000000004
0
LWPOLYLINE
5
351
100
AcDbEntity
8
0
100
AcDbPolyline
90
4
70
1
43
0.0
10
4.5961940777125543
20
8.1317279836452947
10
8.1317279836452911
20
4.5961940777125534
10
11.667261889578029
20
8.1317279836452911
10
8.1317279836452947
20
11.667261889578031
0
LWPOLYLINE
5
352
100
AcDbEntity
8
0
100
AcDbPolyline
90
4
70
1
43
0.0
10
36.95859169394852
20
-1.7500000000000049
10
34.95622262201681
20
-1.7500000000000329
42
-0.95118973121134132
10
-34.95622262201681
20
-1.7500000000000009
10
-36.95859169394852
20
-1.7499999999999929
42
0.95377010823092889
0
LWPOLYLINE
5
353
100
AcDbEntity
8
0
100
AcDbPolyline
90
4
70
1
43
0.0
10
-2.5000000000000044
20
29.000000000000028
10
2.5000000000000067
20
29.000000000000021
10
2.5000000000000067
20
34.000000000000021
10
-2.5000000000000036
20
34
0
LWPOLYLINE
5
354
100
AcDbEntity
8
0
100
AcDbPolyline
90
4
70
1
43
0.0
10
-13.407518369865837
20
25.835797861914621
10
-8.788120707309389
20
27.749215023740064
10
-10.701537869134835
20
32.368612686296501
10
-15.320935531691273
20
30.45519552447103
0
LWPOLYLINE
5
355
100
AcDbEntity
8
0
100
AcDbPolyline
90
4
70
1
43
0.0
10
-22.273863607376274
20
18.738329701443529
10
-18.738329701443522
20
22.273863607376271
10
-22.273863607376256
20
25.809397513309005
10
-25.809397513308991
20
22.273863607376253
0
LWPOLYLINE
5
356
100
AcDbEntity
8
0
100
AcDbPolyline
90
4
70
1
43
0.0
10
-27.749215023740071
20
8.7881207073093961
10
-25.835797861914607
20
13.407518369865837
10
-30.455195524471041
20
15.320935531691283
10
-32.368612686296473
20
10.701537869134835
0
LWPOLYLINE
5
357
100
AcDbEntity
8
0
100
AcDbPolyline
90
4
70
1
43
0.0
10
-29.000000000000028
20
-2.5000000000000027
10
-29.000000000000021
20
2.5000000000000084
10
-34.000000000000021
20
2.5000000000000089
10
-34
20
-2.5000000000000009
0
LWPOLYLINE
5
358
100
AcDbEntity
8
0
100
AcDbPolyline
90
4
70
1
43
0.0
10
-25.835797861914621
20
-13.407518369865837
10
-27.749215023740064
20
-8.7881207073093872
10
-32.368612686296501
20
-10.701537869134835
10
-30.45519552447103
20
-15.320935531691271
0
LWPOLYLINE
5
359
100
AcDbEntity
8
0
100
AcDbPolyline
90
4
70
1
43
0.0
10
-18.738329701443529
20
-22.273863607376274
10
-22.273863607376271
20
-18.738329701443519
10
-25.809397513309005
20
-22.273863607376256
10
-22.273863607376253
20
-25.809397513308987
0
LWPOLYLINE
5
360
100
AcDbEntity
8
0
100
AcDbPolyline
90
4
70
1
43
0.0
10
-8.7881207073093979
20
-27.749215023740071
10
-13.407518369865837
20
-25.835797861914607
10
-15.320935531691289
20
-30.455195524471041
10
-10.701537869134839
20
-32.368612686296473
0
LWPOLYLINE
5
361
100
AcDbEntity
8
0
100
AcDbPolyline
90
4
70
1
43
0.0
10
2.5000000000000009
20
-29.000000000000028
10
-2.5000000000000098
20
-29.000000000000021
10
-2.5000000000000111
20
-34.000000000000021
10
2.4999999999999991
20
-34
0
LWPOLYLINE
5
362
100
AcDbEntity
8
0
100
AcDbPolyline
90
4
70
1
43
0.0
10
13.407518369865834
20
-25.835797861914624
10
8.7881207073093854
20
-27.749215023740067
10
10.701537869134834
20
-32.368612686296501
10
15.320935531691269
20
-30.455195524471034
0
LWPOLYLINE
5
363
100
AcDbEntity
8
0
100
AcDbPolyline
90
4
70
1
43
0.0
10
22.273863607376274
20
-18.738329701443533
10
18.738329701443519
20
-22.273863607376274
10
22.273863607376256
20
-25.809397513309008
10
25.809397513308987
20
-22.273863607376253
0
LWPOLYLINE
5
364
100
AcDbEntity
8
0
100
AcDbPolyline
90
4
70
1
43
0.0
10
27.749215023740064
20
-8.7881207073094121
10
25.835797861914603
20
-13.40751836986585
10
30.455195524471034
20
-15.320935531691301
10
32.368612686296473
20
-10.701537869134853
0
LWPOLYLINE
5
365
100
AcDbEntity
8
0
100
AcDbPolyline
90
4
70
1
43
0.0
10
29.000000000000028
20
2.4999999999999991
10
29.000000000000021
20
-2.5000000000000124
10
34.000000000000021
20
-2.5000000000000133
10
34
20
2.4999999999999969
0
LWPOLYLINE
5
366
100
AcDbEntity
8
0
100
AcDbPolyline
90
4
70
1
43
0.0
10
25.835797861914614
20
13.407518369865844
10
27.749215023740064
20
8.7881207073093961
10
32.368612686296501
20
10.701537869134846
10
30.455195524471023
20
15.320935531691282
0
LWPOLYLINE
5
367
100
AcDbEntity
8
0
100
AcDbPolyline
90
4
70
1
43
0.0
10
18.738329701443533
20
22.273863607376271
10
22.273863607376274
20
18.738329701443512
10
25.809397513309008
20
22.273863607376253
10
22.273863607376253
20
25.809397513308983
0
LWPOLYLINE
5
368
100
AcDbEntity
8
0
100
AcDbPolyline
90
4
70
1
43
0.0
10
8.7881207073094121
20
27.749215023740064
10
13.407518369865851
20
25.835797861914603
10
15.320935531691305
20
30.455195524471034
10
10.701537869134857
20
32.368612686296473
0
LWPOLYLINE
5
369
100
AcDbEntity
8
0
100
AcDbPolyline
90
4
70
1
43
0.0
10
12.508757324721023
20
37.024059612517391
10
13.80285255023362
20
41.853688743962707
10
8.9732234187882813
20
43.147783969475341
10
7.6791281932756821
20
38.318154838030011
0
LWPOLYLINE
5
370
100
AcDbEntity
8
0
100
AcDbPolyline
90
4
70
1
43
0.0
10
21.665063509461135
20
32.524990747593129
10
24.165063509461117
20
36.855117766515299
10
19.834936490538936
20
39.355117766515328
10
17.334936490538947
20
35.024990747593151
0
LWPOLYLINE
5
371
100
AcDbEntity
8
0
100
AcDbPolyline
90
4
70
1
43
0.0
10
29.344931419241757
20
25.809397513309005
10
32.88046532517447
20
29.344931419241725
10
29.344931419241753
20
32.880465325174484
10
25.80939751330903
20
29.34493141924176
0
LWPOLYLINE
5
372
100
AcDbEntity
8
0
100
AcDbPolyline
90
4
70
1
43
0.0
10
35.024990747593151
20
17.334936490538894
10
39.35511776651532
20
19.83493649053888
10
36.855117766515349
20
24.165063509461092
10
32.524990747593172
20
21.665063509461106
0
LWPOLYLINE
5
373
100
AcDbEntity
8
0
100
AcDbPolyline
90
4
70
1
43
0.0
10
38.318154838030004
20
7.6791281932756306
10
43.14778396947532
20
8.9732234187882298
10
41.853688743962749
20
13.802852550233581
10
37.024059612517419
20
12.508757324720982
0
LWPOLYLINE
5
374
100
AcDbEntity
8
0
100
AcDbPolyline
90
4
70
1
43
0.0
10
39.000000000000043
20
-2.5000000000000084
10
44.000000000000014
20
-2.5000000000000044
10
44.000000000000043
20
2.4999999999999996
10
39.000000000000057
20
2.4999999999999973
0
LWPOLYLINE
5
375
100
AcDbEntity
8
0
100
AcDbPolyline
90
4
70
1
43
0.0
10
37.024059612517391
20
-12.508757324721021
10
41.853688743962707
20
-13.802852550233617
10
43.147783969475341
20
-8.9732234187882796
10
38.318154838030011
20
-7.6791281932756794
0
LWPOLYLINE
5
376
100
AcDbEntity
8
0
100
AcDbPolyline
90
4
70
1
43
0.0
10
32.524990747593137
20
-21.665063509461135
10
36.855117766515306
20
-24.165063509461117
10
39.355117766515335
20
-19.834936490538936
10
35.024990747593151
20
-17.334936490538947
0
LWPOLYLINE
5
377
100
AcDbEntity
8
0
100
AcDbPolyline
90
4
70
1
43
0.0
10
25.809397513308994
20
-29.344931419241767
10
29.344931419241718
20
-32.880465325174484
10
32.880465325174477
20
-29.34493141924176
10
29.344931419241753
20
-25.80939751330904
0
LWPOLYLINE
5
378
100
AcDbEntity
8
0
100
AcDbPolyline
90
4
70
1
43
0.0
10
17.334936490538912
20
-35.024990747593151
10
19.834936490538901
20
-39.355117766515313
10
24.16506350946111
20
-36.855117766515335
10
21.665063509461117
20
-32.524990747593165
0
LWPOLYLINE
5
379
100
AcDbEntity
8
0
100
AcDbPolyline
90
4
70
1
43
0.0
10
7.6791281932756323
20
-38.318154838030004
10
8.9732234187882316
20
-43.14778396947532
10
13.802852550233585
20
-41.853688743962749
10
12.508757324720985
20
-37.024059612517419
0
LWPOLYLINE
5
380
100
AcDbEntity
8
0
100
AcDbPolyline
90
4
70
1
43
0.0
10
-2.5000000000000062
20
-39.000000000000043
10
-2.5000000000000022
20
-44.000000000000014
10
2.5000000000000022
20
-44.000000000000043
10
2.4999999999999996
20
-39.000000000000057
0
LWPOLYLINE
5
381
100
AcDbEntity
8
0
100
AcDbPolyline
90
4
70
1
43
0.0
10
-12.508757324721
20
-37.024059612517391
10
-13.802852550233595
20
-41.853688743962714
10
-8.9732234187882565
20
-43.147783969475348
10
-7.6791281932756608
20
-38.318154838030019
0
LWPOLYLINE
5
382
100
AcDbEntity
8
0
100
AcDbPolyline
90
4
70
1
43
0.0
10
-21.665063509461131
20
-32.524990747593137
10
-24.165063509461113
20
-36.855117766515306
10
-19.834936490538929
20
-39.355117766515335
10
-17.33493649053894
20
-35.024990747593151
0
LWPOLYLINE
5
383
100
AcDbEntity
8
0
100
AcDbPolyline
90
4
70
1
43
0.0
10
-29.344931419241753
20
-25.809397513309008
10
-32.88046532517447
20
-29.344931419241732
10
-29.34493141924175
20
-32.880465325174491
10
-25.809397513309026
20
-29.34493141924176
0
LWPOLYLINE
5
384
100
AcDbEntity
8
0
100
AcDbPolyline
90
4
70
1
43
0.0
10
-35.024990747593151
20
-17.334936490538915
10
-39.35511776651532
20
-19.834936490538905
10
-36.855117766515335
20
-24.165063509461113
10
-32.524990747593165
20
-21.66506350946112
0
LWPOLYLINE
5
385
100
AcDbEntity
8
0
100
AcDbPolyline
90
4
70
1
43
0.0
10
-38.318154838029997
20
-7.6791281932756439
10
-43.14778396947532
20
-8.973223418788244
10
-41.853688743962742
20
-13.802852550233595
10
-37.024059612517412
20
-12.508757324720996
0
LWPOLYLINE
5
386
100
AcDbEntity
8
0
100
AcDbPolyline
90
4
70
1
43
0.0
10
-39.000000000000043
20
2.5000000000000036
10
-44.000000000000014
20
2.4999999999999996
10
-44.000000000000043
20
-2.5000000000000049
10
-39.000000000000057
20
-2.5000000000000022
0
LWPOLYLINE
5
387
100
AcDbEntity
8
0
100
AcDbPolyline
90
4
70
1
43
0.0
10
-37.024059612517391
20
12.508757324720998
10
-41.853688743962714
20
13.802852550233593
10
-43.147783969475348
20
8.9732234187882547
10
-38.318154838030019
20
7.6791281932756581
0
LWPOLYLINE
5
388
100
AcDbEntity
8
0
100
AcDbPolyline
90
4
70
1
43
0.0
10
-32.524990747593144
20
21.66506350946112
10
-36.855117766515313
20
24.165063509461106
10
-39.355117766515335
20
19.834936490538922
10
-35.024990747593158
20
17.334936490538933
0
LWPOLYLINE
5
389
100
AcDbEntity
8
0
100
AcDbPolyline
90
4
70
1
43
0.0
10
-25.809397513309015
20
29.344931419241753
10
-29.344931419241735
20
32.88046532517447
10
-32.880465325174498
20
29.34493141924175
10
-29.344931419241771
20
25.809397513309023
0
LWPOLYLINE
5
390
100
AcDbEntity
8
0
100
AcDbPolyline
90
4
70
1
43
0.0
10
-17.334936490538919
20
35.024990747593144
10
-19.834936490538908
20
39.355117766515313
10
-24.165063509461117
20
36.855117766515335
10
-21.665063509461127
20
32.524990747593158
0
LWPOLYLINE
5
391
100
AcDbEntity
8
0
100
AcDbPolyline
90
4
70
1
43
0.0
10
-7.6791281932756483
20
38.318154838030004
10
-8.9732234187882476
20
43.14778396947532
10
-13.802852550233602
20
41.853688743962742
10
-12.508757324721
20
37.024059612517412
0
LWPOLYLINE
5
392
100
AcDbEntity
8
0
100
AcDbPolyline
90
4
70
1
43
0.0
10
2.5000000000000009
20
39.000000000000043
10
2.4999999999999964
20
44.000000000000014
10
-2.500000000000008
20
44.000000000000043
10
-2.5000000000000044
20
39.000000000000057
0
CIRCLE
5
393
100
AcDbEntity
8
0
100
AcDbCircle
10
0
20
0
30
0
40
45
210
0
220
-0
230
1
0
LWPOLYLINE
5
394
100
AcDbEntity
8
0
100
AcDbPolyline
90
4
70
1
43
0.0
10
7.3349364905389223
20
17.704482671904348
10
11.665063509461106
20
15.20448267190433
10
14.165063509461106
20
19.534609690826521
10
9.8349364905389081
20
22.034609690826507
0
LWPOLYLINE
5
395
100
AcDbEntity
8
0
100
AcDbPolyline
90
4
70
1
43
0.0
10
15.20448267190436
20
11.665063509461097
10
17.704482671904344
20
7.3349364905388921
10
22.034609690826535
20
9.8349364905388867
10
19.534609690826528
20
14.165063509461076
0
LWPOLYLINE
5
396
100
AcDbEntity
8
0
100
AcDbPolyline
90
4
70
1
43
0.0
10
19.000000000000021
20
2.4999999999999978
10
19.000000000000004
20
-2.5000000000000036
10
24
20
-2.5000000000000044
10
23.999999999999986
20
2.4999999999999956
0
LWPOLYLINE
5
397
100
AcDbEntity
8
0
100
AcDbPolyline
90
4
70
1
43
0.0
10
17.704482671904351
20
-7.3349364905389223
10
15.204482671904334
20
-11.665063509461106
10
19.534609690826521
20
-14.165063509461106
10
22.034609690826514
20
-9.8349364905389081
0
LWPOLYLINE
5
398
100
AcDbEntity
8
0
100
AcDbPolyline
90
4
70
1
43
0.0
10
11.665063509461103
20
-15.204482671904355
10
7.3349364905388992
20
-17.704482671904341
10
9.8349364905388956
20
-22.034609690826528
10
14.165063509461081
20
-19.534609690826521
0
LWPOLYLINE
5
399
100
AcDbEntity
8
0
100
AcDbPolyline
90
4
70
1
43
0.0
10
2.4999999999999991
20
-19.000000000000021
10
-2.5000000000000022
20
-19.000000000000004
10
-2.5000000000000036
20
-24
10
2.4999999999999969
20
-23.999999999999986
0
LWPOLYLINE
5
400
100
AcDbEntity
8
0
100
AcDbPolyline
90
4
70
1
43
0.0
10
-7.3349364905389205
20
-17.704482671904351
10
-11.665063509461104
20
-15.204482671904334
10
-14.165063509461104
20
-19.534609690826521
10
-9.8349364905389063
20
-22.034609690826514
0
LWPOLYLINE
5
401
100
AcDbEntity
8
0
100
AcDbPolyline
90
4
70
1
43
0.0
10
-15.204482671904355
20
-11.665063509461104
10
-17.704482671904341
20
-7.334936490538901
10
-22.034609690826528
20
-9.8349364905388974
10
-19.534609690826521
20
-14.165063509461087
0
LWPOLYLINE
5
402
100
AcDbEntity
8
0
100
AcDbPolyline
90
4
70
1
43
0.0
10
-19.000000000000021
20
-2.5
10
-19.000000000000004
20
2.5000000000000009
10
-24
20
2.5000000000000009
10
-23.999999999999986
20
-2.4999999999999987
0
LWPOLYLINE
5
403
100
AcDbEntity
8
0
100
AcDbPolyline
90
4
70
1
43
0.0
10
-17.704482671904351
20
7.3349364905389161
10
-15.204482671904335
20
11.665063509461099
10
-19.534609690826525
20
14.165063509461097
10
-22.034609690826514
20
9.8349364905388992
0
LWPOLYLINE
5
404
100
AcDbEntity
8
0
100
AcDbPolyline
90
4
70
1
43
0.0
10
-11.665063509461106
20
15.204482671904353
10
-7.3349364905389036
20
17.704482671904337
10
-9.834936490538901
20
22.034609690826528
10
-14.165063509461087
20
19.534609690826517
0
LWPOLYLINE
5
405
100
AcDbEntity
8
0
100
AcDbPolyline
90
4
70
1
43
0.0
10
-2.5000000000000009
20
19.000000000000021
10
2.5
20
19.000000000000004
10
2.5
20
24
10
-2.5
20
23.999999999999986
0
LWPOLYLINE
5
406
100
AcDbEntity
8
0
100
AcDbPolyline
90
4
70
1
43
0.0
10
16.90968657308585
20
-1.7500000000000098
10
14.89756691543958
20
-1.7499999999999982
42
-0.88940698002624341
10
-14.89756691543958
20
-1.7500000000000073
10
-16.909686573085853
20
-1.7500000000000044
42
0.90184995056457828
0
LWPOLYLINE
5
407
100
AcDbEntity
8
0
100
AcDbPolyline
90
4
70
1
43
0.0
10
26.943227349372982
20
-1.7500000000000098
10
24.938674784358525
20
-1.750000000000018
42
-0.9322869078264866
10
-24.938674784358522
20
-1.750000000000006
10
-26.943227349372982
20
-1.7500000000000029
42
0.93715573389123352
0
CIRCLE
5
408
100
AcDbEntity
8
0
100
AcDbCircle
10
16.440232662587235
20
16.440232662587235
30
0
40
1.0000000000000009
210
0
220
-0
230
1
0
CIRCLE
5
409
100
AcDbEntity
8
0
100
AcDbCircle
10
16.440232662587235
20
-16.440232662587235
30
0
40
1.0000000000000009
210
0
220
-0
230
1
0
CIRCLE
5
410
100
AcDbEntity
8
0
100
AcDbCircle
10
-16.440232662587235
20
-16.440232662587235
30
0
40
1.0000000000000009
210
-0
220
0
230
1
0
CIRCLE
5
411
100
AcDbEntity
8
0
100
AcDbCircle
10
-16.440232662587235
20
16.440232662587235
30
0
40
1.0000000000000009
210
0
220
0
230
1
0
CIRCLE
5
412
100
AcDbEntity
8
0
100
AcDbCircle
10
16.440232662587235
20
16.440232662587235
30
0
40
1.0000000000000009
210
0
220
-0
230
1
0
CIRCLE
5
413
100
AcDbEntity
8
0
100
AcDbCircle
10
16.440232662587235
20
-16.440232662587235
30
0
40
1.0000000000000009
210
0
220
-0
230
1
0
CIRCLE
5
414
100
AcDbEntity
8
0
100
AcDbCircle
10
-16.440232662587235
20
-16.440232662587235
30
0
40
1.0000000000000009
210
-0
220
0
230
1
0
CIRCLE
5
415
100
AcDbEntity
8
0
100
AcDbCircle
10
-16.440232662587235
20
16.440232662587235
30
0
40
1.0000000000000009
210
0
220
0
230
1
0
CIRCLE
5
416
100
AcDbEntity
8
0
100
AcDbCircle
10
16.440232662587235
20
16.440232662587235
30
0
40
1.0000000000000009
210
0
220
-0
230
1
0
CIRCLE
5
417
100
AcDbEntity
8
0
100
AcDbCircle
10
16.440232662587235
20
-16.440232662587235
30
0
40
1.0000000000000009
210
0
220
-0
230
1
0
CIRCLE
5
418
100
AcDbEntity
8
0
100
AcDbCircle
10
-16.440232662587235
20
-16.440232662587235
30
0
40
1.0000000000000009
210
-0
220
0
230
1
0
CIRCLE
5
419
100
AcDbEntity
8
0
100
AcDbCircle
10
-16.440232662587235
20
16.440232662587235
30
0
40
1.0000000000000009
210
0
220
0
230
1
0
CIRCLE
5
420
100
AcDbEntity
8
0
100
AcDbCircle
10
16.440232662587235
20
16.440232662587235
30
0
40
1.0000000000000009
210
0
220
-0
230
1
0
CIRCLE
5
421
100
AcDbEntity
8
0
100
AcDbCircle
10
16.440232662587235
20
-16.440232662587235
30
0
40
1.0000000000000009
210
0
220
-0
230
1
0
CIRCLE
5
422
100
AcDbEntity
8
0
100
AcDbCircle
10
-16.440232662587235
20
-16.440232662587235
30
0
40
1.0000000000000009
210
-0
220
0
230
1
0
CIRCLE
5
423
100
AcDbEntity
8
0
100
AcDbCircle
10
-16.440232662587235
20
16.440232662587235
30
0
40
1.0000000000000009
210
0
220
0
230
1
0
LWPOLYLINE
5
424
100
AcDbEntity
8
0
100
AcDbPolyline
90
4
70
1
43
0.0
10
-6.7777208558629791
20
1.7500000000000031
10
-4.9497474683058318
20
1.7500000000000004
42
-0.70710678118654724
10
4.9497474683058318
20
1.7500000000000027
10
6.7777208558629791
20
1.7500000000000007
42
0.77459666924148318
0
LWPOLYLINE
5
425
100
AcDbEntity
8
0
100
AcDbPolyline
90
4
70
1
43
0.0
10
2.5
20
-2.5
10
2.5
20
2.5
10
-2.5
20
2.5
10
-2.5
20
-2.5
0
LWPOLYLINE
5
426
100
AcDbEntity
8
0
100
AcDbPolyline
90
4
70
1
43
0.0
10
4.9497474683058327
20
-1.7500000000000027
42
-0.70710678118654724
10
-4.9497474683058327
20
-1.7500000000000016
10
-6.7777208558629765
20
-1.7500000000000013
42
0.77459666924148318
10
6.7777208558629791
20
-1.750000000000004
0
LWPOLYLINE
5
427
100
AcDbEntity
8
0
100
AcDbPolyline
90
4
70
1
43
0.0
10
-6.7777208558629791
20
1.7500000000000031
10
-4.9497474683058318
20
1.7500000000000004
42
-0.70710678118654724
10
4.9497474683058318
20
1.7500000000000027
10
6.7777208558629791
20
1.7500000000000007
42
0.77459666924148318
0
LWPOLYLINE
5
428
100
AcDbEntity
8
0
100
AcDbPolyline
90
4
70
1
43
0.0
10
2.5
20
-2.5
10
2.5
20
2.5
10
-2.5
20
2.5
10
-2.5
20
-2.5
0
LWPOLYLINE
5
429
100
AcDbEntity
8
0
100
AcDbPolyline
90
4
70
1
43
0.0
10
4.9497474683058327
20
-1.7500000000000027
42
-0.70710678118654724
10
-4.9497474683058327
20
-1.7500000000000016
10
-6.7777208558629765
20
-1.7500000000000013
42
0.77459666924148318
10
6.7777208558629791
20
-1.750000000000004
0
LWPOLYLINE
5
430
100
AcDbEntity
8
0
100
AcDbPolyline
90
4
70
1
43
0.0
10
-6.7777208558629791
20
1.7500000000000031
10
-4.9497474683058318
20
1.7500000000000004
42
-0.70710678118654724
10
4.9497474683058318
20
1.7500000000000027
10
6.7777208558629791
20
1.7500000000000007
42
0.77459666924148318
0
LWPOLYLINE
5
431
100
AcDbEntity
8
0
100
AcDbPolyline
90
4
70
1
43
0.0
10
2.5
20
-2.5
10
2.5
20
2.5
10
-2.5
20
2.5
10
-2.5
20
-2.5
0
LWPOLYLINE
5
432
100
AcDbEntity
8
0
100
AcDbPolyline
90
4
70
1
43
0.0
10
4.9497474683058327
20
-1.7500000000000027
42
-0.70710678118654724
10
-4.9497474683058327
20
-1.7500000000000016
10
-6.7777208558629765
20
-1.7500000000000013
42
0.77459666924148318
10
6.7777208558629791
20
-1.750000000000004
0
LWPOLYLINE
5
433
100
AcDbEntity
8
0
100
AcDbPolyline
90
4
70
1
43
0.0
10
-6.7777208558629791
20
1.7500000000000031
10
-4.9497474683058318
20
1.7500000000000004
42
-0.70710678118654724
10
4.9497474683058318
20
1.7500000000000027
10
6.7777208558629791
20
1.7500000000000007
42
0.77459666924148318
0
LWPOLYLINE
5
434
100
AcDbEntity
8
0
100
AcDbPolyline
90
4
70
1
43
0.0
10
2.5
20
-2.5
10
2.5
20
2.5
10
-2.5
20
2.5
10
-2.5
20
-2.5
0
LWPOLYLINE
5
435
100
AcDbEntity
8
0
100
AcDbPolyline
90
4
70
1
43
0.0
10
4.9497474683058327
20
-1.7500000000000027
42
-0.70710678118654724
10
-4.9497474683058327
20
-1.7500000000000016
10
-6.7777208558629765
20
-1.7500000000000013
42
0.77459666924148318
10
6.7777208558629791
20
-1.750000000000004
0
ENDSEC
0
SECTION
2
OBJECTS
0
DICTIONARY
5
C
100
AcDbDictionary
3
ACAD_GROUP
350
D
3
ACAD_MLINESTYLE
350
17
0
DICTIONARY
5
D
100
AcDbDictionary
0
DICTIONARY
5
1A
330
C
100
AcDbDictionary
0
DICTIONARY
5
17
100
AcDbDictionary
0
ENDSEC
0
EOF
