G04 MADE WITH FRITZING*
G04 WWW.FRITZING.ORG*
G04 DOUBLE SIDED*
G04 HOLES PLATED*
G04 CONTOUR ON CENTER OF CONTOUR VECTOR*
%ASAXBY*%
%FSLAX23Y23*%
%MOIN*%
%OFA0B0*%
%SFA1.0B1.0*%
%ADD10R,0.001000X0.001000*%
%LNSILK1*%
G90*
G70*
G54D10*
X0Y394D02*
X392Y394D01*
X0Y393D02*
X392Y393D01*
X0Y392D02*
X392Y392D01*
X0Y391D02*
X392Y391D01*
X0Y390D02*
X392Y390D01*
X0Y389D02*
X392Y389D01*
X0Y388D02*
X392Y388D01*
X0Y387D02*
X392Y387D01*
X0Y386D02*
X7Y386D01*
X385Y386D02*
X392Y386D01*
X0Y385D02*
X7Y385D01*
X385Y385D02*
X392Y385D01*
X0Y384D02*
X7Y384D01*
X385Y384D02*
X392Y384D01*
X0Y383D02*
X7Y383D01*
X385Y383D02*
X392Y383D01*
X0Y382D02*
X7Y382D01*
X385Y382D02*
X392Y382D01*
X0Y381D02*
X7Y381D01*
X385Y381D02*
X392Y381D01*
X0Y380D02*
X7Y380D01*
X385Y380D02*
X392Y380D01*
X0Y379D02*
X7Y379D01*
X385Y379D02*
X392Y379D01*
X0Y378D02*
X7Y378D01*
X385Y378D02*
X392Y378D01*
X0Y377D02*
X7Y377D01*
X385Y377D02*
X392Y377D01*
X0Y376D02*
X7Y376D01*
X385Y376D02*
X392Y376D01*
X0Y375D02*
X7Y375D01*
X51Y375D02*
X56Y375D01*
X385Y375D02*
X392Y375D01*
X0Y374D02*
X7Y374D01*
X18Y374D02*
X19Y374D01*
X34Y374D02*
X34Y374D01*
X51Y374D02*
X56Y374D01*
X385Y374D02*
X392Y374D01*
X0Y373D02*
X7Y373D01*
X17Y373D02*
X20Y373D01*
X33Y373D02*
X35Y373D01*
X51Y373D02*
X56Y373D01*
X335Y373D02*
X338Y373D01*
X385Y373D02*
X392Y373D01*
X0Y372D02*
X7Y372D01*
X17Y372D02*
X20Y372D01*
X33Y372D02*
X35Y372D01*
X51Y372D02*
X56Y372D01*
X334Y372D02*
X339Y372D01*
X385Y372D02*
X392Y372D01*
X0Y371D02*
X7Y371D01*
X17Y371D02*
X20Y371D01*
X33Y371D02*
X35Y371D01*
X51Y371D02*
X56Y371D01*
X300Y371D02*
X302Y371D01*
X316Y371D02*
X318Y371D01*
X334Y371D02*
X339Y371D01*
X385Y371D02*
X392Y371D01*
X0Y370D02*
X7Y370D01*
X17Y370D02*
X20Y370D01*
X33Y370D02*
X35Y370D01*
X300Y370D02*
X303Y370D01*
X315Y370D02*
X318Y370D01*
X334Y370D02*
X339Y370D01*
X385Y370D02*
X392Y370D01*
X0Y369D02*
X7Y369D01*
X17Y369D02*
X20Y369D01*
X33Y369D02*
X35Y369D01*
X300Y369D02*
X303Y369D01*
X315Y369D02*
X318Y369D01*
X334Y369D02*
X339Y369D01*
X385Y369D02*
X392Y369D01*
X0Y368D02*
X7Y368D01*
X17Y368D02*
X20Y368D01*
X33Y368D02*
X35Y368D01*
X300Y368D02*
X303Y368D01*
X315Y368D02*
X318Y368D01*
X336Y368D02*
X337Y368D01*
X385Y368D02*
X392Y368D01*
X0Y367D02*
X7Y367D01*
X17Y367D02*
X20Y367D01*
X33Y367D02*
X35Y367D01*
X300Y367D02*
X303Y367D01*
X315Y367D02*
X318Y367D01*
X385Y367D02*
X392Y367D01*
X0Y366D02*
X7Y366D01*
X17Y366D02*
X20Y366D01*
X32Y366D02*
X35Y366D01*
X300Y366D02*
X303Y366D01*
X315Y366D02*
X318Y366D01*
X385Y366D02*
X392Y366D01*
X0Y365D02*
X7Y365D01*
X17Y365D02*
X20Y365D01*
X32Y365D02*
X35Y365D01*
X48Y365D02*
X56Y365D01*
X74Y365D02*
X76Y365D01*
X82Y365D02*
X89Y365D01*
X300Y365D02*
X303Y365D01*
X315Y365D02*
X318Y365D01*
X385Y365D02*
X392Y365D01*
X0Y364D02*
X7Y364D01*
X17Y364D02*
X21Y364D01*
X32Y364D02*
X35Y364D01*
X47Y364D02*
X56Y364D01*
X74Y364D02*
X76Y364D01*
X80Y364D02*
X90Y364D01*
X300Y364D02*
X303Y364D01*
X315Y364D02*
X318Y364D01*
X385Y364D02*
X392Y364D01*
X0Y363D02*
X7Y363D01*
X18Y363D02*
X21Y363D01*
X31Y363D02*
X35Y363D01*
X47Y363D02*
X56Y363D01*
X73Y363D02*
X91Y363D01*
X300Y363D02*
X303Y363D01*
X315Y363D02*
X318Y363D01*
X331Y363D02*
X338Y363D01*
X357Y363D02*
X359Y363D01*
X365Y363D02*
X371Y363D01*
X385Y363D02*
X392Y363D01*
X0Y362D02*
X7Y362D01*
X18Y362D02*
X21Y362D01*
X31Y362D02*
X34Y362D01*
X48Y362D02*
X56Y362D01*
X73Y362D02*
X91Y362D01*
X300Y362D02*
X303Y362D01*
X315Y362D02*
X318Y362D01*
X330Y362D02*
X339Y362D01*
X356Y362D02*
X359Y362D01*
X363Y362D02*
X373Y362D01*
X385Y362D02*
X392Y362D01*
X0Y361D02*
X7Y361D01*
X18Y361D02*
X22Y361D01*
X31Y361D02*
X34Y361D01*
X53Y361D02*
X56Y361D01*
X73Y361D02*
X82Y361D01*
X88Y361D02*
X91Y361D01*
X301Y361D02*
X304Y361D01*
X314Y361D02*
X318Y361D01*
X330Y361D02*
X339Y361D01*
X356Y361D02*
X359Y361D01*
X361Y361D02*
X373Y361D01*
X385Y361D02*
X392Y361D01*
X0Y360D02*
X7Y360D01*
X19Y360D02*
X22Y360D01*
X30Y360D02*
X33Y360D01*
X53Y360D02*
X56Y360D01*
X73Y360D02*
X80Y360D01*
X89Y360D02*
X92Y360D01*
X301Y360D02*
X304Y360D01*
X314Y360D02*
X317Y360D01*
X331Y360D02*
X339Y360D01*
X356Y360D02*
X374Y360D01*
X385Y360D02*
X392Y360D01*
X0Y359D02*
X7Y359D01*
X19Y359D02*
X23Y359D01*
X30Y359D02*
X33Y359D01*
X53Y359D02*
X56Y359D01*
X73Y359D02*
X78Y359D01*
X89Y359D02*
X92Y359D01*
X301Y359D02*
X305Y359D01*
X314Y359D02*
X317Y359D01*
X336Y359D02*
X339Y359D01*
X356Y359D02*
X365Y359D01*
X371Y359D02*
X374Y359D01*
X385Y359D02*
X392Y359D01*
X0Y358D02*
X7Y358D01*
X20Y358D02*
X23Y358D01*
X29Y358D02*
X33Y358D01*
X53Y358D02*
X56Y358D01*
X73Y358D02*
X77Y358D01*
X89Y358D02*
X92Y358D01*
X302Y358D02*
X305Y358D01*
X313Y358D02*
X316Y358D01*
X336Y358D02*
X339Y358D01*
X356Y358D02*
X363Y358D01*
X371Y358D02*
X374Y358D01*
X385Y358D02*
X392Y358D01*
X0Y357D02*
X7Y357D01*
X20Y357D02*
X23Y357D01*
X29Y357D02*
X32Y357D01*
X53Y357D02*
X56Y357D01*
X73Y357D02*
X76Y357D01*
X89Y357D02*
X92Y357D01*
X302Y357D02*
X305Y357D01*
X313Y357D02*
X316Y357D01*
X336Y357D02*
X339Y357D01*
X356Y357D02*
X362Y357D01*
X372Y357D02*
X374Y357D01*
X385Y357D02*
X392Y357D01*
X0Y356D02*
X7Y356D01*
X20Y356D02*
X24Y356D01*
X29Y356D02*
X32Y356D01*
X53Y356D02*
X56Y356D01*
X73Y356D02*
X76Y356D01*
X89Y356D02*
X92Y356D01*
X302Y356D02*
X306Y356D01*
X312Y356D02*
X316Y356D01*
X336Y356D02*
X339Y356D01*
X356Y356D02*
X360Y356D01*
X372Y356D02*
X375Y356D01*
X385Y356D02*
X392Y356D01*
X0Y355D02*
X7Y355D01*
X21Y355D02*
X24Y355D01*
X28Y355D02*
X32Y355D01*
X53Y355D02*
X56Y355D01*
X73Y355D02*
X76Y355D01*
X89Y355D02*
X92Y355D01*
X303Y355D02*
X306Y355D01*
X312Y355D02*
X315Y355D01*
X336Y355D02*
X339Y355D01*
X356Y355D02*
X359Y355D01*
X372Y355D02*
X375Y355D01*
X385Y355D02*
X392Y355D01*
X0Y354D02*
X7Y354D01*
X21Y354D02*
X25Y354D01*
X28Y354D02*
X31Y354D01*
X53Y354D02*
X56Y354D01*
X73Y354D02*
X76Y354D01*
X89Y354D02*
X92Y354D01*
X303Y354D02*
X307Y354D01*
X312Y354D02*
X315Y354D01*
X336Y354D02*
X339Y354D01*
X356Y354D02*
X359Y354D01*
X372Y354D02*
X375Y354D01*
X385Y354D02*
X392Y354D01*
X0Y353D02*
X7Y353D01*
X22Y353D02*
X25Y353D01*
X27Y353D02*
X31Y353D01*
X53Y353D02*
X56Y353D01*
X73Y353D02*
X76Y353D01*
X89Y353D02*
X92Y353D01*
X304Y353D02*
X307Y353D01*
X311Y353D02*
X315Y353D01*
X336Y353D02*
X339Y353D01*
X356Y353D02*
X359Y353D01*
X372Y353D02*
X375Y353D01*
X385Y353D02*
X392Y353D01*
X0Y352D02*
X7Y352D01*
X22Y352D02*
X25Y352D01*
X27Y352D02*
X30Y352D01*
X53Y352D02*
X56Y352D01*
X73Y352D02*
X76Y352D01*
X89Y352D02*
X92Y352D01*
X304Y352D02*
X307Y352D01*
X311Y352D02*
X314Y352D01*
X336Y352D02*
X339Y352D01*
X356Y352D02*
X359Y352D01*
X372Y352D02*
X375Y352D01*
X385Y352D02*
X392Y352D01*
X0Y351D02*
X7Y351D01*
X22Y351D02*
X30Y351D01*
X53Y351D02*
X56Y351D01*
X73Y351D02*
X76Y351D01*
X89Y351D02*
X92Y351D01*
X304Y351D02*
X308Y351D01*
X310Y351D02*
X314Y351D01*
X336Y351D02*
X339Y351D01*
X356Y351D02*
X359Y351D01*
X372Y351D02*
X375Y351D01*
X385Y351D02*
X392Y351D01*
X0Y350D02*
X7Y350D01*
X23Y350D02*
X30Y350D01*
X53Y350D02*
X56Y350D01*
X73Y350D02*
X76Y350D01*
X89Y350D02*
X92Y350D01*
X305Y350D02*
X308Y350D01*
X310Y350D02*
X313Y350D01*
X336Y350D02*
X339Y350D01*
X356Y350D02*
X359Y350D01*
X372Y350D02*
X375Y350D01*
X385Y350D02*
X392Y350D01*
X0Y349D02*
X7Y349D01*
X23Y349D02*
X29Y349D01*
X53Y349D02*
X56Y349D01*
X73Y349D02*
X76Y349D01*
X89Y349D02*
X92Y349D01*
X305Y349D02*
X313Y349D01*
X336Y349D02*
X339Y349D01*
X356Y349D02*
X359Y349D01*
X372Y349D02*
X375Y349D01*
X385Y349D02*
X392Y349D01*
X0Y348D02*
X7Y348D01*
X24Y348D02*
X29Y348D01*
X53Y348D02*
X56Y348D01*
X73Y348D02*
X76Y348D01*
X89Y348D02*
X92Y348D01*
X306Y348D02*
X313Y348D01*
X336Y348D02*
X339Y348D01*
X356Y348D02*
X359Y348D01*
X372Y348D02*
X375Y348D01*
X385Y348D02*
X392Y348D01*
X0Y347D02*
X7Y347D01*
X24Y347D02*
X28Y347D01*
X48Y347D02*
X61Y347D01*
X73Y347D02*
X76Y347D01*
X89Y347D02*
X92Y347D01*
X306Y347D02*
X312Y347D01*
X336Y347D02*
X339Y347D01*
X356Y347D02*
X359Y347D01*
X372Y347D02*
X375Y347D01*
X385Y347D02*
X392Y347D01*
X0Y346D02*
X7Y346D01*
X24Y346D02*
X28Y346D01*
X47Y346D02*
X62Y346D01*
X73Y346D02*
X76Y346D01*
X89Y346D02*
X92Y346D01*
X306Y346D02*
X312Y346D01*
X336Y346D02*
X339Y346D01*
X356Y346D02*
X359Y346D01*
X372Y346D02*
X375Y346D01*
X385Y346D02*
X392Y346D01*
X0Y345D02*
X7Y345D01*
X25Y345D02*
X28Y345D01*
X47Y345D02*
X62Y345D01*
X74Y345D02*
X76Y345D01*
X89Y345D02*
X92Y345D01*
X307Y345D02*
X311Y345D01*
X331Y345D02*
X344Y345D01*
X356Y345D02*
X359Y345D01*
X372Y345D02*
X375Y345D01*
X385Y345D02*
X392Y345D01*
X0Y344D02*
X7Y344D01*
X25Y344D02*
X27Y344D01*
X48Y344D02*
X61Y344D01*
X74Y344D02*
X76Y344D01*
X90Y344D02*
X91Y344D01*
X307Y344D02*
X311Y344D01*
X330Y344D02*
X345Y344D01*
X356Y344D02*
X359Y344D01*
X372Y344D02*
X375Y344D01*
X385Y344D02*
X392Y344D01*
X0Y343D02*
X7Y343D01*
X308Y343D02*
X311Y343D01*
X330Y343D02*
X345Y343D01*
X356Y343D02*
X359Y343D01*
X372Y343D02*
X375Y343D01*
X385Y343D02*
X392Y343D01*
X0Y342D02*
X7Y342D01*
X308Y342D02*
X310Y342D01*
X331Y342D02*
X333Y342D01*
X357Y342D02*
X359Y342D01*
X373Y342D02*
X374Y342D01*
X385Y342D02*
X392Y342D01*
X0Y341D02*
X7Y341D01*
X385Y341D02*
X392Y341D01*
X0Y340D02*
X7Y340D01*
X385Y340D02*
X392Y340D01*
X0Y339D02*
X7Y339D01*
X385Y339D02*
X392Y339D01*
X0Y338D02*
X7Y338D01*
X385Y338D02*
X392Y338D01*
X0Y337D02*
X7Y337D01*
X385Y337D02*
X392Y337D01*
X0Y336D02*
X7Y336D01*
X385Y336D02*
X392Y336D01*
X0Y335D02*
X7Y335D01*
X385Y335D02*
X392Y335D01*
X0Y334D02*
X7Y334D01*
X385Y334D02*
X392Y334D01*
X0Y333D02*
X7Y333D01*
X385Y333D02*
X392Y333D01*
X0Y332D02*
X7Y332D01*
X385Y332D02*
X392Y332D01*
X0Y331D02*
X7Y331D01*
X385Y331D02*
X392Y331D01*
X0Y330D02*
X7Y330D01*
X385Y330D02*
X392Y330D01*
X0Y329D02*
X7Y329D01*
X385Y329D02*
X392Y329D01*
X0Y328D02*
X7Y328D01*
X385Y328D02*
X392Y328D01*
X0Y327D02*
X7Y327D01*
X385Y327D02*
X392Y327D01*
X0Y326D02*
X7Y326D01*
X385Y326D02*
X392Y326D01*
X0Y325D02*
X7Y325D01*
X385Y325D02*
X392Y325D01*
X0Y324D02*
X7Y324D01*
X385Y324D02*
X392Y324D01*
X0Y323D02*
X7Y323D01*
X385Y323D02*
X392Y323D01*
X0Y322D02*
X7Y322D01*
X385Y322D02*
X392Y322D01*
X0Y321D02*
X7Y321D01*
X385Y321D02*
X392Y321D01*
X0Y320D02*
X7Y320D01*
X385Y320D02*
X392Y320D01*
X0Y319D02*
X7Y319D01*
X385Y319D02*
X392Y319D01*
X0Y318D02*
X7Y318D01*
X385Y318D02*
X392Y318D01*
X0Y317D02*
X7Y317D01*
X385Y317D02*
X392Y317D01*
X0Y316D02*
X7Y316D01*
X385Y316D02*
X392Y316D01*
X0Y315D02*
X7Y315D01*
X385Y315D02*
X392Y315D01*
X0Y314D02*
X7Y314D01*
X385Y314D02*
X392Y314D01*
X0Y313D02*
X7Y313D01*
X385Y313D02*
X392Y313D01*
X0Y312D02*
X7Y312D01*
X385Y312D02*
X392Y312D01*
X0Y311D02*
X7Y311D01*
X385Y311D02*
X392Y311D01*
X0Y310D02*
X7Y310D01*
X385Y310D02*
X392Y310D01*
X0Y309D02*
X7Y309D01*
X385Y309D02*
X392Y309D01*
X0Y308D02*
X7Y308D01*
X385Y308D02*
X392Y308D01*
X0Y307D02*
X7Y307D01*
X386Y307D02*
X392Y307D01*
X0Y306D02*
X7Y306D01*
X386Y306D02*
X392Y306D01*
X0Y305D02*
X7Y305D01*
X386Y305D02*
X392Y305D01*
X0Y304D02*
X7Y304D01*
X386Y304D02*
X392Y304D01*
X0Y303D02*
X7Y303D01*
X98Y303D02*
X104Y303D01*
X155Y303D02*
X233Y303D01*
X285Y303D02*
X297Y303D01*
X386Y303D02*
X392Y303D01*
X0Y302D02*
X7Y302D01*
X98Y302D02*
X104Y302D01*
X155Y302D02*
X233Y302D01*
X285Y302D02*
X296Y302D01*
X386Y302D02*
X392Y302D01*
X0Y301D02*
X7Y301D01*
X98Y301D02*
X104Y301D01*
X155Y301D02*
X233Y301D01*
X285Y301D02*
X296Y301D01*
X386Y301D02*
X392Y301D01*
X0Y300D02*
X7Y300D01*
X98Y300D02*
X104Y300D01*
X155Y300D02*
X233Y300D01*
X285Y300D02*
X296Y300D01*
X386Y300D02*
X392Y300D01*
X0Y299D02*
X7Y299D01*
X98Y299D02*
X104Y299D01*
X155Y299D02*
X233Y299D01*
X285Y299D02*
X296Y299D01*
X386Y299D02*
X392Y299D01*
X0Y298D02*
X7Y298D01*
X98Y298D02*
X104Y298D01*
X155Y298D02*
X233Y298D01*
X285Y298D02*
X296Y298D01*
X386Y298D02*
X392Y298D01*
X0Y297D02*
X7Y297D01*
X98Y297D02*
X104Y297D01*
X155Y297D02*
X233Y297D01*
X285Y297D02*
X296Y297D01*
X386Y297D02*
X392Y297D01*
X0Y296D02*
X7Y296D01*
X98Y296D02*
X104Y296D01*
X291Y296D02*
X296Y296D01*
X386Y296D02*
X392Y296D01*
X0Y295D02*
X7Y295D01*
X98Y295D02*
X104Y295D01*
X291Y295D02*
X296Y295D01*
X386Y295D02*
X392Y295D01*
X0Y294D02*
X7Y294D01*
X98Y294D02*
X104Y294D01*
X291Y294D02*
X297Y294D01*
X386Y294D02*
X392Y294D01*
X0Y293D02*
X7Y293D01*
X98Y293D02*
X104Y293D01*
X291Y293D02*
X297Y293D01*
X386Y293D02*
X392Y293D01*
X0Y292D02*
X7Y292D01*
X98Y292D02*
X104Y292D01*
X291Y292D02*
X297Y292D01*
X386Y292D02*
X392Y292D01*
X0Y291D02*
X7Y291D01*
X98Y291D02*
X104Y291D01*
X291Y291D02*
X297Y291D01*
X386Y291D02*
X392Y291D01*
X0Y290D02*
X7Y290D01*
X98Y290D02*
X104Y290D01*
X291Y290D02*
X297Y290D01*
X386Y290D02*
X392Y290D01*
X0Y289D02*
X7Y289D01*
X98Y289D02*
X104Y289D01*
X291Y289D02*
X297Y289D01*
X385Y289D02*
X392Y289D01*
X0Y288D02*
X7Y288D01*
X98Y288D02*
X104Y288D01*
X291Y288D02*
X297Y288D01*
X385Y288D02*
X392Y288D01*
X0Y287D02*
X7Y287D01*
X98Y287D02*
X104Y287D01*
X291Y287D02*
X297Y287D01*
X385Y287D02*
X392Y287D01*
X0Y286D02*
X7Y286D01*
X98Y286D02*
X104Y286D01*
X291Y286D02*
X297Y286D01*
X385Y286D02*
X392Y286D01*
X0Y285D02*
X7Y285D01*
X98Y285D02*
X104Y285D01*
X291Y285D02*
X297Y285D01*
X385Y285D02*
X392Y285D01*
X0Y284D02*
X7Y284D01*
X98Y284D02*
X104Y284D01*
X291Y284D02*
X297Y284D01*
X385Y284D02*
X392Y284D01*
X0Y283D02*
X7Y283D01*
X98Y283D02*
X104Y283D01*
X291Y283D02*
X297Y283D01*
X385Y283D02*
X392Y283D01*
X0Y282D02*
X7Y282D01*
X98Y282D02*
X104Y282D01*
X291Y282D02*
X297Y282D01*
X385Y282D02*
X392Y282D01*
X0Y281D02*
X7Y281D01*
X98Y281D02*
X104Y281D01*
X291Y281D02*
X297Y281D01*
X385Y281D02*
X392Y281D01*
X0Y280D02*
X7Y280D01*
X98Y280D02*
X104Y280D01*
X291Y280D02*
X297Y280D01*
X385Y280D02*
X392Y280D01*
X0Y279D02*
X7Y279D01*
X98Y279D02*
X104Y279D01*
X291Y279D02*
X297Y279D01*
X385Y279D02*
X392Y279D01*
X0Y278D02*
X7Y278D01*
X98Y278D02*
X104Y278D01*
X291Y278D02*
X297Y278D01*
X385Y278D02*
X392Y278D01*
X0Y277D02*
X7Y277D01*
X98Y277D02*
X104Y277D01*
X291Y277D02*
X297Y277D01*
X385Y277D02*
X392Y277D01*
X0Y276D02*
X7Y276D01*
X98Y276D02*
X104Y276D01*
X291Y276D02*
X297Y276D01*
X385Y276D02*
X392Y276D01*
X0Y275D02*
X7Y275D01*
X98Y275D02*
X104Y275D01*
X291Y275D02*
X297Y275D01*
X385Y275D02*
X392Y275D01*
X0Y274D02*
X7Y274D01*
X98Y274D02*
X104Y274D01*
X291Y274D02*
X297Y274D01*
X385Y274D02*
X392Y274D01*
X0Y273D02*
X7Y273D01*
X98Y273D02*
X104Y273D01*
X291Y273D02*
X297Y273D01*
X385Y273D02*
X392Y273D01*
X0Y272D02*
X7Y272D01*
X98Y272D02*
X104Y272D01*
X291Y272D02*
X297Y272D01*
X385Y272D02*
X392Y272D01*
X0Y271D02*
X7Y271D01*
X98Y271D02*
X104Y271D01*
X291Y271D02*
X297Y271D01*
X385Y271D02*
X392Y271D01*
X0Y270D02*
X7Y270D01*
X98Y270D02*
X104Y270D01*
X291Y270D02*
X297Y270D01*
X385Y270D02*
X392Y270D01*
X0Y269D02*
X7Y269D01*
X98Y269D02*
X104Y269D01*
X291Y269D02*
X297Y269D01*
X385Y269D02*
X392Y269D01*
X0Y268D02*
X7Y268D01*
X98Y268D02*
X104Y268D01*
X291Y268D02*
X297Y268D01*
X385Y268D02*
X392Y268D01*
X0Y267D02*
X7Y267D01*
X98Y267D02*
X104Y267D01*
X291Y267D02*
X297Y267D01*
X385Y267D02*
X392Y267D01*
X0Y266D02*
X7Y266D01*
X98Y266D02*
X104Y266D01*
X291Y266D02*
X297Y266D01*
X385Y266D02*
X392Y266D01*
X0Y265D02*
X7Y265D01*
X98Y265D02*
X104Y265D01*
X291Y265D02*
X297Y265D01*
X385Y265D02*
X392Y265D01*
X0Y264D02*
X7Y264D01*
X98Y264D02*
X104Y264D01*
X291Y264D02*
X297Y264D01*
X385Y264D02*
X392Y264D01*
X0Y263D02*
X7Y263D01*
X98Y263D02*
X104Y263D01*
X291Y263D02*
X297Y263D01*
X385Y263D02*
X392Y263D01*
X0Y262D02*
X7Y262D01*
X98Y262D02*
X104Y262D01*
X225Y262D02*
X227Y262D01*
X291Y262D02*
X297Y262D01*
X385Y262D02*
X392Y262D01*
X0Y261D02*
X7Y261D01*
X98Y261D02*
X104Y261D01*
X225Y261D02*
X227Y261D01*
X291Y261D02*
X297Y261D01*
X385Y261D02*
X392Y261D01*
X0Y260D02*
X7Y260D01*
X98Y260D02*
X104Y260D01*
X113Y260D02*
X116Y260D01*
X123Y260D02*
X125Y260D01*
X146Y260D02*
X148Y260D01*
X226Y260D02*
X228Y260D01*
X238Y260D02*
X240Y260D01*
X244Y260D02*
X245Y260D01*
X252Y260D02*
X256Y260D01*
X262Y260D02*
X264Y260D01*
X271Y260D02*
X275Y260D01*
X291Y260D02*
X297Y260D01*
X385Y260D02*
X392Y260D01*
X0Y259D02*
X7Y259D01*
X98Y259D02*
X104Y259D01*
X112Y259D02*
X114Y259D01*
X124Y259D02*
X126Y259D01*
X146Y259D02*
X148Y259D01*
X226Y259D02*
X228Y259D01*
X238Y259D02*
X239Y259D01*
X244Y259D02*
X245Y259D01*
X254Y259D02*
X257Y259D01*
X262Y259D02*
X264Y259D01*
X273Y259D02*
X275Y259D01*
X291Y259D02*
X297Y259D01*
X385Y259D02*
X392Y259D01*
X0Y258D02*
X7Y258D01*
X98Y258D02*
X104Y258D01*
X112Y258D02*
X114Y258D01*
X125Y258D02*
X127Y258D01*
X146Y258D02*
X148Y258D01*
X226Y258D02*
X228Y258D01*
X237Y258D02*
X239Y258D01*
X244Y258D02*
X245Y258D01*
X255Y258D02*
X257Y258D01*
X262Y258D02*
X264Y258D01*
X274Y258D02*
X276Y258D01*
X291Y258D02*
X297Y258D01*
X385Y258D02*
X392Y258D01*
X0Y257D02*
X7Y257D01*
X98Y257D02*
X104Y257D01*
X111Y257D02*
X113Y257D01*
X125Y257D02*
X127Y257D01*
X131Y257D02*
X132Y257D01*
X140Y257D02*
X142Y257D01*
X145Y257D02*
X153Y257D01*
X227Y257D02*
X229Y257D01*
X237Y257D02*
X239Y257D01*
X244Y257D02*
X245Y257D01*
X256Y257D02*
X258Y257D01*
X262Y257D02*
X264Y257D01*
X275Y257D02*
X277Y257D01*
X291Y257D02*
X297Y257D01*
X385Y257D02*
X392Y257D01*
X0Y256D02*
X7Y256D01*
X98Y256D02*
X104Y256D01*
X111Y256D02*
X113Y256D01*
X125Y256D02*
X127Y256D01*
X131Y256D02*
X132Y256D01*
X140Y256D02*
X142Y256D01*
X145Y256D02*
X153Y256D01*
X227Y256D02*
X229Y256D01*
X237Y256D02*
X238Y256D01*
X244Y256D02*
X245Y256D01*
X256Y256D02*
X258Y256D01*
X262Y256D02*
X264Y256D01*
X275Y256D02*
X277Y256D01*
X291Y256D02*
X297Y256D01*
X385Y256D02*
X392Y256D01*
X0Y255D02*
X7Y255D01*
X98Y255D02*
X104Y255D01*
X111Y255D02*
X113Y255D01*
X126Y255D02*
X127Y255D01*
X131Y255D02*
X132Y255D01*
X140Y255D02*
X142Y255D01*
X146Y255D02*
X148Y255D01*
X227Y255D02*
X229Y255D01*
X236Y255D02*
X238Y255D01*
X244Y255D02*
X245Y255D01*
X256Y255D02*
X258Y255D01*
X262Y255D02*
X264Y255D01*
X275Y255D02*
X277Y255D01*
X291Y255D02*
X297Y255D01*
X385Y255D02*
X392Y255D01*
X0Y254D02*
X7Y254D01*
X98Y254D02*
X104Y254D01*
X111Y254D02*
X113Y254D01*
X126Y254D02*
X128Y254D01*
X131Y254D02*
X132Y254D01*
X140Y254D02*
X142Y254D01*
X146Y254D02*
X148Y254D01*
X228Y254D02*
X230Y254D01*
X236Y254D02*
X238Y254D01*
X244Y254D02*
X245Y254D01*
X257Y254D02*
X258Y254D01*
X262Y254D02*
X264Y254D01*
X275Y254D02*
X277Y254D01*
X291Y254D02*
X297Y254D01*
X385Y254D02*
X392Y254D01*
X0Y253D02*
X7Y253D01*
X98Y253D02*
X104Y253D01*
X111Y253D02*
X113Y253D01*
X126Y253D02*
X128Y253D01*
X131Y253D02*
X132Y253D01*
X140Y253D02*
X142Y253D01*
X146Y253D02*
X148Y253D01*
X228Y253D02*
X230Y253D01*
X236Y253D02*
X237Y253D01*
X244Y253D02*
X245Y253D01*
X257Y253D02*
X258Y253D01*
X262Y253D02*
X264Y253D01*
X276Y253D02*
X277Y253D01*
X291Y253D02*
X297Y253D01*
X385Y253D02*
X392Y253D01*
X0Y252D02*
X7Y252D01*
X98Y252D02*
X104Y252D01*
X111Y252D02*
X113Y252D01*
X126Y252D02*
X128Y252D01*
X131Y252D02*
X132Y252D01*
X140Y252D02*
X142Y252D01*
X146Y252D02*
X148Y252D01*
X229Y252D02*
X230Y252D01*
X235Y252D02*
X237Y252D01*
X244Y252D02*
X245Y252D01*
X257Y252D02*
X258Y252D01*
X262Y252D02*
X264Y252D01*
X276Y252D02*
X277Y252D01*
X291Y252D02*
X297Y252D01*
X385Y252D02*
X392Y252D01*
X0Y251D02*
X7Y251D01*
X98Y251D02*
X104Y251D01*
X111Y251D02*
X113Y251D01*
X126Y251D02*
X127Y251D01*
X131Y251D02*
X132Y251D01*
X140Y251D02*
X142Y251D01*
X146Y251D02*
X148Y251D01*
X229Y251D02*
X231Y251D01*
X235Y251D02*
X237Y251D01*
X244Y251D02*
X245Y251D01*
X257Y251D02*
X258Y251D01*
X262Y251D02*
X264Y251D01*
X275Y251D02*
X277Y251D01*
X291Y251D02*
X297Y251D01*
X385Y251D02*
X392Y251D01*
X0Y250D02*
X7Y250D01*
X98Y250D02*
X104Y250D01*
X111Y250D02*
X113Y250D01*
X126Y250D02*
X127Y250D01*
X131Y250D02*
X132Y250D01*
X140Y250D02*
X142Y250D01*
X146Y250D02*
X148Y250D01*
X229Y250D02*
X231Y250D01*
X235Y250D02*
X236Y250D01*
X244Y250D02*
X245Y250D01*
X256Y250D02*
X258Y250D01*
X262Y250D02*
X264Y250D01*
X275Y250D02*
X277Y250D01*
X291Y250D02*
X297Y250D01*
X385Y250D02*
X392Y250D01*
X0Y249D02*
X7Y249D01*
X98Y249D02*
X104Y249D01*
X111Y249D02*
X113Y249D01*
X125Y249D02*
X127Y249D01*
X131Y249D02*
X132Y249D01*
X140Y249D02*
X142Y249D01*
X146Y249D02*
X148Y249D01*
X230Y249D02*
X231Y249D01*
X234Y249D02*
X236Y249D01*
X244Y249D02*
X245Y249D01*
X256Y249D02*
X258Y249D01*
X262Y249D02*
X264Y249D01*
X275Y249D02*
X277Y249D01*
X291Y249D02*
X297Y249D01*
X385Y249D02*
X392Y249D01*
X0Y248D02*
X7Y248D01*
X98Y248D02*
X104Y248D01*
X111Y248D02*
X113Y248D01*
X125Y248D02*
X127Y248D01*
X131Y248D02*
X132Y248D01*
X140Y248D02*
X142Y248D01*
X146Y248D02*
X148Y248D01*
X230Y248D02*
X232Y248D01*
X234Y248D02*
X236Y248D01*
X244Y248D02*
X245Y248D01*
X256Y248D02*
X258Y248D01*
X262Y248D02*
X264Y248D01*
X274Y248D02*
X276Y248D01*
X291Y248D02*
X297Y248D01*
X385Y248D02*
X392Y248D01*
X0Y247D02*
X7Y247D01*
X98Y247D02*
X104Y247D01*
X112Y247D02*
X114Y247D01*
X124Y247D02*
X126Y247D01*
X131Y247D02*
X132Y247D01*
X140Y247D02*
X142Y247D01*
X146Y247D02*
X148Y247D01*
X230Y247D02*
X232Y247D01*
X234Y247D02*
X235Y247D01*
X244Y247D02*
X245Y247D01*
X255Y247D02*
X257Y247D01*
X262Y247D02*
X264Y247D01*
X274Y247D02*
X276Y247D01*
X291Y247D02*
X297Y247D01*
X385Y247D02*
X392Y247D01*
X0Y246D02*
X7Y246D01*
X98Y246D02*
X104Y246D01*
X112Y246D02*
X115Y246D01*
X124Y246D02*
X126Y246D01*
X131Y246D02*
X133Y246D01*
X140Y246D02*
X142Y246D01*
X146Y246D02*
X148Y246D01*
X231Y246D02*
X235Y246D01*
X244Y246D02*
X245Y246D01*
X254Y246D02*
X256Y246D01*
X262Y246D02*
X264Y246D01*
X272Y246D02*
X275Y246D01*
X291Y246D02*
X297Y246D01*
X385Y246D02*
X392Y246D01*
X0Y245D02*
X7Y245D01*
X98Y245D02*
X104Y245D01*
X113Y245D02*
X116Y245D01*
X122Y245D02*
X125Y245D01*
X131Y245D02*
X134Y245D01*
X138Y245D02*
X142Y245D01*
X147Y245D02*
X149Y245D01*
X231Y245D02*
X235Y245D01*
X244Y245D02*
X246Y245D01*
X250Y245D02*
X255Y245D01*
X262Y245D02*
X264Y245D01*
X269Y245D02*
X274Y245D01*
X291Y245D02*
X297Y245D01*
X385Y245D02*
X392Y245D01*
X0Y244D02*
X7Y244D01*
X98Y244D02*
X104Y244D01*
X114Y244D02*
X124Y244D01*
X132Y244D02*
X142Y244D01*
X147Y244D02*
X153Y244D01*
X231Y244D02*
X234Y244D01*
X244Y244D02*
X254Y244D01*
X262Y244D02*
X273Y244D01*
X291Y244D02*
X297Y244D01*
X385Y244D02*
X392Y244D01*
X0Y243D02*
X7Y243D01*
X98Y243D02*
X104Y243D01*
X116Y243D02*
X123Y243D01*
X133Y243D02*
X137Y243D01*
X140Y243D02*
X142Y243D01*
X148Y243D02*
X153Y243D01*
X232Y243D02*
X234Y243D01*
X244Y243D02*
X252Y243D01*
X263Y243D02*
X271Y243D01*
X291Y243D02*
X297Y243D01*
X385Y243D02*
X392Y243D01*
X0Y242D02*
X7Y242D01*
X98Y242D02*
X104Y242D01*
X291Y242D02*
X297Y242D01*
X385Y242D02*
X392Y242D01*
X0Y241D02*
X7Y241D01*
X98Y241D02*
X104Y241D01*
X291Y241D02*
X297Y241D01*
X385Y241D02*
X392Y241D01*
X0Y240D02*
X7Y240D01*
X98Y240D02*
X104Y240D01*
X291Y240D02*
X297Y240D01*
X385Y240D02*
X392Y240D01*
X0Y239D02*
X7Y239D01*
X98Y239D02*
X104Y239D01*
X291Y239D02*
X297Y239D01*
X385Y239D02*
X392Y239D01*
X0Y238D02*
X7Y238D01*
X98Y238D02*
X104Y238D01*
X291Y238D02*
X297Y238D01*
X385Y238D02*
X392Y238D01*
X0Y237D02*
X7Y237D01*
X98Y237D02*
X104Y237D01*
X291Y237D02*
X297Y237D01*
X385Y237D02*
X392Y237D01*
X0Y236D02*
X7Y236D01*
X98Y236D02*
X104Y236D01*
X291Y236D02*
X297Y236D01*
X385Y236D02*
X392Y236D01*
X0Y235D02*
X7Y235D01*
X98Y235D02*
X104Y235D01*
X291Y235D02*
X297Y235D01*
X385Y235D02*
X392Y235D01*
X0Y234D02*
X7Y234D01*
X98Y234D02*
X104Y234D01*
X291Y234D02*
X297Y234D01*
X385Y234D02*
X392Y234D01*
X0Y233D02*
X7Y233D01*
X98Y233D02*
X104Y233D01*
X291Y233D02*
X297Y233D01*
X385Y233D02*
X392Y233D01*
X0Y232D02*
X7Y232D01*
X98Y232D02*
X104Y232D01*
X291Y232D02*
X297Y232D01*
X385Y232D02*
X392Y232D01*
X0Y231D02*
X7Y231D01*
X98Y231D02*
X104Y231D01*
X291Y231D02*
X297Y231D01*
X385Y231D02*
X392Y231D01*
X0Y230D02*
X7Y230D01*
X98Y230D02*
X104Y230D01*
X291Y230D02*
X297Y230D01*
X385Y230D02*
X392Y230D01*
X0Y229D02*
X7Y229D01*
X98Y229D02*
X104Y229D01*
X291Y229D02*
X297Y229D01*
X385Y229D02*
X392Y229D01*
X0Y228D02*
X7Y228D01*
X98Y228D02*
X104Y228D01*
X291Y228D02*
X297Y228D01*
X385Y228D02*
X392Y228D01*
X0Y227D02*
X7Y227D01*
X98Y227D02*
X104Y227D01*
X291Y227D02*
X297Y227D01*
X385Y227D02*
X392Y227D01*
X0Y226D02*
X7Y226D01*
X98Y226D02*
X104Y226D01*
X291Y226D02*
X297Y226D01*
X385Y226D02*
X392Y226D01*
X0Y225D02*
X7Y225D01*
X98Y225D02*
X104Y225D01*
X291Y225D02*
X297Y225D01*
X385Y225D02*
X392Y225D01*
X0Y224D02*
X7Y224D01*
X98Y224D02*
X104Y224D01*
X291Y224D02*
X297Y224D01*
X385Y224D02*
X392Y224D01*
X0Y223D02*
X7Y223D01*
X98Y223D02*
X104Y223D01*
X291Y223D02*
X297Y223D01*
X385Y223D02*
X392Y223D01*
X0Y222D02*
X7Y222D01*
X98Y222D02*
X104Y222D01*
X291Y222D02*
X297Y222D01*
X385Y222D02*
X392Y222D01*
X0Y221D02*
X7Y221D01*
X98Y221D02*
X104Y221D01*
X291Y221D02*
X297Y221D01*
X385Y221D02*
X392Y221D01*
X0Y220D02*
X7Y220D01*
X98Y220D02*
X104Y220D01*
X291Y220D02*
X297Y220D01*
X385Y220D02*
X392Y220D01*
X0Y219D02*
X7Y219D01*
X98Y219D02*
X104Y219D01*
X291Y219D02*
X297Y219D01*
X385Y219D02*
X392Y219D01*
X0Y218D02*
X7Y218D01*
X98Y218D02*
X104Y218D01*
X291Y218D02*
X297Y218D01*
X385Y218D02*
X392Y218D01*
X0Y217D02*
X7Y217D01*
X98Y217D02*
X104Y217D01*
X115Y217D02*
X117Y217D01*
X128Y217D02*
X130Y217D01*
X142Y217D02*
X143Y217D01*
X150Y217D02*
X157Y217D01*
X165Y217D02*
X172Y217D01*
X186Y217D02*
X192Y217D01*
X208Y217D02*
X209Y217D01*
X223Y217D02*
X230Y217D01*
X240Y217D02*
X248Y217D01*
X291Y217D02*
X297Y217D01*
X385Y217D02*
X392Y217D01*
X0Y216D02*
X7Y216D01*
X98Y216D02*
X104Y216D01*
X115Y216D02*
X117Y216D01*
X128Y216D02*
X131Y216D01*
X141Y216D02*
X144Y216D01*
X148Y216D02*
X160Y216D01*
X163Y216D02*
X174Y216D01*
X184Y216D02*
X194Y216D01*
X208Y216D02*
X210Y216D01*
X221Y216D02*
X231Y216D01*
X240Y216D02*
X253Y216D01*
X291Y216D02*
X297Y216D01*
X385Y216D02*
X392Y216D01*
X0Y215D02*
X7Y215D01*
X98Y215D02*
X104Y215D01*
X115Y215D02*
X117Y215D01*
X128Y215D02*
X131Y215D01*
X141Y215D02*
X143Y215D01*
X147Y215D02*
X160Y215D01*
X163Y215D02*
X174Y215D01*
X183Y215D02*
X187Y215D01*
X190Y215D02*
X195Y215D01*
X207Y215D02*
X210Y215D01*
X221Y215D02*
X232Y215D01*
X240Y215D02*
X254Y215D01*
X291Y215D02*
X297Y215D01*
X385Y215D02*
X392Y215D01*
X0Y214D02*
X7Y214D01*
X98Y214D02*
X104Y214D01*
X115Y214D02*
X118Y214D01*
X127Y214D02*
X131Y214D01*
X141Y214D02*
X143Y214D01*
X146Y214D02*
X150Y214D01*
X157Y214D02*
X160Y214D01*
X163Y214D02*
X165Y214D01*
X172Y214D02*
X175Y214D01*
X182Y214D02*
X185Y214D01*
X192Y214D02*
X195Y214D01*
X205Y214D02*
X210Y214D01*
X221Y214D02*
X223Y214D01*
X229Y214D02*
X233Y214D01*
X240Y214D02*
X243Y214D01*
X250Y214D02*
X254Y214D01*
X291Y214D02*
X297Y214D01*
X385Y214D02*
X392Y214D01*
X0Y213D02*
X7Y213D01*
X98Y213D02*
X104Y213D01*
X116Y213D02*
X118Y213D01*
X127Y213D02*
X131Y213D01*
X141Y213D02*
X143Y213D01*
X145Y213D02*
X148Y213D01*
X159Y213D02*
X160Y213D01*
X163Y213D02*
X163Y213D01*
X173Y213D02*
X175Y213D01*
X182Y213D02*
X184Y213D01*
X193Y213D02*
X196Y213D01*
X203Y213D02*
X210Y213D01*
X221Y213D02*
X221Y213D01*
X230Y213D02*
X233Y213D01*
X240Y213D02*
X242Y213D01*
X252Y213D02*
X255Y213D01*
X291Y213D02*
X297Y213D01*
X385Y213D02*
X392Y213D01*
X0Y212D02*
X7Y212D01*
X98Y212D02*
X104Y212D01*
X116Y212D02*
X118Y212D01*
X127Y212D02*
X132Y212D01*
X140Y212D02*
X143Y212D01*
X145Y212D02*
X148Y212D01*
X173Y212D02*
X176Y212D01*
X182Y212D02*
X184Y212D01*
X193Y212D02*
X196Y212D01*
X203Y212D02*
X210Y212D01*
X231Y212D02*
X234Y212D01*
X240Y212D02*
X242Y212D01*
X252Y212D02*
X255Y212D01*
X291Y212D02*
X297Y212D01*
X385Y212D02*
X392Y212D01*
X0Y211D02*
X7Y211D01*
X98Y211D02*
X104Y211D01*
X116Y211D02*
X118Y211D01*
X127Y211D02*
X128Y211D01*
X130Y211D02*
X132Y211D01*
X140Y211D02*
X142Y211D01*
X145Y211D02*
X147Y211D01*
X173Y211D02*
X176Y211D01*
X182Y211D02*
X184Y211D01*
X193Y211D02*
X196Y211D01*
X207Y211D02*
X210Y211D01*
X231Y211D02*
X234Y211D01*
X240Y211D02*
X242Y211D01*
X252Y211D02*
X255Y211D01*
X291Y211D02*
X297Y211D01*
X385Y211D02*
X392Y211D01*
X0Y210D02*
X7Y210D01*
X98Y210D02*
X104Y210D01*
X116Y210D02*
X119Y210D01*
X126Y210D02*
X128Y210D01*
X130Y210D02*
X132Y210D01*
X140Y210D02*
X142Y210D01*
X145Y210D02*
X147Y210D01*
X173Y210D02*
X176Y210D01*
X182Y210D02*
X184Y210D01*
X193Y210D02*
X196Y210D01*
X207Y210D02*
X210Y210D01*
X231Y210D02*
X234Y210D01*
X240Y210D02*
X242Y210D01*
X252Y210D02*
X255Y210D01*
X291Y210D02*
X297Y210D01*
X385Y210D02*
X392Y210D01*
X0Y209D02*
X7Y209D01*
X98Y209D02*
X104Y209D01*
X117Y209D02*
X119Y209D01*
X126Y209D02*
X128Y209D01*
X131Y209D02*
X132Y209D01*
X140Y209D02*
X142Y209D01*
X145Y209D02*
X148Y209D01*
X173Y209D02*
X176Y209D01*
X182Y209D02*
X185Y209D01*
X193Y209D02*
X195Y209D01*
X207Y209D02*
X210Y209D01*
X231Y209D02*
X233Y209D01*
X240Y209D02*
X242Y209D01*
X252Y209D02*
X254Y209D01*
X291Y209D02*
X297Y209D01*
X385Y209D02*
X392Y209D01*
X0Y208D02*
X7Y208D01*
X98Y208D02*
X104Y208D01*
X117Y208D02*
X119Y208D01*
X126Y208D02*
X127Y208D01*
X131Y208D02*
X133Y208D01*
X139Y208D02*
X142Y208D01*
X145Y208D02*
X148Y208D01*
X173Y208D02*
X175Y208D01*
X182Y208D02*
X186Y208D01*
X193Y208D02*
X195Y208D01*
X207Y208D02*
X210Y208D01*
X231Y208D02*
X233Y208D01*
X240Y208D02*
X242Y208D01*
X251Y208D02*
X254Y208D01*
X291Y208D02*
X297Y208D01*
X385Y208D02*
X392Y208D01*
X0Y207D02*
X7Y207D01*
X98Y207D02*
X104Y207D01*
X117Y207D02*
X119Y207D01*
X126Y207D02*
X127Y207D01*
X131Y207D02*
X133Y207D01*
X139Y207D02*
X141Y207D01*
X146Y207D02*
X150Y207D01*
X172Y207D02*
X175Y207D01*
X183Y207D02*
X188Y207D01*
X192Y207D02*
X194Y207D01*
X207Y207D02*
X210Y207D01*
X230Y207D02*
X233Y207D01*
X240Y207D02*
X243Y207D01*
X249Y207D02*
X253Y207D01*
X291Y207D02*
X297Y207D01*
X386Y207D02*
X392Y207D01*
X0Y206D02*
X7Y206D01*
X98Y206D02*
X104Y206D01*
X117Y206D02*
X120Y206D01*
X125Y206D02*
X127Y206D01*
X131Y206D02*
X133Y206D01*
X139Y206D02*
X141Y206D01*
X146Y206D02*
X154Y206D01*
X172Y206D02*
X175Y206D01*
X185Y206D02*
X193Y206D01*
X207Y206D02*
X210Y206D01*
X230Y206D02*
X232Y206D01*
X240Y206D02*
X252Y206D01*
X291Y206D02*
X297Y206D01*
X386Y206D02*
X392Y206D01*
X0Y205D02*
X7Y205D01*
X98Y205D02*
X104Y205D01*
X118Y205D02*
X120Y205D01*
X125Y205D02*
X127Y205D01*
X132Y205D02*
X133Y205D01*
X139Y205D02*
X141Y205D01*
X148Y205D02*
X157Y205D01*
X171Y205D02*
X174Y205D01*
X185Y205D02*
X192Y205D01*
X207Y205D02*
X210Y205D01*
X229Y205D02*
X232Y205D01*
X240Y205D02*
X253Y205D01*
X291Y205D02*
X297Y205D01*
X386Y205D02*
X392Y205D01*
X0Y204D02*
X7Y204D01*
X98Y204D02*
X104Y204D01*
X118Y204D02*
X120Y204D01*
X125Y204D02*
X127Y204D01*
X132Y204D02*
X134Y204D01*
X138Y204D02*
X141Y204D01*
X150Y204D02*
X159Y204D01*
X171Y204D02*
X173Y204D01*
X183Y204D02*
X186Y204D01*
X189Y204D02*
X194Y204D01*
X207Y204D02*
X210Y204D01*
X228Y204D02*
X231Y204D01*
X240Y204D02*
X243Y204D01*
X249Y204D02*
X255Y204D01*
X291Y204D02*
X297Y204D01*
X386Y204D02*
X392Y204D01*
X0Y203D02*
X7Y203D01*
X98Y203D02*
X104Y203D01*
X118Y203D02*
X120Y203D01*
X125Y203D02*
X126Y203D01*
X132Y203D02*
X134Y203D01*
X138Y203D02*
X140Y203D01*
X153Y203D02*
X160Y203D01*
X170Y203D02*
X173Y203D01*
X182Y203D02*
X185Y203D01*
X191Y203D02*
X195Y203D01*
X207Y203D02*
X210Y203D01*
X227Y203D02*
X230Y203D01*
X240Y203D02*
X242Y203D01*
X252Y203D02*
X255Y203D01*
X291Y203D02*
X297Y203D01*
X386Y203D02*
X392Y203D01*
X0Y202D02*
X7Y202D01*
X98Y202D02*
X104Y202D01*
X118Y202D02*
X121Y202D01*
X124Y202D02*
X126Y202D01*
X132Y202D02*
X134Y202D01*
X138Y202D02*
X140Y202D01*
X156Y202D02*
X160Y202D01*
X169Y202D02*
X172Y202D01*
X182Y202D02*
X184Y202D01*
X192Y202D02*
X196Y202D01*
X207Y202D02*
X210Y202D01*
X227Y202D02*
X230Y202D01*
X240Y202D02*
X242Y202D01*
X253Y202D02*
X256Y202D01*
X291Y202D02*
X296Y202D01*
X386Y202D02*
X392Y202D01*
X0Y201D02*
X7Y201D01*
X98Y201D02*
X104Y201D01*
X119Y201D02*
X121Y201D01*
X124Y201D02*
X126Y201D01*
X133Y201D02*
X134Y201D01*
X138Y201D02*
X140Y201D01*
X158Y201D02*
X161Y201D01*
X168Y201D02*
X171Y201D01*
X181Y201D02*
X184Y201D01*
X193Y201D02*
X196Y201D01*
X207Y201D02*
X210Y201D01*
X226Y201D02*
X229Y201D01*
X240Y201D02*
X242Y201D01*
X254Y201D02*
X256Y201D01*
X291Y201D02*
X296Y201D01*
X386Y201D02*
X392Y201D01*
X0Y200D02*
X7Y200D01*
X98Y200D02*
X104Y200D01*
X119Y200D02*
X121Y200D01*
X124Y200D02*
X126Y200D01*
X133Y200D02*
X135Y200D01*
X138Y200D02*
X140Y200D01*
X158Y200D02*
X161Y200D01*
X167Y200D02*
X170Y200D01*
X181Y200D02*
X184Y200D01*
X194Y200D02*
X196Y200D01*
X207Y200D02*
X210Y200D01*
X225Y200D02*
X228Y200D01*
X240Y200D02*
X242Y200D01*
X254Y200D02*
X256Y200D01*
X291Y200D02*
X296Y200D01*
X386Y200D02*
X392Y200D01*
X0Y199D02*
X7Y199D01*
X98Y199D02*
X104Y199D01*
X119Y199D02*
X121Y199D01*
X124Y199D02*
X125Y199D01*
X133Y199D02*
X135Y199D01*
X137Y199D02*
X139Y199D01*
X158Y199D02*
X161Y199D01*
X166Y199D02*
X169Y199D01*
X181Y199D02*
X183Y199D01*
X194Y199D02*
X196Y199D01*
X207Y199D02*
X210Y199D01*
X224Y199D02*
X227Y199D01*
X240Y199D02*
X242Y199D01*
X254Y199D02*
X256Y199D01*
X291Y199D02*
X296Y199D01*
X386Y199D02*
X392Y199D01*
X0Y198D02*
X7Y198D01*
X98Y198D02*
X104Y198D01*
X119Y198D02*
X125Y198D01*
X133Y198D02*
X135Y198D01*
X137Y198D02*
X139Y198D01*
X158Y198D02*
X161Y198D01*
X165Y198D02*
X168Y198D01*
X181Y198D02*
X184Y198D01*
X194Y198D02*
X196Y198D01*
X207Y198D02*
X210Y198D01*
X223Y198D02*
X226Y198D01*
X240Y198D02*
X242Y198D01*
X253Y198D02*
X256Y198D01*
X291Y198D02*
X296Y198D01*
X386Y198D02*
X392Y198D01*
X0Y197D02*
X7Y197D01*
X98Y197D02*
X104Y197D01*
X120Y197D02*
X125Y197D01*
X134Y197D02*
X139Y197D01*
X145Y197D02*
X145Y197D01*
X158Y197D02*
X160Y197D01*
X164Y197D02*
X167Y197D01*
X181Y197D02*
X184Y197D01*
X194Y197D02*
X196Y197D01*
X207Y197D02*
X210Y197D01*
X222Y197D02*
X225Y197D01*
X240Y197D02*
X242Y197D01*
X253Y197D02*
X256Y197D01*
X291Y197D02*
X296Y197D01*
X386Y197D02*
X392Y197D01*
X0Y196D02*
X7Y196D01*
X98Y196D02*
X104Y196D01*
X120Y196D02*
X125Y196D01*
X134Y196D02*
X139Y196D01*
X145Y196D02*
X146Y196D01*
X157Y196D02*
X160Y196D01*
X163Y196D02*
X166Y196D01*
X182Y196D02*
X184Y196D01*
X193Y196D02*
X196Y196D01*
X207Y196D02*
X210Y196D01*
X221Y196D02*
X224Y196D01*
X240Y196D02*
X242Y196D01*
X252Y196D02*
X255Y196D01*
X291Y196D02*
X296Y196D01*
X386Y196D02*
X392Y196D01*
X0Y195D02*
X7Y195D01*
X98Y195D02*
X104Y195D01*
X120Y195D02*
X124Y195D01*
X134Y195D02*
X138Y195D01*
X145Y195D02*
X148Y195D01*
X156Y195D02*
X160Y195D01*
X162Y195D02*
X165Y195D01*
X182Y195D02*
X185Y195D01*
X192Y195D02*
X195Y195D01*
X207Y195D02*
X210Y195D01*
X220Y195D02*
X223Y195D01*
X240Y195D02*
X243Y195D01*
X250Y195D02*
X255Y195D01*
X291Y195D02*
X296Y195D01*
X386Y195D02*
X392Y195D01*
X0Y194D02*
X7Y194D01*
X98Y194D02*
X104Y194D01*
X120Y194D02*
X124Y194D01*
X134Y194D02*
X138Y194D01*
X145Y194D02*
X159Y194D01*
X162Y194D02*
X177Y194D01*
X183Y194D02*
X188Y194D01*
X190Y194D02*
X195Y194D01*
X203Y194D02*
X214Y194D01*
X220Y194D02*
X235Y194D01*
X240Y194D02*
X254Y194D01*
X291Y194D02*
X297Y194D01*
X386Y194D02*
X392Y194D01*
X0Y193D02*
X7Y193D01*
X98Y193D02*
X104Y193D01*
X121Y193D02*
X124Y193D01*
X135Y193D02*
X138Y193D01*
X146Y193D02*
X158Y193D01*
X162Y193D02*
X177Y193D01*
X184Y193D02*
X193Y193D01*
X203Y193D02*
X214Y193D01*
X220Y193D02*
X235Y193D01*
X240Y193D02*
X252Y193D01*
X291Y193D02*
X297Y193D01*
X386Y193D02*
X392Y193D01*
X0Y192D02*
X7Y192D01*
X98Y192D02*
X104Y192D01*
X121Y192D02*
X123Y192D01*
X135Y192D02*
X137Y192D01*
X148Y192D02*
X156Y192D01*
X163Y192D02*
X177Y192D01*
X186Y192D02*
X192Y192D01*
X203Y192D02*
X214Y192D01*
X220Y192D02*
X234Y192D01*
X240Y192D02*
X248Y192D01*
X291Y192D02*
X297Y192D01*
X386Y192D02*
X392Y192D01*
X0Y191D02*
X7Y191D01*
X98Y191D02*
X104Y191D01*
X291Y191D02*
X297Y191D01*
X386Y191D02*
X392Y191D01*
X0Y190D02*
X7Y190D01*
X98Y190D02*
X104Y190D01*
X291Y190D02*
X297Y190D01*
X386Y190D02*
X392Y190D01*
X0Y189D02*
X7Y189D01*
X98Y189D02*
X104Y189D01*
X291Y189D02*
X297Y189D01*
X385Y189D02*
X392Y189D01*
X0Y188D02*
X7Y188D01*
X98Y188D02*
X104Y188D01*
X291Y188D02*
X297Y188D01*
X385Y188D02*
X392Y188D01*
X0Y187D02*
X7Y187D01*
X98Y187D02*
X104Y187D01*
X291Y187D02*
X297Y187D01*
X385Y187D02*
X392Y187D01*
X0Y186D02*
X7Y186D01*
X98Y186D02*
X104Y186D01*
X291Y186D02*
X297Y186D01*
X385Y186D02*
X392Y186D01*
X0Y185D02*
X7Y185D01*
X98Y185D02*
X104Y185D01*
X291Y185D02*
X297Y185D01*
X385Y185D02*
X392Y185D01*
X0Y184D02*
X7Y184D01*
X98Y184D02*
X104Y184D01*
X291Y184D02*
X297Y184D01*
X385Y184D02*
X392Y184D01*
X0Y183D02*
X7Y183D01*
X98Y183D02*
X104Y183D01*
X291Y183D02*
X297Y183D01*
X385Y183D02*
X392Y183D01*
X0Y182D02*
X7Y182D01*
X98Y182D02*
X104Y182D01*
X291Y182D02*
X297Y182D01*
X385Y182D02*
X392Y182D01*
X0Y181D02*
X7Y181D01*
X98Y181D02*
X104Y181D01*
X291Y181D02*
X297Y181D01*
X385Y181D02*
X392Y181D01*
X0Y180D02*
X7Y180D01*
X98Y180D02*
X104Y180D01*
X291Y180D02*
X297Y180D01*
X385Y180D02*
X392Y180D01*
X0Y179D02*
X7Y179D01*
X98Y179D02*
X104Y179D01*
X291Y179D02*
X297Y179D01*
X385Y179D02*
X392Y179D01*
X0Y178D02*
X7Y178D01*
X98Y178D02*
X104Y178D01*
X291Y178D02*
X297Y178D01*
X385Y178D02*
X392Y178D01*
X0Y177D02*
X7Y177D01*
X98Y177D02*
X104Y177D01*
X291Y177D02*
X297Y177D01*
X385Y177D02*
X392Y177D01*
X0Y176D02*
X7Y176D01*
X98Y176D02*
X104Y176D01*
X291Y176D02*
X297Y176D01*
X385Y176D02*
X392Y176D01*
X0Y175D02*
X7Y175D01*
X98Y175D02*
X104Y175D01*
X291Y175D02*
X297Y175D01*
X385Y175D02*
X392Y175D01*
X0Y174D02*
X7Y174D01*
X98Y174D02*
X104Y174D01*
X291Y174D02*
X297Y174D01*
X385Y174D02*
X392Y174D01*
X0Y173D02*
X7Y173D01*
X98Y173D02*
X104Y173D01*
X291Y173D02*
X297Y173D01*
X385Y173D02*
X392Y173D01*
X0Y172D02*
X7Y172D01*
X98Y172D02*
X104Y172D01*
X291Y172D02*
X297Y172D01*
X385Y172D02*
X392Y172D01*
X0Y171D02*
X7Y171D01*
X98Y171D02*
X104Y171D01*
X291Y171D02*
X297Y171D01*
X385Y171D02*
X392Y171D01*
X0Y170D02*
X7Y170D01*
X98Y170D02*
X104Y170D01*
X291Y170D02*
X297Y170D01*
X385Y170D02*
X392Y170D01*
X0Y169D02*
X7Y169D01*
X98Y169D02*
X104Y169D01*
X291Y169D02*
X297Y169D01*
X385Y169D02*
X392Y169D01*
X0Y168D02*
X7Y168D01*
X98Y168D02*
X104Y168D01*
X291Y168D02*
X297Y168D01*
X385Y168D02*
X392Y168D01*
X0Y167D02*
X7Y167D01*
X98Y167D02*
X104Y167D01*
X250Y167D02*
X257Y167D01*
X291Y167D02*
X297Y167D01*
X385Y167D02*
X392Y167D01*
X0Y166D02*
X7Y166D01*
X98Y166D02*
X104Y166D01*
X156Y166D02*
X157Y166D01*
X251Y166D02*
X257Y166D01*
X291Y166D02*
X297Y166D01*
X385Y166D02*
X392Y166D01*
X0Y165D02*
X7Y165D01*
X98Y165D02*
X104Y165D01*
X118Y165D02*
X124Y165D01*
X156Y165D02*
X158Y165D01*
X253Y165D02*
X255Y165D01*
X291Y165D02*
X297Y165D01*
X385Y165D02*
X392Y165D01*
X0Y164D02*
X7Y164D01*
X98Y164D02*
X104Y164D01*
X116Y164D02*
X126Y164D01*
X156Y164D02*
X158Y164D01*
X253Y164D02*
X255Y164D01*
X291Y164D02*
X297Y164D01*
X385Y164D02*
X392Y164D01*
X0Y163D02*
X7Y163D01*
X98Y163D02*
X104Y163D01*
X115Y163D02*
X119Y163D01*
X123Y163D02*
X127Y163D01*
X156Y163D02*
X158Y163D01*
X253Y163D02*
X255Y163D01*
X264Y163D02*
X265Y163D01*
X291Y163D02*
X297Y163D01*
X385Y163D02*
X392Y163D01*
X0Y162D02*
X7Y162D01*
X98Y162D02*
X104Y162D01*
X114Y162D02*
X117Y162D01*
X126Y162D02*
X127Y162D01*
X156Y162D02*
X158Y162D01*
X253Y162D02*
X255Y162D01*
X258Y162D02*
X260Y162D01*
X262Y162D02*
X267Y162D01*
X291Y162D02*
X297Y162D01*
X385Y162D02*
X392Y162D01*
X0Y161D02*
X7Y161D01*
X98Y161D02*
X104Y161D01*
X113Y161D02*
X115Y161D01*
X127Y161D02*
X127Y161D01*
X156Y161D02*
X158Y161D01*
X253Y161D02*
X255Y161D01*
X258Y161D02*
X268Y161D01*
X291Y161D02*
X297Y161D01*
X385Y161D02*
X392Y161D01*
X0Y160D02*
X7Y160D01*
X98Y160D02*
X104Y160D01*
X113Y160D02*
X115Y160D01*
X132Y160D02*
X133Y160D01*
X136Y160D02*
X140Y160D01*
X150Y160D02*
X154Y160D01*
X156Y160D02*
X158Y160D01*
X253Y160D02*
X255Y160D01*
X258Y160D02*
X261Y160D01*
X266Y160D02*
X268Y160D01*
X291Y160D02*
X297Y160D01*
X385Y160D02*
X392Y160D01*
X0Y159D02*
X7Y159D01*
X98Y159D02*
X104Y159D01*
X112Y159D02*
X114Y159D01*
X131Y159D02*
X133Y159D01*
X135Y159D02*
X141Y159D01*
X148Y159D02*
X158Y159D01*
X253Y159D02*
X255Y159D01*
X258Y159D02*
X260Y159D01*
X267Y159D02*
X269Y159D01*
X291Y159D02*
X297Y159D01*
X385Y159D02*
X392Y159D01*
X0Y158D02*
X7Y158D01*
X98Y158D02*
X104Y158D01*
X112Y158D02*
X114Y158D01*
X131Y158D02*
X136Y158D01*
X138Y158D02*
X142Y158D01*
X147Y158D02*
X151Y158D01*
X154Y158D02*
X158Y158D01*
X253Y158D02*
X255Y158D01*
X258Y158D02*
X260Y158D01*
X267Y158D02*
X269Y158D01*
X291Y158D02*
X297Y158D01*
X385Y158D02*
X392Y158D01*
X0Y157D02*
X7Y157D01*
X98Y157D02*
X104Y157D01*
X112Y157D02*
X114Y157D01*
X131Y157D02*
X134Y157D01*
X140Y157D02*
X142Y157D01*
X147Y157D02*
X149Y157D01*
X156Y157D02*
X158Y157D01*
X253Y157D02*
X255Y157D01*
X258Y157D02*
X260Y157D01*
X267Y157D02*
X269Y157D01*
X291Y157D02*
X297Y157D01*
X385Y157D02*
X392Y157D01*
X0Y156D02*
X7Y156D01*
X98Y156D02*
X104Y156D01*
X112Y156D02*
X114Y156D01*
X131Y156D02*
X133Y156D01*
X140Y156D02*
X142Y156D01*
X146Y156D02*
X148Y156D01*
X156Y156D02*
X158Y156D01*
X253Y156D02*
X255Y156D01*
X258Y156D02*
X260Y156D01*
X267Y156D02*
X269Y156D01*
X291Y156D02*
X297Y156D01*
X385Y156D02*
X392Y156D01*
X0Y155D02*
X7Y155D01*
X98Y155D02*
X104Y155D01*
X112Y155D02*
X114Y155D01*
X121Y155D02*
X127Y155D01*
X131Y155D02*
X133Y155D01*
X141Y155D02*
X142Y155D01*
X146Y155D02*
X148Y155D01*
X156Y155D02*
X158Y155D01*
X253Y155D02*
X255Y155D01*
X258Y155D02*
X260Y155D01*
X267Y155D02*
X269Y155D01*
X291Y155D02*
X297Y155D01*
X385Y155D02*
X392Y155D01*
X0Y154D02*
X7Y154D01*
X98Y154D02*
X104Y154D01*
X112Y154D02*
X114Y154D01*
X121Y154D02*
X127Y154D01*
X131Y154D02*
X133Y154D01*
X141Y154D02*
X142Y154D01*
X146Y154D02*
X148Y154D01*
X156Y154D02*
X158Y154D01*
X253Y154D02*
X255Y154D01*
X258Y154D02*
X260Y154D01*
X267Y154D02*
X269Y154D01*
X291Y154D02*
X297Y154D01*
X385Y154D02*
X392Y154D01*
X0Y153D02*
X7Y153D01*
X98Y153D02*
X104Y153D01*
X112Y153D02*
X114Y153D01*
X121Y153D02*
X127Y153D01*
X131Y153D02*
X133Y153D01*
X141Y153D02*
X142Y153D01*
X146Y153D02*
X147Y153D01*
X156Y153D02*
X158Y153D01*
X253Y153D02*
X255Y153D01*
X258Y153D02*
X260Y153D01*
X267Y153D02*
X269Y153D01*
X291Y153D02*
X297Y153D01*
X385Y153D02*
X392Y153D01*
X0Y152D02*
X7Y152D01*
X98Y152D02*
X104Y152D01*
X112Y152D02*
X114Y152D01*
X125Y152D02*
X127Y152D01*
X131Y152D02*
X133Y152D01*
X141Y152D02*
X142Y152D01*
X146Y152D02*
X147Y152D01*
X156Y152D02*
X158Y152D01*
X253Y152D02*
X255Y152D01*
X258Y152D02*
X260Y152D01*
X267Y152D02*
X269Y152D01*
X291Y152D02*
X297Y152D01*
X385Y152D02*
X392Y152D01*
X0Y151D02*
X7Y151D01*
X98Y151D02*
X105Y151D01*
X112Y151D02*
X114Y151D01*
X125Y151D02*
X127Y151D01*
X131Y151D02*
X133Y151D01*
X141Y151D02*
X142Y151D01*
X146Y151D02*
X148Y151D01*
X156Y151D02*
X158Y151D01*
X253Y151D02*
X255Y151D01*
X258Y151D02*
X260Y151D01*
X267Y151D02*
X269Y151D01*
X291Y151D02*
X297Y151D01*
X385Y151D02*
X392Y151D01*
X0Y150D02*
X7Y150D01*
X98Y150D02*
X106Y150D01*
X113Y150D02*
X115Y150D01*
X125Y150D02*
X127Y150D01*
X131Y150D02*
X133Y150D01*
X141Y150D02*
X142Y150D01*
X146Y150D02*
X148Y150D01*
X156Y150D02*
X158Y150D01*
X253Y150D02*
X255Y150D01*
X258Y150D02*
X260Y150D01*
X267Y150D02*
X269Y150D01*
X291Y150D02*
X297Y150D01*
X385Y150D02*
X392Y150D01*
X0Y149D02*
X7Y149D01*
X98Y149D02*
X107Y149D01*
X113Y149D02*
X116Y149D01*
X125Y149D02*
X127Y149D01*
X131Y149D02*
X133Y149D01*
X141Y149D02*
X142Y149D01*
X146Y149D02*
X148Y149D01*
X156Y149D02*
X158Y149D01*
X250Y149D02*
X260Y149D01*
X267Y149D02*
X269Y149D01*
X291Y149D02*
X297Y149D01*
X385Y149D02*
X392Y149D01*
X0Y148D02*
X7Y148D01*
X98Y148D02*
X108Y148D01*
X114Y148D02*
X117Y148D01*
X125Y148D02*
X127Y148D01*
X131Y148D02*
X133Y148D01*
X141Y148D02*
X142Y148D01*
X147Y148D02*
X149Y148D01*
X155Y148D02*
X158Y148D01*
X251Y148D02*
X259Y148D01*
X267Y148D02*
X269Y148D01*
X291Y148D02*
X297Y148D01*
X385Y148D02*
X392Y148D01*
X0Y147D02*
X7Y147D01*
X98Y147D02*
X109Y147D01*
X115Y147D02*
X119Y147D01*
X123Y147D02*
X127Y147D01*
X131Y147D02*
X133Y147D01*
X141Y147D02*
X142Y147D01*
X147Y147D02*
X158Y147D01*
X291Y147D02*
X297Y147D01*
X385Y147D02*
X392Y147D01*
X0Y146D02*
X7Y146D01*
X98Y146D02*
X110Y146D01*
X116Y146D02*
X126Y146D01*
X131Y146D02*
X133Y146D01*
X141Y146D02*
X142Y146D01*
X148Y146D02*
X154Y146D01*
X156Y146D02*
X158Y146D01*
X291Y146D02*
X297Y146D01*
X385Y146D02*
X392Y146D01*
X0Y145D02*
X7Y145D01*
X98Y145D02*
X104Y145D01*
X156Y145D02*
X157Y145D01*
X291Y145D02*
X297Y145D01*
X385Y145D02*
X392Y145D01*
X0Y144D02*
X7Y144D01*
X98Y144D02*
X104Y144D01*
X291Y144D02*
X297Y144D01*
X385Y144D02*
X392Y144D01*
X0Y143D02*
X7Y143D01*
X98Y143D02*
X104Y143D01*
X291Y143D02*
X297Y143D01*
X385Y143D02*
X392Y143D01*
X0Y142D02*
X7Y142D01*
X98Y142D02*
X104Y142D01*
X291Y142D02*
X297Y142D01*
X385Y142D02*
X392Y142D01*
X0Y141D02*
X7Y141D01*
X98Y141D02*
X104Y141D01*
X291Y141D02*
X297Y141D01*
X385Y141D02*
X392Y141D01*
X0Y140D02*
X7Y140D01*
X98Y140D02*
X104Y140D01*
X291Y140D02*
X297Y140D01*
X385Y140D02*
X392Y140D01*
X0Y139D02*
X7Y139D01*
X98Y139D02*
X104Y139D01*
X291Y139D02*
X297Y139D01*
X385Y139D02*
X392Y139D01*
X0Y138D02*
X7Y138D01*
X98Y138D02*
X104Y138D01*
X291Y138D02*
X297Y138D01*
X385Y138D02*
X392Y138D01*
X0Y137D02*
X7Y137D01*
X98Y137D02*
X104Y137D01*
X291Y137D02*
X297Y137D01*
X385Y137D02*
X392Y137D01*
X0Y136D02*
X7Y136D01*
X98Y136D02*
X104Y136D01*
X291Y136D02*
X297Y136D01*
X385Y136D02*
X392Y136D01*
X0Y135D02*
X7Y135D01*
X98Y135D02*
X104Y135D01*
X291Y135D02*
X297Y135D01*
X385Y135D02*
X392Y135D01*
X0Y134D02*
X7Y134D01*
X98Y134D02*
X104Y134D01*
X291Y134D02*
X297Y134D01*
X385Y134D02*
X392Y134D01*
X0Y133D02*
X7Y133D01*
X98Y133D02*
X104Y133D01*
X291Y133D02*
X297Y133D01*
X385Y133D02*
X392Y133D01*
X0Y132D02*
X7Y132D01*
X98Y132D02*
X104Y132D01*
X291Y132D02*
X297Y132D01*
X385Y132D02*
X392Y132D01*
X0Y131D02*
X7Y131D01*
X98Y131D02*
X104Y131D01*
X291Y131D02*
X297Y131D01*
X385Y131D02*
X392Y131D01*
X0Y130D02*
X7Y130D01*
X98Y130D02*
X104Y130D01*
X291Y130D02*
X297Y130D01*
X385Y130D02*
X392Y130D01*
X0Y129D02*
X7Y129D01*
X98Y129D02*
X104Y129D01*
X291Y129D02*
X297Y129D01*
X385Y129D02*
X392Y129D01*
X0Y128D02*
X7Y128D01*
X98Y128D02*
X104Y128D01*
X291Y128D02*
X297Y128D01*
X385Y128D02*
X392Y128D01*
X0Y127D02*
X7Y127D01*
X98Y127D02*
X104Y127D01*
X291Y127D02*
X297Y127D01*
X385Y127D02*
X392Y127D01*
X0Y126D02*
X7Y126D01*
X98Y126D02*
X104Y126D01*
X291Y126D02*
X297Y126D01*
X385Y126D02*
X392Y126D01*
X0Y125D02*
X7Y125D01*
X98Y125D02*
X104Y125D01*
X291Y125D02*
X297Y125D01*
X385Y125D02*
X392Y125D01*
X0Y124D02*
X7Y124D01*
X98Y124D02*
X104Y124D01*
X291Y124D02*
X297Y124D01*
X385Y124D02*
X392Y124D01*
X0Y123D02*
X7Y123D01*
X98Y123D02*
X104Y123D01*
X291Y123D02*
X297Y123D01*
X385Y123D02*
X392Y123D01*
X0Y122D02*
X7Y122D01*
X98Y122D02*
X104Y122D01*
X291Y122D02*
X297Y122D01*
X385Y122D02*
X392Y122D01*
X0Y121D02*
X7Y121D01*
X98Y121D02*
X104Y121D01*
X291Y121D02*
X297Y121D01*
X385Y121D02*
X392Y121D01*
X0Y120D02*
X7Y120D01*
X98Y120D02*
X104Y120D01*
X291Y120D02*
X297Y120D01*
X385Y120D02*
X392Y120D01*
X0Y119D02*
X7Y119D01*
X98Y119D02*
X104Y119D01*
X291Y119D02*
X297Y119D01*
X385Y119D02*
X392Y119D01*
X0Y118D02*
X7Y118D01*
X98Y118D02*
X104Y118D01*
X291Y118D02*
X297Y118D01*
X385Y118D02*
X392Y118D01*
X0Y117D02*
X7Y117D01*
X98Y117D02*
X104Y117D01*
X291Y117D02*
X297Y117D01*
X385Y117D02*
X392Y117D01*
X0Y116D02*
X7Y116D01*
X98Y116D02*
X104Y116D01*
X291Y116D02*
X297Y116D01*
X385Y116D02*
X392Y116D01*
X0Y115D02*
X7Y115D01*
X98Y115D02*
X104Y115D01*
X291Y115D02*
X297Y115D01*
X385Y115D02*
X392Y115D01*
X0Y114D02*
X7Y114D01*
X98Y114D02*
X104Y114D01*
X291Y114D02*
X297Y114D01*
X385Y114D02*
X392Y114D01*
X0Y113D02*
X7Y113D01*
X98Y113D02*
X104Y113D01*
X291Y113D02*
X297Y113D01*
X385Y113D02*
X392Y113D01*
X0Y112D02*
X7Y112D01*
X98Y112D02*
X104Y112D01*
X291Y112D02*
X297Y112D01*
X385Y112D02*
X392Y112D01*
X0Y111D02*
X7Y111D01*
X98Y111D02*
X104Y111D01*
X291Y111D02*
X297Y111D01*
X385Y111D02*
X392Y111D01*
X0Y110D02*
X7Y110D01*
X98Y110D02*
X104Y110D01*
X155Y110D02*
X233Y110D01*
X285Y110D02*
X297Y110D01*
X385Y110D02*
X392Y110D01*
X0Y109D02*
X7Y109D01*
X98Y109D02*
X104Y109D01*
X155Y109D02*
X233Y109D01*
X285Y109D02*
X297Y109D01*
X385Y109D02*
X392Y109D01*
X0Y108D02*
X7Y108D01*
X98Y108D02*
X104Y108D01*
X155Y108D02*
X233Y108D01*
X285Y108D02*
X297Y108D01*
X385Y108D02*
X392Y108D01*
X0Y107D02*
X7Y107D01*
X98Y107D02*
X104Y107D01*
X155Y107D02*
X233Y107D01*
X285Y107D02*
X297Y107D01*
X386Y107D02*
X392Y107D01*
X0Y106D02*
X7Y106D01*
X98Y106D02*
X104Y106D01*
X155Y106D02*
X233Y106D01*
X285Y106D02*
X297Y106D01*
X386Y106D02*
X392Y106D01*
X0Y105D02*
X7Y105D01*
X98Y105D02*
X104Y105D01*
X155Y105D02*
X233Y105D01*
X285Y105D02*
X297Y105D01*
X386Y105D02*
X392Y105D01*
X0Y104D02*
X7Y104D01*
X98Y104D02*
X104Y104D01*
X155Y104D02*
X233Y104D01*
X285Y104D02*
X297Y104D01*
X386Y104D02*
X392Y104D01*
X0Y103D02*
X7Y103D01*
X386Y103D02*
X392Y103D01*
X0Y102D02*
X7Y102D01*
X386Y102D02*
X392Y102D01*
X0Y101D02*
X7Y101D01*
X386Y101D02*
X392Y101D01*
X0Y100D02*
X7Y100D01*
X386Y100D02*
X392Y100D01*
X0Y99D02*
X7Y99D01*
X386Y99D02*
X392Y99D01*
X0Y98D02*
X7Y98D01*
X386Y98D02*
X392Y98D01*
X0Y97D02*
X7Y97D01*
X386Y97D02*
X392Y97D01*
X0Y96D02*
X7Y96D01*
X386Y96D02*
X392Y96D01*
X0Y95D02*
X7Y95D01*
X386Y95D02*
X392Y95D01*
X0Y94D02*
X7Y94D01*
X386Y94D02*
X392Y94D01*
X0Y93D02*
X7Y93D01*
X386Y93D02*
X392Y93D01*
X0Y92D02*
X7Y92D01*
X386Y92D02*
X392Y92D01*
X0Y91D02*
X7Y91D01*
X386Y91D02*
X392Y91D01*
X0Y90D02*
X7Y90D01*
X386Y90D02*
X392Y90D01*
X0Y89D02*
X7Y89D01*
X385Y89D02*
X392Y89D01*
X0Y88D02*
X7Y88D01*
X385Y88D02*
X392Y88D01*
X0Y87D02*
X7Y87D01*
X385Y87D02*
X392Y87D01*
X0Y86D02*
X7Y86D01*
X385Y86D02*
X392Y86D01*
X0Y85D02*
X7Y85D01*
X385Y85D02*
X392Y85D01*
X0Y84D02*
X7Y84D01*
X385Y84D02*
X392Y84D01*
X0Y83D02*
X7Y83D01*
X385Y83D02*
X392Y83D01*
X0Y82D02*
X7Y82D01*
X385Y82D02*
X392Y82D01*
X0Y81D02*
X7Y81D01*
X385Y81D02*
X392Y81D01*
X0Y80D02*
X7Y80D01*
X385Y80D02*
X392Y80D01*
X0Y79D02*
X7Y79D01*
X385Y79D02*
X392Y79D01*
X0Y78D02*
X7Y78D01*
X385Y78D02*
X392Y78D01*
X0Y77D02*
X7Y77D01*
X385Y77D02*
X392Y77D01*
X0Y76D02*
X7Y76D01*
X385Y76D02*
X392Y76D01*
X0Y75D02*
X7Y75D01*
X385Y75D02*
X392Y75D01*
X0Y74D02*
X7Y74D01*
X385Y74D02*
X392Y74D01*
X0Y73D02*
X7Y73D01*
X385Y73D02*
X392Y73D01*
X0Y72D02*
X7Y72D01*
X385Y72D02*
X392Y72D01*
X0Y71D02*
X7Y71D01*
X385Y71D02*
X392Y71D01*
X0Y70D02*
X7Y70D01*
X385Y70D02*
X392Y70D01*
X0Y69D02*
X7Y69D01*
X385Y69D02*
X392Y69D01*
X0Y68D02*
X7Y68D01*
X385Y68D02*
X392Y68D01*
X0Y67D02*
X7Y67D01*
X385Y67D02*
X392Y67D01*
X0Y66D02*
X7Y66D01*
X385Y66D02*
X392Y66D01*
X0Y65D02*
X7Y65D01*
X385Y65D02*
X392Y65D01*
X0Y64D02*
X7Y64D01*
X385Y64D02*
X392Y64D01*
X0Y63D02*
X7Y63D01*
X385Y63D02*
X392Y63D01*
X0Y62D02*
X7Y62D01*
X385Y62D02*
X392Y62D01*
X0Y61D02*
X7Y61D01*
X144Y61D02*
X148Y61D01*
X385Y61D02*
X392Y61D01*
X0Y60D02*
X7Y60D01*
X111Y60D02*
X119Y60D01*
X144Y60D02*
X149Y60D01*
X385Y60D02*
X392Y60D01*
X0Y59D02*
X7Y59D01*
X110Y59D02*
X121Y59D01*
X144Y59D02*
X149Y59D01*
X237Y59D02*
X244Y59D01*
X385Y59D02*
X392Y59D01*
X0Y58D02*
X7Y58D01*
X110Y58D02*
X122Y58D01*
X144Y58D02*
X149Y58D01*
X236Y58D02*
X247Y58D01*
X385Y58D02*
X392Y58D01*
X0Y57D02*
X7Y57D01*
X110Y57D02*
X123Y57D01*
X144Y57D02*
X148Y57D01*
X236Y57D02*
X248Y57D01*
X385Y57D02*
X392Y57D01*
X0Y56D02*
X7Y56D01*
X113Y56D02*
X117Y56D01*
X120Y56D02*
X124Y56D01*
X236Y56D02*
X249Y56D01*
X385Y56D02*
X392Y56D01*
X0Y55D02*
X7Y55D01*
X114Y55D02*
X117Y55D01*
X121Y55D02*
X124Y55D01*
X239Y55D02*
X243Y55D01*
X245Y55D02*
X249Y55D01*
X385Y55D02*
X392Y55D01*
X0Y54D02*
X7Y54D01*
X23Y54D02*
X33Y54D01*
X43Y54D02*
X48Y54D01*
X59Y54D02*
X61Y54D01*
X72Y54D02*
X83Y54D01*
X114Y54D02*
X117Y54D01*
X121Y54D02*
X125Y54D01*
X239Y54D02*
X242Y54D01*
X246Y54D02*
X250Y54D01*
X310Y54D02*
X320Y54D01*
X330Y54D02*
X334Y54D01*
X345Y54D02*
X348Y54D01*
X358Y54D02*
X369Y54D01*
X385Y54D02*
X392Y54D01*
X0Y53D02*
X7Y53D01*
X22Y53D02*
X33Y53D01*
X43Y53D02*
X48Y53D01*
X59Y53D02*
X62Y53D01*
X71Y53D02*
X84Y53D01*
X114Y53D02*
X117Y53D01*
X122Y53D02*
X125Y53D01*
X239Y53D02*
X242Y53D01*
X247Y53D02*
X250Y53D01*
X309Y53D02*
X320Y53D01*
X330Y53D02*
X335Y53D01*
X345Y53D02*
X348Y53D01*
X358Y53D02*
X370Y53D01*
X385Y53D02*
X392Y53D01*
X0Y52D02*
X7Y52D01*
X21Y52D02*
X33Y52D01*
X43Y52D02*
X49Y52D01*
X59Y52D02*
X62Y52D01*
X72Y52D02*
X85Y52D01*
X114Y52D02*
X117Y52D01*
X122Y52D02*
X126Y52D01*
X239Y52D02*
X242Y52D01*
X248Y52D02*
X251Y52D01*
X308Y52D02*
X320Y52D01*
X330Y52D02*
X335Y52D01*
X345Y52D02*
X348Y52D01*
X358Y52D02*
X371Y52D01*
X385Y52D02*
X392Y52D01*
X0Y51D02*
X7Y51D01*
X20Y51D02*
X26Y51D01*
X43Y51D02*
X49Y51D01*
X59Y51D02*
X62Y51D01*
X75Y51D02*
X85Y51D01*
X114Y51D02*
X117Y51D01*
X123Y51D02*
X126Y51D01*
X140Y51D02*
X148Y51D01*
X239Y51D02*
X242Y51D01*
X248Y51D02*
X251Y51D01*
X307Y51D02*
X312Y51D01*
X330Y51D02*
X336Y51D01*
X345Y51D02*
X348Y51D01*
X361Y51D02*
X365Y51D01*
X367Y51D02*
X372Y51D01*
X385Y51D02*
X392Y51D01*
X0Y50D02*
X7Y50D01*
X20Y50D02*
X24Y50D01*
X43Y50D02*
X49Y50D01*
X59Y50D02*
X62Y50D01*
X75Y50D02*
X78Y50D01*
X82Y50D02*
X86Y50D01*
X114Y50D02*
X117Y50D01*
X123Y50D02*
X127Y50D01*
X140Y50D02*
X149Y50D01*
X239Y50D02*
X242Y50D01*
X249Y50D02*
X252Y50D01*
X268Y50D02*
X278Y50D01*
X306Y50D02*
X310Y50D01*
X330Y50D02*
X336Y50D01*
X345Y50D02*
X348Y50D01*
X362Y50D02*
X365Y50D01*
X369Y50D02*
X372Y50D01*
X385Y50D02*
X392Y50D01*
X0Y49D02*
X7Y49D01*
X19Y49D02*
X23Y49D01*
X43Y49D02*
X50Y49D01*
X59Y49D02*
X62Y49D01*
X75Y49D02*
X78Y49D01*
X83Y49D02*
X86Y49D01*
X114Y49D02*
X117Y49D01*
X124Y49D02*
X127Y49D01*
X140Y49D02*
X149Y49D01*
X239Y49D02*
X242Y49D01*
X249Y49D02*
X252Y49D01*
X267Y49D02*
X279Y49D01*
X305Y49D02*
X309Y49D01*
X330Y49D02*
X336Y49D01*
X345Y49D02*
X348Y49D01*
X362Y49D02*
X365Y49D01*
X369Y49D02*
X373Y49D01*
X385Y49D02*
X392Y49D01*
X0Y48D02*
X7Y48D01*
X18Y48D02*
X22Y48D01*
X43Y48D02*
X50Y48D01*
X59Y48D02*
X62Y48D01*
X75Y48D02*
X78Y48D01*
X83Y48D02*
X87Y48D01*
X114Y48D02*
X117Y48D01*
X124Y48D02*
X128Y48D01*
X141Y48D02*
X149Y48D01*
X239Y48D02*
X242Y48D01*
X250Y48D02*
X253Y48D01*
X266Y48D02*
X280Y48D01*
X305Y48D02*
X309Y48D01*
X330Y48D02*
X337Y48D01*
X345Y48D02*
X348Y48D01*
X362Y48D02*
X365Y48D01*
X370Y48D02*
X373Y48D01*
X385Y48D02*
X392Y48D01*
X0Y47D02*
X7Y47D01*
X17Y47D02*
X21Y47D01*
X43Y47D02*
X51Y47D01*
X59Y47D02*
X62Y47D01*
X75Y47D02*
X78Y47D01*
X84Y47D02*
X87Y47D01*
X114Y47D02*
X117Y47D01*
X125Y47D02*
X128Y47D01*
X146Y47D02*
X149Y47D01*
X239Y47D02*
X242Y47D01*
X250Y47D02*
X253Y47D01*
X265Y47D02*
X281Y47D01*
X304Y47D02*
X308Y47D01*
X330Y47D02*
X337Y47D01*
X345Y47D02*
X348Y47D01*
X362Y47D02*
X365Y47D01*
X370Y47D02*
X374Y47D01*
X385Y47D02*
X392Y47D01*
X0Y46D02*
X7Y46D01*
X17Y46D02*
X21Y46D01*
X43Y46D02*
X46Y46D01*
X48Y46D02*
X51Y46D01*
X59Y46D02*
X62Y46D01*
X75Y46D02*
X78Y46D01*
X84Y46D02*
X88Y46D01*
X114Y46D02*
X117Y46D01*
X125Y46D02*
X128Y46D01*
X146Y46D02*
X149Y46D01*
X239Y46D02*
X242Y46D01*
X251Y46D02*
X254Y46D01*
X264Y46D02*
X269Y46D01*
X278Y46D02*
X282Y46D01*
X303Y46D02*
X307Y46D01*
X330Y46D02*
X338Y46D01*
X345Y46D02*
X348Y46D01*
X362Y46D02*
X365Y46D01*
X371Y46D02*
X374Y46D01*
X385Y46D02*
X392Y46D01*
X0Y45D02*
X7Y45D01*
X16Y45D02*
X20Y45D01*
X43Y45D02*
X46Y45D01*
X48Y45D02*
X52Y45D01*
X59Y45D02*
X62Y45D01*
X75Y45D02*
X78Y45D01*
X85Y45D02*
X88Y45D01*
X114Y45D02*
X117Y45D01*
X125Y45D02*
X128Y45D01*
X146Y45D02*
X149Y45D01*
X239Y45D02*
X242Y45D01*
X251Y45D02*
X254Y45D01*
X264Y45D02*
X267Y45D01*
X279Y45D02*
X282Y45D01*
X302Y45D02*
X306Y45D01*
X330Y45D02*
X333Y45D01*
X335Y45D02*
X338Y45D01*
X345Y45D02*
X348Y45D01*
X362Y45D02*
X365Y45D01*
X371Y45D02*
X375Y45D01*
X385Y45D02*
X392Y45D01*
X0Y44D02*
X7Y44D01*
X15Y44D02*
X19Y44D01*
X43Y44D02*
X46Y44D01*
X49Y44D02*
X52Y44D01*
X59Y44D02*
X62Y44D01*
X75Y44D02*
X78Y44D01*
X85Y44D02*
X89Y44D01*
X114Y44D02*
X117Y44D01*
X125Y44D02*
X128Y44D01*
X146Y44D02*
X149Y44D01*
X239Y44D02*
X242Y44D01*
X251Y44D02*
X254Y44D01*
X264Y44D02*
X267Y44D01*
X279Y44D02*
X282Y44D01*
X302Y44D02*
X306Y44D01*
X330Y44D02*
X333Y44D01*
X335Y44D02*
X339Y44D01*
X345Y44D02*
X348Y44D01*
X362Y44D02*
X365Y44D01*
X372Y44D02*
X375Y44D01*
X385Y44D02*
X392Y44D01*
X0Y43D02*
X7Y43D01*
X15Y43D02*
X18Y43D01*
X43Y43D02*
X46Y43D01*
X49Y43D02*
X53Y43D01*
X59Y43D02*
X62Y43D01*
X75Y43D02*
X78Y43D01*
X86Y43D02*
X89Y43D01*
X114Y43D02*
X117Y43D01*
X125Y43D02*
X128Y43D01*
X146Y43D02*
X149Y43D01*
X239Y43D02*
X242Y43D01*
X251Y43D02*
X254Y43D01*
X264Y43D02*
X267Y43D01*
X279Y43D02*
X282Y43D01*
X302Y43D02*
X305Y43D01*
X330Y43D02*
X333Y43D01*
X336Y43D02*
X339Y43D01*
X345Y43D02*
X348Y43D01*
X362Y43D02*
X365Y43D01*
X372Y43D02*
X376Y43D01*
X385Y43D02*
X392Y43D01*
X0Y42D02*
X7Y42D01*
X15Y42D02*
X18Y42D01*
X43Y42D02*
X46Y42D01*
X50Y42D02*
X53Y42D01*
X59Y42D02*
X62Y42D01*
X75Y42D02*
X78Y42D01*
X86Y42D02*
X90Y42D01*
X114Y42D02*
X117Y42D01*
X125Y42D02*
X128Y42D01*
X146Y42D02*
X149Y42D01*
X239Y42D02*
X242Y42D01*
X251Y42D02*
X254Y42D01*
X264Y42D02*
X267Y42D01*
X279Y42D02*
X282Y42D01*
X301Y42D02*
X304Y42D01*
X330Y42D02*
X333Y42D01*
X336Y42D02*
X339Y42D01*
X345Y42D02*
X348Y42D01*
X362Y42D02*
X365Y42D01*
X373Y42D02*
X376Y42D01*
X385Y42D02*
X392Y42D01*
X0Y41D02*
X7Y41D01*
X15Y41D02*
X18Y41D01*
X43Y41D02*
X46Y41D01*
X50Y41D02*
X53Y41D01*
X59Y41D02*
X62Y41D01*
X75Y41D02*
X78Y41D01*
X87Y41D02*
X90Y41D01*
X114Y41D02*
X117Y41D01*
X124Y41D02*
X127Y41D01*
X146Y41D02*
X149Y41D01*
X239Y41D02*
X242Y41D01*
X250Y41D02*
X254Y41D01*
X264Y41D02*
X267Y41D01*
X279Y41D02*
X282Y41D01*
X301Y41D02*
X304Y41D01*
X330Y41D02*
X333Y41D01*
X337Y41D02*
X340Y41D01*
X345Y41D02*
X348Y41D01*
X362Y41D02*
X365Y41D01*
X373Y41D02*
X376Y41D01*
X385Y41D02*
X392Y41D01*
X0Y40D02*
X7Y40D01*
X15Y40D02*
X18Y40D01*
X43Y40D02*
X46Y40D01*
X50Y40D02*
X54Y40D01*
X59Y40D02*
X62Y40D01*
X75Y40D02*
X78Y40D01*
X87Y40D02*
X90Y40D01*
X114Y40D02*
X117Y40D01*
X124Y40D02*
X127Y40D01*
X146Y40D02*
X149Y40D01*
X239Y40D02*
X242Y40D01*
X250Y40D02*
X253Y40D01*
X264Y40D02*
X267Y40D01*
X279Y40D02*
X282Y40D01*
X301Y40D02*
X304Y40D01*
X330Y40D02*
X333Y40D01*
X337Y40D02*
X340Y40D01*
X345Y40D02*
X348Y40D01*
X362Y40D02*
X365Y40D01*
X373Y40D02*
X376Y40D01*
X385Y40D02*
X392Y40D01*
X0Y39D02*
X7Y39D01*
X15Y39D02*
X18Y39D01*
X43Y39D02*
X46Y39D01*
X51Y39D02*
X54Y39D01*
X59Y39D02*
X62Y39D01*
X75Y39D02*
X78Y39D01*
X87Y39D02*
X90Y39D01*
X114Y39D02*
X117Y39D01*
X123Y39D02*
X127Y39D01*
X146Y39D02*
X149Y39D01*
X239Y39D02*
X242Y39D01*
X249Y39D02*
X253Y39D01*
X264Y39D02*
X267Y39D01*
X279Y39D02*
X282Y39D01*
X301Y39D02*
X304Y39D01*
X330Y39D02*
X333Y39D01*
X337Y39D02*
X341Y39D01*
X345Y39D02*
X348Y39D01*
X362Y39D02*
X365Y39D01*
X373Y39D02*
X376Y39D01*
X385Y39D02*
X392Y39D01*
X0Y38D02*
X7Y38D01*
X15Y38D02*
X18Y38D01*
X25Y38D02*
X33Y38D01*
X43Y38D02*
X46Y38D01*
X51Y38D02*
X55Y38D01*
X59Y38D02*
X62Y38D01*
X75Y38D02*
X78Y38D01*
X87Y38D02*
X90Y38D01*
X114Y38D02*
X117Y38D01*
X123Y38D02*
X126Y38D01*
X146Y38D02*
X149Y38D01*
X239Y38D02*
X242Y38D01*
X249Y38D02*
X252Y38D01*
X264Y38D02*
X267Y38D01*
X279Y38D02*
X282Y38D01*
X301Y38D02*
X304Y38D01*
X312Y38D02*
X320Y38D01*
X330Y38D02*
X333Y38D01*
X338Y38D02*
X341Y38D01*
X345Y38D02*
X348Y38D01*
X362Y38D02*
X365Y38D01*
X373Y38D02*
X376Y38D01*
X385Y38D02*
X392Y38D01*
X0Y37D02*
X7Y37D01*
X15Y37D02*
X18Y37D01*
X25Y37D02*
X33Y37D01*
X43Y37D02*
X46Y37D01*
X52Y37D02*
X55Y37D01*
X59Y37D02*
X62Y37D01*
X75Y37D02*
X78Y37D01*
X86Y37D02*
X89Y37D01*
X114Y37D02*
X117Y37D01*
X122Y37D02*
X126Y37D01*
X146Y37D02*
X149Y37D01*
X239Y37D02*
X242Y37D01*
X248Y37D02*
X252Y37D01*
X264Y37D02*
X267Y37D01*
X279Y37D02*
X282Y37D01*
X301Y37D02*
X304Y37D01*
X311Y37D02*
X320Y37D01*
X330Y37D02*
X333Y37D01*
X338Y37D02*
X342Y37D01*
X345Y37D02*
X348Y37D01*
X362Y37D02*
X365Y37D01*
X373Y37D02*
X376Y37D01*
X385Y37D02*
X392Y37D01*
X0Y36D02*
X7Y36D01*
X15Y36D02*
X18Y36D01*
X25Y36D02*
X33Y36D01*
X43Y36D02*
X46Y36D01*
X52Y36D02*
X56Y36D01*
X59Y36D02*
X62Y36D01*
X75Y36D02*
X78Y36D01*
X86Y36D02*
X89Y36D01*
X114Y36D02*
X117Y36D01*
X122Y36D02*
X125Y36D01*
X146Y36D02*
X149Y36D01*
X239Y36D02*
X242Y36D01*
X248Y36D02*
X251Y36D01*
X264Y36D02*
X267Y36D01*
X279Y36D02*
X282Y36D01*
X301Y36D02*
X304Y36D01*
X311Y36D02*
X320Y36D01*
X330Y36D02*
X333Y36D01*
X339Y36D02*
X342Y36D01*
X345Y36D02*
X348Y36D01*
X362Y36D02*
X365Y36D01*
X372Y36D02*
X376Y36D01*
X385Y36D02*
X392Y36D01*
X0Y35D02*
X7Y35D01*
X15Y35D02*
X18Y35D01*
X25Y35D02*
X33Y35D01*
X43Y35D02*
X46Y35D01*
X53Y35D02*
X56Y35D01*
X59Y35D02*
X62Y35D01*
X75Y35D02*
X78Y35D01*
X85Y35D02*
X89Y35D01*
X114Y35D02*
X117Y35D01*
X121Y35D02*
X125Y35D01*
X146Y35D02*
X149Y35D01*
X239Y35D02*
X242Y35D01*
X247Y35D02*
X251Y35D01*
X264Y35D02*
X267Y35D01*
X279Y35D02*
X282Y35D01*
X301Y35D02*
X304Y35D01*
X312Y35D02*
X320Y35D01*
X330Y35D02*
X333Y35D01*
X339Y35D02*
X343Y35D01*
X345Y35D02*
X348Y35D01*
X362Y35D02*
X365Y35D01*
X372Y35D02*
X375Y35D01*
X385Y35D02*
X392Y35D01*
X0Y34D02*
X7Y34D01*
X15Y34D02*
X18Y34D01*
X30Y34D02*
X33Y34D01*
X43Y34D02*
X46Y34D01*
X53Y34D02*
X56Y34D01*
X59Y34D02*
X62Y34D01*
X75Y34D02*
X78Y34D01*
X85Y34D02*
X88Y34D01*
X114Y34D02*
X117Y34D01*
X120Y34D02*
X124Y34D01*
X146Y34D02*
X149Y34D01*
X239Y34D02*
X242Y34D01*
X247Y34D02*
X250Y34D01*
X264Y34D02*
X268Y34D01*
X279Y34D02*
X282Y34D01*
X301Y34D02*
X304Y34D01*
X317Y34D02*
X320Y34D01*
X330Y34D02*
X333Y34D01*
X340Y34D02*
X343Y34D01*
X345Y34D02*
X348Y34D01*
X362Y34D02*
X365Y34D01*
X371Y34D02*
X375Y34D01*
X385Y34D02*
X392Y34D01*
X0Y33D02*
X7Y33D01*
X15Y33D02*
X18Y33D01*
X30Y33D02*
X33Y33D01*
X43Y33D02*
X46Y33D01*
X54Y33D02*
X57Y33D01*
X59Y33D02*
X62Y33D01*
X75Y33D02*
X78Y33D01*
X84Y33D02*
X88Y33D01*
X111Y33D02*
X124Y33D01*
X141Y33D02*
X154Y33D01*
X239Y33D02*
X242Y33D01*
X246Y33D02*
X250Y33D01*
X264Y33D02*
X269Y33D01*
X278Y33D02*
X282Y33D01*
X301Y33D02*
X304Y33D01*
X317Y33D02*
X320Y33D01*
X330Y33D02*
X333Y33D01*
X340Y33D02*
X343Y33D01*
X345Y33D02*
X348Y33D01*
X362Y33D02*
X365Y33D01*
X371Y33D02*
X374Y33D01*
X385Y33D02*
X392Y33D01*
X0Y32D02*
X7Y32D01*
X15Y32D02*
X18Y32D01*
X30Y32D02*
X33Y32D01*
X43Y32D02*
X46Y32D01*
X54Y32D02*
X62Y32D01*
X75Y32D02*
X78Y32D01*
X84Y32D02*
X87Y32D01*
X110Y32D02*
X123Y32D01*
X140Y32D02*
X155Y32D01*
X236Y32D02*
X249Y32D01*
X265Y32D02*
X281Y32D01*
X301Y32D02*
X304Y32D01*
X317Y32D02*
X320Y32D01*
X330Y32D02*
X333Y32D01*
X341Y32D02*
X348Y32D01*
X362Y32D02*
X365Y32D01*
X370Y32D02*
X374Y32D01*
X385Y32D02*
X392Y32D01*
X0Y31D02*
X7Y31D01*
X15Y31D02*
X18Y31D01*
X30Y31D02*
X33Y31D01*
X43Y31D02*
X46Y31D01*
X54Y31D02*
X62Y31D01*
X75Y31D02*
X78Y31D01*
X83Y31D02*
X87Y31D01*
X110Y31D02*
X122Y31D01*
X140Y31D02*
X155Y31D01*
X236Y31D02*
X249Y31D01*
X266Y31D02*
X280Y31D01*
X301Y31D02*
X304Y31D01*
X317Y31D02*
X320Y31D01*
X330Y31D02*
X333Y31D01*
X341Y31D02*
X348Y31D01*
X362Y31D02*
X365Y31D01*
X370Y31D02*
X373Y31D01*
X385Y31D02*
X392Y31D01*
X0Y30D02*
X7Y30D01*
X15Y30D02*
X18Y30D01*
X30Y30D02*
X33Y30D01*
X43Y30D02*
X46Y30D01*
X55Y30D02*
X62Y30D01*
X75Y30D02*
X78Y30D01*
X83Y30D02*
X86Y30D01*
X110Y30D02*
X120Y30D01*
X141Y30D02*
X154Y30D01*
X236Y30D02*
X248Y30D01*
X267Y30D02*
X279Y30D01*
X301Y30D02*
X304Y30D01*
X317Y30D02*
X320Y30D01*
X330Y30D02*
X333Y30D01*
X341Y30D02*
X348Y30D01*
X362Y30D02*
X365Y30D01*
X369Y30D02*
X373Y30D01*
X385Y30D02*
X392Y30D01*
X0Y29D02*
X7Y29D01*
X15Y29D02*
X18Y29D01*
X30Y29D02*
X33Y29D01*
X43Y29D02*
X46Y29D01*
X55Y29D02*
X62Y29D01*
X75Y29D02*
X78Y29D01*
X82Y29D02*
X86Y29D01*
X236Y29D02*
X246Y29D01*
X269Y29D02*
X278Y29D01*
X301Y29D02*
X305Y29D01*
X316Y29D02*
X320Y29D01*
X330Y29D02*
X333Y29D01*
X342Y29D02*
X348Y29D01*
X362Y29D02*
X365Y29D01*
X369Y29D02*
X372Y29D01*
X385Y29D02*
X392Y29D01*
X0Y28D02*
X7Y28D01*
X15Y28D02*
X33Y28D01*
X43Y28D02*
X46Y28D01*
X56Y28D02*
X62Y28D01*
X72Y28D02*
X85Y28D01*
X302Y28D02*
X319Y28D01*
X330Y28D02*
X333Y28D01*
X342Y28D02*
X348Y28D01*
X359Y28D02*
X372Y28D01*
X385Y28D02*
X392Y28D01*
X0Y27D02*
X7Y27D01*
X16Y27D02*
X32Y27D01*
X43Y27D02*
X46Y27D01*
X56Y27D02*
X62Y27D01*
X71Y27D02*
X85Y27D01*
X302Y27D02*
X319Y27D01*
X330Y27D02*
X333Y27D01*
X343Y27D02*
X348Y27D01*
X358Y27D02*
X371Y27D01*
X385Y27D02*
X392Y27D01*
X0Y26D02*
X7Y26D01*
X17Y26D02*
X31Y26D01*
X43Y26D02*
X46Y26D01*
X57Y26D02*
X62Y26D01*
X71Y26D02*
X84Y26D01*
X303Y26D02*
X318Y26D01*
X330Y26D02*
X332Y26D01*
X343Y26D02*
X348Y26D01*
X358Y26D02*
X370Y26D01*
X385Y26D02*
X392Y26D01*
X0Y25D02*
X7Y25D01*
X18Y25D02*
X30Y25D01*
X44Y25D02*
X45Y25D01*
X57Y25D02*
X62Y25D01*
X72Y25D02*
X82Y25D01*
X305Y25D02*
X316Y25D01*
X330Y25D02*
X332Y25D01*
X344Y25D02*
X348Y25D01*
X358Y25D02*
X369Y25D01*
X385Y25D02*
X392Y25D01*
X0Y24D02*
X7Y24D01*
X385Y24D02*
X392Y24D01*
X0Y23D02*
X7Y23D01*
X385Y23D02*
X392Y23D01*
X0Y22D02*
X7Y22D01*
X385Y22D02*
X392Y22D01*
X0Y21D02*
X7Y21D01*
X385Y21D02*
X392Y21D01*
X0Y20D02*
X7Y20D01*
X385Y20D02*
X392Y20D01*
X0Y19D02*
X7Y19D01*
X385Y19D02*
X392Y19D01*
X0Y18D02*
X7Y18D01*
X385Y18D02*
X392Y18D01*
X0Y17D02*
X7Y17D01*
X385Y17D02*
X392Y17D01*
X0Y16D02*
X7Y16D01*
X385Y16D02*
X392Y16D01*
X0Y15D02*
X7Y15D01*
X385Y15D02*
X392Y15D01*
X0Y14D02*
X7Y14D01*
X385Y14D02*
X392Y14D01*
X0Y13D02*
X7Y13D01*
X385Y13D02*
X392Y13D01*
X0Y12D02*
X7Y12D01*
X385Y12D02*
X392Y12D01*
X0Y11D02*
X7Y11D01*
X385Y11D02*
X392Y11D01*
X0Y10D02*
X7Y10D01*
X385Y10D02*
X392Y10D01*
X0Y9D02*
X392Y9D01*
X0Y8D02*
X392Y8D01*
X0Y7D02*
X392Y7D01*
X0Y6D02*
X392Y6D01*
X0Y5D02*
X392Y5D01*
X0Y4D02*
X392Y4D01*
X0Y3D02*
X392Y3D01*
X0Y2D02*
X392Y2D01*
D02*
G04 End of Silk1*
M02*