G04 MADE WITH FRITZING*
G04 WWW.FRITZING.ORG*
G04 DOUBLE SIDED*
G04 HOLES PLATED*
G04 CONTOUR ON CENTER OF CONTOUR VECTOR*
%ASAXBY*%
%FSLAX23Y23*%
%MOIN*%
%OFA0B0*%
%SFA1.0B1.0*%
%ADD10C,0.006000*%
%ADD11R,0.001000X0.001000*%
%LNSILK0*%
G90*
G70*
G54D10*
X211Y61D02*
X187Y61D01*
D02*
X211Y14D02*
X187Y14D01*
X219Y355D02*
X203Y365D01*
X210Y369D01*
X236Y352D01*
X210Y335D01*
X203Y339D01*
X219Y349D01*
X157Y349D01*
X157Y355D01*
X219Y355D01*
D02*
G54D11*
X0Y394D02*
X392Y394D01*
X0Y393D02*
X392Y393D01*
X0Y392D02*
X392Y392D01*
X0Y391D02*
X392Y391D01*
X0Y390D02*
X392Y390D01*
X0Y389D02*
X392Y389D01*
X0Y388D02*
X392Y388D01*
X0Y387D02*
X392Y387D01*
X0Y386D02*
X7Y386D01*
X385Y386D02*
X392Y386D01*
X0Y385D02*
X7Y385D01*
X385Y385D02*
X392Y385D01*
X0Y384D02*
X7Y384D01*
X385Y384D02*
X392Y384D01*
X0Y383D02*
X7Y383D01*
X385Y383D02*
X392Y383D01*
X0Y382D02*
X7Y382D01*
X385Y382D02*
X392Y382D01*
X0Y381D02*
X7Y381D01*
X385Y381D02*
X392Y381D01*
X0Y380D02*
X7Y380D01*
X385Y380D02*
X392Y380D01*
X0Y379D02*
X7Y379D01*
X385Y379D02*
X392Y379D01*
X0Y378D02*
X7Y378D01*
X385Y378D02*
X392Y378D01*
X0Y377D02*
X7Y377D01*
X385Y377D02*
X392Y377D01*
X0Y376D02*
X7Y376D01*
X385Y376D02*
X392Y376D01*
X0Y375D02*
X7Y375D01*
X54Y375D02*
X56Y375D01*
X385Y375D02*
X392Y375D01*
X0Y374D02*
X7Y374D01*
X53Y374D02*
X58Y374D01*
X385Y374D02*
X392Y374D01*
X0Y373D02*
X7Y373D01*
X53Y373D02*
X58Y373D01*
X74Y373D02*
X75Y373D01*
X90Y373D02*
X91Y373D01*
X339Y373D02*
X342Y373D01*
X385Y373D02*
X392Y373D01*
X0Y372D02*
X7Y372D01*
X53Y372D02*
X58Y372D01*
X73Y372D02*
X76Y372D01*
X89Y372D02*
X92Y372D01*
X338Y372D02*
X343Y372D01*
X385Y372D02*
X392Y372D01*
X0Y371D02*
X7Y371D01*
X53Y371D02*
X58Y371D01*
X73Y371D02*
X76Y371D01*
X89Y371D02*
X92Y371D01*
X338Y371D02*
X343Y371D01*
X359Y371D02*
X361Y371D01*
X374Y371D02*
X377Y371D01*
X385Y371D02*
X392Y371D01*
X0Y370D02*
X7Y370D01*
X54Y370D02*
X57Y370D01*
X73Y370D02*
X76Y370D01*
X89Y370D02*
X92Y370D01*
X117Y370D02*
X121Y370D01*
X274Y370D02*
X285Y370D01*
X338Y370D02*
X343Y370D01*
X358Y370D02*
X361Y370D01*
X374Y370D02*
X377Y370D01*
X385Y370D02*
X392Y370D01*
X0Y369D02*
X7Y369D01*
X73Y369D02*
X76Y369D01*
X89Y369D02*
X92Y369D01*
X117Y369D02*
X121Y369D01*
X147Y369D02*
X154Y369D01*
X273Y369D02*
X285Y369D01*
X338Y369D02*
X343Y369D01*
X358Y369D02*
X361Y369D01*
X374Y369D02*
X377Y369D01*
X385Y369D02*
X392Y369D01*
X0Y368D02*
X7Y368D01*
X73Y368D02*
X76Y368D01*
X89Y368D02*
X92Y368D01*
X117Y368D02*
X122Y368D01*
X144Y368D02*
X155Y368D01*
X272Y368D02*
X285Y368D01*
X340Y368D02*
X340Y368D01*
X358Y368D02*
X361Y368D01*
X374Y368D02*
X377Y368D01*
X385Y368D02*
X392Y368D01*
X0Y367D02*
X7Y367D01*
X73Y367D02*
X76Y367D01*
X89Y367D02*
X92Y367D01*
X117Y367D02*
X121Y367D01*
X143Y367D02*
X156Y367D01*
X271Y367D02*
X283Y367D01*
X358Y367D02*
X361Y367D01*
X374Y367D02*
X377Y367D01*
X385Y367D02*
X392Y367D01*
X0Y366D02*
X7Y366D01*
X73Y366D02*
X76Y366D01*
X89Y366D02*
X92Y366D01*
X117Y366D02*
X121Y366D01*
X142Y366D02*
X155Y366D01*
X271Y366D02*
X274Y366D01*
X278Y366D02*
X281Y366D01*
X358Y366D02*
X361Y366D01*
X374Y366D02*
X377Y366D01*
X385Y366D02*
X392Y366D01*
X0Y365D02*
X7Y365D01*
X22Y365D02*
X25Y365D01*
X34Y365D02*
X34Y365D01*
X54Y365D02*
X60Y365D01*
X73Y365D02*
X76Y365D01*
X89Y365D02*
X92Y365D01*
X142Y365D02*
X146Y365D01*
X148Y365D02*
X152Y365D01*
X270Y365D02*
X274Y365D01*
X278Y365D02*
X281Y365D01*
X358Y365D02*
X361Y365D01*
X374Y365D02*
X377Y365D01*
X385Y365D02*
X392Y365D01*
X0Y364D02*
X7Y364D01*
X20Y364D02*
X28Y364D01*
X33Y364D02*
X35Y364D01*
X53Y364D02*
X61Y364D01*
X73Y364D02*
X77Y364D01*
X89Y364D02*
X92Y364D01*
X141Y364D02*
X145Y364D01*
X149Y364D02*
X152Y364D01*
X270Y364D02*
X273Y364D01*
X278Y364D02*
X281Y364D01*
X358Y364D02*
X361Y364D01*
X374Y364D02*
X377Y364D01*
X385Y364D02*
X392Y364D01*
X0Y363D02*
X7Y363D01*
X19Y363D02*
X29Y363D01*
X32Y363D02*
X35Y363D01*
X53Y363D02*
X62Y363D01*
X74Y363D02*
X77Y363D01*
X88Y363D02*
X91Y363D01*
X141Y363D02*
X144Y363D01*
X149Y363D02*
X152Y363D01*
X269Y363D02*
X273Y363D01*
X278Y363D02*
X281Y363D01*
X306Y363D02*
X312Y363D01*
X318Y363D02*
X320Y363D01*
X339Y363D02*
X346Y363D01*
X358Y363D02*
X362Y363D01*
X374Y363D02*
X377Y363D01*
X385Y363D02*
X392Y363D01*
X0Y362D02*
X7Y362D01*
X18Y362D02*
X35Y362D01*
X53Y362D02*
X61Y362D01*
X74Y362D02*
X78Y362D01*
X88Y362D02*
X91Y362D01*
X140Y362D02*
X144Y362D01*
X149Y362D02*
X152Y362D01*
X243Y362D02*
X252Y362D01*
X269Y362D02*
X272Y362D01*
X278Y362D02*
X281Y362D01*
X304Y362D02*
X314Y362D01*
X318Y362D02*
X320Y362D01*
X338Y362D02*
X347Y362D01*
X359Y362D02*
X362Y362D01*
X373Y362D02*
X377Y362D01*
X385Y362D02*
X392Y362D01*
X0Y361D02*
X7Y361D01*
X18Y361D02*
X22Y361D01*
X26Y361D02*
X35Y361D01*
X53Y361D02*
X56Y361D01*
X75Y361D02*
X78Y361D01*
X87Y361D02*
X91Y361D01*
X140Y361D02*
X143Y361D01*
X149Y361D02*
X152Y361D01*
X242Y361D02*
X253Y361D01*
X268Y361D02*
X272Y361D01*
X278Y361D02*
X281Y361D01*
X303Y361D02*
X315Y361D01*
X317Y361D02*
X320Y361D01*
X338Y361D02*
X347Y361D01*
X359Y361D02*
X362Y361D01*
X373Y361D02*
X376Y361D01*
X385Y361D02*
X392Y361D01*
X0Y360D02*
X7Y360D01*
X17Y360D02*
X21Y360D01*
X28Y360D02*
X35Y360D01*
X53Y360D02*
X56Y360D01*
X75Y360D02*
X78Y360D01*
X87Y360D02*
X90Y360D01*
X117Y360D02*
X125Y360D01*
X139Y360D02*
X143Y360D01*
X149Y360D02*
X152Y360D01*
X240Y360D02*
X255Y360D01*
X268Y360D02*
X271Y360D01*
X278Y360D02*
X281Y360D01*
X303Y360D02*
X320Y360D01*
X338Y360D02*
X346Y360D01*
X360Y360D02*
X363Y360D01*
X373Y360D02*
X376Y360D01*
X385Y360D02*
X392Y360D01*
X0Y359D02*
X7Y359D01*
X17Y359D02*
X20Y359D01*
X29Y359D02*
X35Y359D01*
X53Y359D02*
X56Y359D01*
X75Y359D02*
X79Y359D01*
X87Y359D02*
X90Y359D01*
X117Y359D02*
X125Y359D01*
X139Y359D02*
X142Y359D01*
X149Y359D02*
X152Y359D01*
X239Y359D02*
X255Y359D01*
X267Y359D02*
X271Y359D01*
X278Y359D02*
X281Y359D01*
X303Y359D02*
X306Y359D01*
X312Y359D02*
X320Y359D01*
X338Y359D02*
X341Y359D01*
X360Y359D02*
X363Y359D01*
X372Y359D02*
X375Y359D01*
X385Y359D02*
X392Y359D01*
X0Y358D02*
X7Y358D01*
X17Y358D02*
X20Y358D01*
X31Y358D02*
X35Y358D01*
X53Y358D02*
X56Y358D01*
X76Y358D02*
X79Y358D01*
X86Y358D02*
X89Y358D01*
X117Y358D02*
X125Y358D01*
X138Y358D02*
X142Y358D01*
X149Y358D02*
X152Y358D01*
X239Y358D02*
X243Y358D01*
X252Y358D02*
X256Y358D01*
X267Y358D02*
X270Y358D01*
X278Y358D02*
X281Y358D01*
X302Y358D02*
X305Y358D01*
X314Y358D02*
X320Y358D01*
X338Y358D02*
X341Y358D01*
X360Y358D02*
X364Y358D01*
X372Y358D02*
X375Y358D01*
X385Y358D02*
X392Y358D01*
X0Y357D02*
X7Y357D01*
X17Y357D02*
X20Y357D01*
X32Y357D02*
X35Y357D01*
X53Y357D02*
X56Y357D01*
X76Y357D02*
X80Y357D01*
X86Y357D02*
X89Y357D01*
X117Y357D02*
X124Y357D01*
X138Y357D02*
X141Y357D01*
X149Y357D02*
X152Y357D01*
X238Y357D02*
X242Y357D01*
X253Y357D02*
X256Y357D01*
X267Y357D02*
X270Y357D01*
X278Y357D02*
X281Y357D01*
X302Y357D02*
X305Y357D01*
X315Y357D02*
X320Y357D01*
X338Y357D02*
X341Y357D01*
X361Y357D02*
X364Y357D01*
X371Y357D02*
X375Y357D01*
X385Y357D02*
X392Y357D01*
X0Y356D02*
X7Y356D01*
X17Y356D02*
X20Y356D01*
X32Y356D02*
X35Y356D01*
X53Y356D02*
X56Y356D01*
X77Y356D02*
X80Y356D01*
X85Y356D02*
X89Y356D01*
X117Y356D02*
X120Y356D01*
X137Y356D02*
X141Y356D01*
X149Y356D02*
X152Y356D01*
X238Y356D02*
X241Y356D01*
X254Y356D02*
X257Y356D01*
X267Y356D02*
X269Y356D01*
X278Y356D02*
X281Y356D01*
X302Y356D02*
X305Y356D01*
X317Y356D02*
X320Y356D01*
X338Y356D02*
X341Y356D01*
X361Y356D02*
X364Y356D01*
X371Y356D02*
X374Y356D01*
X385Y356D02*
X392Y356D01*
X0Y355D02*
X7Y355D01*
X17Y355D02*
X20Y355D01*
X32Y355D02*
X35Y355D01*
X53Y355D02*
X56Y355D01*
X77Y355D02*
X80Y355D01*
X85Y355D02*
X88Y355D01*
X117Y355D02*
X120Y355D01*
X137Y355D02*
X140Y355D01*
X149Y355D02*
X152Y355D01*
X238Y355D02*
X241Y355D01*
X254Y355D02*
X257Y355D01*
X267Y355D02*
X270Y355D01*
X278Y355D02*
X281Y355D01*
X302Y355D02*
X305Y355D01*
X317Y355D02*
X320Y355D01*
X338Y355D02*
X341Y355D01*
X362Y355D02*
X365Y355D01*
X371Y355D02*
X374Y355D01*
X385Y355D02*
X392Y355D01*
X0Y354D02*
X7Y354D01*
X17Y354D02*
X20Y354D01*
X32Y354D02*
X35Y354D01*
X53Y354D02*
X56Y354D01*
X77Y354D02*
X81Y354D01*
X85Y354D02*
X88Y354D01*
X117Y354D02*
X120Y354D01*
X137Y354D02*
X140Y354D01*
X149Y354D02*
X152Y354D01*
X238Y354D02*
X241Y354D01*
X254Y354D02*
X257Y354D01*
X267Y354D02*
X270Y354D01*
X278Y354D02*
X281Y354D01*
X302Y354D02*
X305Y354D01*
X317Y354D02*
X320Y354D01*
X338Y354D02*
X341Y354D01*
X362Y354D02*
X365Y354D01*
X370Y354D02*
X374Y354D01*
X385Y354D02*
X392Y354D01*
X0Y353D02*
X7Y353D01*
X17Y353D02*
X20Y353D01*
X32Y353D02*
X35Y353D01*
X53Y353D02*
X56Y353D01*
X78Y353D02*
X81Y353D01*
X84Y353D02*
X88Y353D01*
X117Y353D02*
X120Y353D01*
X137Y353D02*
X140Y353D01*
X149Y353D02*
X152Y353D01*
X238Y353D02*
X241Y353D01*
X254Y353D02*
X257Y353D01*
X267Y353D02*
X270Y353D01*
X278Y353D02*
X281Y353D01*
X302Y353D02*
X305Y353D01*
X317Y353D02*
X320Y353D01*
X338Y353D02*
X341Y353D01*
X362Y353D02*
X366Y353D01*
X370Y353D02*
X373Y353D01*
X385Y353D02*
X392Y353D01*
X0Y352D02*
X7Y352D01*
X17Y352D02*
X20Y352D01*
X32Y352D02*
X35Y352D01*
X53Y352D02*
X56Y352D01*
X78Y352D02*
X81Y352D01*
X84Y352D02*
X87Y352D01*
X117Y352D02*
X120Y352D01*
X137Y352D02*
X140Y352D01*
X149Y352D02*
X152Y352D01*
X238Y352D02*
X241Y352D01*
X254Y352D02*
X257Y352D01*
X267Y352D02*
X271Y352D01*
X278Y352D02*
X281Y352D01*
X302Y352D02*
X305Y352D01*
X317Y352D02*
X320Y352D01*
X338Y352D02*
X341Y352D01*
X363Y352D02*
X366Y352D01*
X369Y352D02*
X373Y352D01*
X385Y352D02*
X392Y352D01*
X0Y351D02*
X7Y351D01*
X17Y351D02*
X20Y351D01*
X32Y351D02*
X35Y351D01*
X53Y351D02*
X56Y351D01*
X79Y351D02*
X87Y351D01*
X117Y351D02*
X120Y351D01*
X138Y351D02*
X141Y351D01*
X149Y351D02*
X152Y351D01*
X238Y351D02*
X241Y351D01*
X254Y351D02*
X257Y351D01*
X268Y351D02*
X271Y351D01*
X278Y351D02*
X281Y351D01*
X302Y351D02*
X305Y351D01*
X317Y351D02*
X320Y351D01*
X338Y351D02*
X341Y351D01*
X363Y351D02*
X366Y351D01*
X369Y351D02*
X372Y351D01*
X385Y351D02*
X392Y351D01*
X0Y350D02*
X7Y350D01*
X17Y350D02*
X20Y350D01*
X32Y350D02*
X35Y350D01*
X53Y350D02*
X56Y350D01*
X79Y350D02*
X86Y350D01*
X117Y350D02*
X120Y350D01*
X138Y350D02*
X141Y350D01*
X149Y350D02*
X152Y350D01*
X238Y350D02*
X241Y350D01*
X254Y350D02*
X257Y350D01*
X268Y350D02*
X272Y350D01*
X278Y350D02*
X281Y350D01*
X302Y350D02*
X305Y350D01*
X317Y350D02*
X320Y350D01*
X338Y350D02*
X341Y350D01*
X363Y350D02*
X367Y350D01*
X369Y350D02*
X372Y350D01*
X385Y350D02*
X392Y350D01*
X0Y349D02*
X7Y349D01*
X17Y349D02*
X20Y349D01*
X32Y349D02*
X35Y349D01*
X53Y349D02*
X56Y349D01*
X79Y349D02*
X86Y349D01*
X117Y349D02*
X120Y349D01*
X138Y349D02*
X142Y349D01*
X149Y349D02*
X152Y349D01*
X238Y349D02*
X241Y349D01*
X254Y349D02*
X257Y349D01*
X269Y349D02*
X272Y349D01*
X278Y349D02*
X281Y349D01*
X302Y349D02*
X305Y349D01*
X317Y349D02*
X320Y349D01*
X338Y349D02*
X341Y349D01*
X364Y349D02*
X372Y349D01*
X385Y349D02*
X392Y349D01*
X0Y348D02*
X7Y348D01*
X17Y348D02*
X20Y348D01*
X32Y348D02*
X35Y348D01*
X53Y348D02*
X56Y348D01*
X80Y348D02*
X86Y348D01*
X117Y348D02*
X120Y348D01*
X139Y348D02*
X142Y348D01*
X149Y348D02*
X152Y348D01*
X238Y348D02*
X241Y348D01*
X254Y348D02*
X257Y348D01*
X269Y348D02*
X273Y348D01*
X278Y348D02*
X281Y348D01*
X302Y348D02*
X305Y348D01*
X317Y348D02*
X320Y348D01*
X338Y348D02*
X341Y348D01*
X364Y348D02*
X371Y348D01*
X385Y348D02*
X392Y348D01*
X0Y347D02*
X7Y347D01*
X17Y347D02*
X20Y347D01*
X32Y347D02*
X35Y347D01*
X53Y347D02*
X56Y347D01*
X80Y347D02*
X85Y347D01*
X117Y347D02*
X120Y347D01*
X139Y347D02*
X143Y347D01*
X149Y347D02*
X152Y347D01*
X238Y347D02*
X241Y347D01*
X254Y347D02*
X257Y347D01*
X270Y347D02*
X273Y347D01*
X278Y347D02*
X281Y347D01*
X302Y347D02*
X305Y347D01*
X317Y347D02*
X320Y347D01*
X338Y347D02*
X341Y347D01*
X365Y347D02*
X371Y347D01*
X385Y347D02*
X392Y347D01*
X0Y346D02*
X7Y346D01*
X17Y346D02*
X20Y346D01*
X32Y346D02*
X35Y346D01*
X48Y346D02*
X61Y346D01*
X81Y346D02*
X85Y346D01*
X117Y346D02*
X120Y346D01*
X140Y346D02*
X143Y346D01*
X149Y346D02*
X152Y346D01*
X238Y346D02*
X242Y346D01*
X253Y346D02*
X257Y346D01*
X270Y346D02*
X274Y346D01*
X278Y346D02*
X281Y346D01*
X302Y346D02*
X305Y346D01*
X317Y346D02*
X320Y346D01*
X338Y346D02*
X341Y346D01*
X365Y346D02*
X370Y346D01*
X385Y346D02*
X392Y346D01*
X0Y345D02*
X7Y345D01*
X17Y345D02*
X20Y345D01*
X32Y345D02*
X35Y345D01*
X47Y345D02*
X62Y345D01*
X81Y345D02*
X84Y345D01*
X117Y345D02*
X120Y345D01*
X140Y345D02*
X144Y345D01*
X149Y345D02*
X152Y345D01*
X239Y345D02*
X243Y345D01*
X252Y345D02*
X256Y345D01*
X271Y345D02*
X274Y345D01*
X278Y345D02*
X281Y345D01*
X302Y345D02*
X305Y345D01*
X317Y345D02*
X320Y345D01*
X333Y345D02*
X346Y345D01*
X365Y345D02*
X370Y345D01*
X385Y345D02*
X392Y345D01*
X0Y344D02*
X7Y344D01*
X17Y344D02*
X20Y344D01*
X33Y344D02*
X35Y344D01*
X47Y344D02*
X61Y344D01*
X81Y344D02*
X84Y344D01*
X117Y344D02*
X120Y344D01*
X141Y344D02*
X144Y344D01*
X149Y344D02*
X152Y344D01*
X239Y344D02*
X256Y344D01*
X271Y344D02*
X284Y344D01*
X302Y344D02*
X305Y344D01*
X317Y344D02*
X320Y344D01*
X332Y344D02*
X347Y344D01*
X366Y344D02*
X370Y344D01*
X385Y344D02*
X392Y344D01*
X0Y343D02*
X7Y343D01*
X18Y343D02*
X19Y343D01*
X34Y343D02*
X34Y343D01*
X48Y343D02*
X48Y343D01*
X58Y343D02*
X61Y343D01*
X82Y343D02*
X83Y343D01*
X117Y343D02*
X120Y343D01*
X141Y343D02*
X145Y343D01*
X149Y343D02*
X152Y343D01*
X240Y343D02*
X255Y343D01*
X272Y343D02*
X285Y343D01*
X302Y343D02*
X305Y343D01*
X318Y343D02*
X320Y343D01*
X332Y343D02*
X347Y343D01*
X366Y343D02*
X369Y343D01*
X385Y343D02*
X392Y343D01*
X0Y342D02*
X7Y342D01*
X112Y342D02*
X124Y342D01*
X142Y342D02*
X155Y342D01*
X241Y342D02*
X254Y342D01*
X273Y342D02*
X285Y342D01*
X302Y342D02*
X304Y342D01*
X318Y342D02*
X320Y342D01*
X333Y342D02*
X333Y342D01*
X367Y342D02*
X369Y342D01*
X385Y342D02*
X392Y342D01*
X0Y341D02*
X7Y341D01*
X111Y341D02*
X125Y341D01*
X142Y341D02*
X155Y341D01*
X243Y341D02*
X252Y341D01*
X274Y341D02*
X285Y341D01*
X385Y341D02*
X392Y341D01*
X0Y340D02*
X7Y340D01*
X111Y340D02*
X125Y340D01*
X143Y340D02*
X156Y340D01*
X385Y340D02*
X392Y340D01*
X0Y339D02*
X7Y339D01*
X111Y339D02*
X125Y339D01*
X145Y339D02*
X155Y339D01*
X385Y339D02*
X392Y339D01*
X0Y338D02*
X7Y338D01*
X385Y338D02*
X392Y338D01*
X0Y337D02*
X7Y337D01*
X385Y337D02*
X392Y337D01*
X0Y336D02*
X7Y336D01*
X385Y336D02*
X392Y336D01*
X0Y335D02*
X7Y335D01*
X385Y335D02*
X392Y335D01*
X0Y334D02*
X7Y334D01*
X385Y334D02*
X392Y334D01*
X0Y333D02*
X7Y333D01*
X385Y333D02*
X392Y333D01*
X0Y332D02*
X7Y332D01*
X385Y332D02*
X392Y332D01*
X0Y331D02*
X7Y331D01*
X385Y331D02*
X392Y331D01*
X0Y330D02*
X7Y330D01*
X385Y330D02*
X392Y330D01*
X0Y329D02*
X7Y329D01*
X385Y329D02*
X392Y329D01*
X0Y328D02*
X7Y328D01*
X385Y328D02*
X392Y328D01*
X0Y327D02*
X7Y327D01*
X385Y327D02*
X392Y327D01*
X0Y326D02*
X7Y326D01*
X385Y326D02*
X392Y326D01*
X0Y325D02*
X7Y325D01*
X385Y325D02*
X392Y325D01*
X0Y324D02*
X7Y324D01*
X385Y324D02*
X392Y324D01*
X0Y323D02*
X7Y323D01*
X385Y323D02*
X392Y323D01*
X0Y322D02*
X7Y322D01*
X385Y322D02*
X392Y322D01*
X0Y321D02*
X7Y321D01*
X385Y321D02*
X392Y321D01*
X0Y320D02*
X7Y320D01*
X385Y320D02*
X392Y320D01*
X0Y319D02*
X7Y319D01*
X385Y319D02*
X392Y319D01*
X0Y318D02*
X7Y318D01*
X385Y318D02*
X392Y318D01*
X0Y317D02*
X7Y317D01*
X385Y317D02*
X392Y317D01*
X0Y316D02*
X7Y316D01*
X385Y316D02*
X392Y316D01*
X0Y315D02*
X7Y315D01*
X385Y315D02*
X392Y315D01*
X0Y314D02*
X7Y314D01*
X385Y314D02*
X392Y314D01*
X0Y313D02*
X7Y313D01*
X385Y313D02*
X392Y313D01*
X0Y312D02*
X7Y312D01*
X385Y312D02*
X392Y312D01*
X0Y311D02*
X7Y311D01*
X385Y311D02*
X392Y311D01*
X0Y310D02*
X7Y310D01*
X385Y310D02*
X392Y310D01*
X0Y309D02*
X7Y309D01*
X385Y309D02*
X392Y309D01*
X0Y308D02*
X7Y308D01*
X385Y308D02*
X392Y308D01*
X0Y307D02*
X7Y307D01*
X386Y307D02*
X392Y307D01*
X0Y306D02*
X7Y306D01*
X386Y306D02*
X392Y306D01*
X0Y305D02*
X7Y305D01*
X386Y305D02*
X392Y305D01*
X0Y304D02*
X7Y304D01*
X386Y304D02*
X392Y304D01*
X0Y303D02*
X7Y303D01*
X386Y303D02*
X392Y303D01*
X0Y302D02*
X7Y302D01*
X98Y302D02*
X110Y302D01*
X161Y302D02*
X239Y302D01*
X290Y302D02*
X296Y302D01*
X386Y302D02*
X392Y302D01*
X0Y301D02*
X7Y301D01*
X98Y301D02*
X110Y301D01*
X161Y301D02*
X239Y301D01*
X290Y301D02*
X296Y301D01*
X386Y301D02*
X392Y301D01*
X0Y300D02*
X7Y300D01*
X98Y300D02*
X110Y300D01*
X161Y300D02*
X239Y300D01*
X290Y300D02*
X296Y300D01*
X386Y300D02*
X392Y300D01*
X0Y299D02*
X7Y299D01*
X98Y299D02*
X110Y299D01*
X161Y299D02*
X239Y299D01*
X290Y299D02*
X296Y299D01*
X386Y299D02*
X392Y299D01*
X0Y298D02*
X7Y298D01*
X98Y298D02*
X110Y298D01*
X161Y298D02*
X239Y298D01*
X290Y298D02*
X296Y298D01*
X386Y298D02*
X392Y298D01*
X0Y297D02*
X7Y297D01*
X98Y297D02*
X110Y297D01*
X161Y297D02*
X239Y297D01*
X290Y297D02*
X296Y297D01*
X386Y297D02*
X392Y297D01*
X0Y296D02*
X7Y296D01*
X98Y296D02*
X109Y296D01*
X161Y296D02*
X239Y296D01*
X290Y296D02*
X296Y296D01*
X386Y296D02*
X392Y296D01*
X0Y295D02*
X7Y295D01*
X98Y295D02*
X103Y295D01*
X290Y295D02*
X296Y295D01*
X386Y295D02*
X392Y295D01*
X0Y294D02*
X7Y294D01*
X98Y294D02*
X103Y294D01*
X291Y294D02*
X297Y294D01*
X386Y294D02*
X392Y294D01*
X0Y293D02*
X7Y293D01*
X97Y293D02*
X103Y293D01*
X291Y293D02*
X297Y293D01*
X386Y293D02*
X392Y293D01*
X0Y292D02*
X7Y292D01*
X97Y292D02*
X103Y292D01*
X291Y292D02*
X297Y292D01*
X386Y292D02*
X392Y292D01*
X0Y291D02*
X7Y291D01*
X97Y291D02*
X103Y291D01*
X291Y291D02*
X297Y291D01*
X386Y291D02*
X392Y291D01*
X0Y290D02*
X7Y290D01*
X97Y290D02*
X103Y290D01*
X291Y290D02*
X297Y290D01*
X386Y290D02*
X392Y290D01*
X0Y289D02*
X7Y289D01*
X97Y289D02*
X103Y289D01*
X291Y289D02*
X297Y289D01*
X385Y289D02*
X392Y289D01*
X0Y288D02*
X7Y288D01*
X97Y288D02*
X103Y288D01*
X291Y288D02*
X297Y288D01*
X385Y288D02*
X392Y288D01*
X0Y287D02*
X7Y287D01*
X97Y287D02*
X103Y287D01*
X291Y287D02*
X297Y287D01*
X385Y287D02*
X392Y287D01*
X0Y286D02*
X7Y286D01*
X97Y286D02*
X103Y286D01*
X291Y286D02*
X297Y286D01*
X385Y286D02*
X392Y286D01*
X0Y285D02*
X7Y285D01*
X97Y285D02*
X103Y285D01*
X291Y285D02*
X297Y285D01*
X385Y285D02*
X392Y285D01*
X0Y284D02*
X7Y284D01*
X97Y284D02*
X103Y284D01*
X291Y284D02*
X297Y284D01*
X385Y284D02*
X392Y284D01*
X0Y283D02*
X7Y283D01*
X97Y283D02*
X103Y283D01*
X291Y283D02*
X297Y283D01*
X385Y283D02*
X392Y283D01*
X0Y282D02*
X7Y282D01*
X97Y282D02*
X103Y282D01*
X291Y282D02*
X297Y282D01*
X385Y282D02*
X392Y282D01*
X0Y281D02*
X7Y281D01*
X97Y281D02*
X103Y281D01*
X291Y281D02*
X297Y281D01*
X385Y281D02*
X392Y281D01*
X0Y280D02*
X7Y280D01*
X97Y280D02*
X103Y280D01*
X291Y280D02*
X297Y280D01*
X385Y280D02*
X392Y280D01*
X0Y279D02*
X7Y279D01*
X97Y279D02*
X103Y279D01*
X291Y279D02*
X297Y279D01*
X385Y279D02*
X392Y279D01*
X0Y278D02*
X7Y278D01*
X97Y278D02*
X103Y278D01*
X291Y278D02*
X297Y278D01*
X385Y278D02*
X392Y278D01*
X0Y277D02*
X7Y277D01*
X97Y277D02*
X103Y277D01*
X291Y277D02*
X297Y277D01*
X385Y277D02*
X392Y277D01*
X0Y276D02*
X7Y276D01*
X97Y276D02*
X103Y276D01*
X291Y276D02*
X297Y276D01*
X385Y276D02*
X392Y276D01*
X0Y275D02*
X7Y275D01*
X97Y275D02*
X103Y275D01*
X291Y275D02*
X297Y275D01*
X385Y275D02*
X392Y275D01*
X0Y274D02*
X7Y274D01*
X97Y274D02*
X103Y274D01*
X291Y274D02*
X297Y274D01*
X385Y274D02*
X392Y274D01*
X0Y273D02*
X7Y273D01*
X97Y273D02*
X103Y273D01*
X291Y273D02*
X297Y273D01*
X385Y273D02*
X392Y273D01*
X0Y272D02*
X7Y272D01*
X97Y272D02*
X103Y272D01*
X291Y272D02*
X297Y272D01*
X385Y272D02*
X392Y272D01*
X0Y271D02*
X7Y271D01*
X97Y271D02*
X103Y271D01*
X291Y271D02*
X297Y271D01*
X385Y271D02*
X392Y271D01*
X0Y270D02*
X7Y270D01*
X97Y270D02*
X103Y270D01*
X291Y270D02*
X297Y270D01*
X385Y270D02*
X392Y270D01*
X0Y269D02*
X7Y269D01*
X97Y269D02*
X103Y269D01*
X291Y269D02*
X297Y269D01*
X385Y269D02*
X392Y269D01*
X0Y268D02*
X7Y268D01*
X97Y268D02*
X103Y268D01*
X291Y268D02*
X297Y268D01*
X385Y268D02*
X392Y268D01*
X0Y267D02*
X7Y267D01*
X97Y267D02*
X103Y267D01*
X291Y267D02*
X297Y267D01*
X385Y267D02*
X392Y267D01*
X0Y266D02*
X7Y266D01*
X97Y266D02*
X103Y266D01*
X291Y266D02*
X297Y266D01*
X385Y266D02*
X392Y266D01*
X0Y265D02*
X7Y265D01*
X97Y265D02*
X103Y265D01*
X291Y265D02*
X297Y265D01*
X385Y265D02*
X392Y265D01*
X0Y264D02*
X7Y264D01*
X97Y264D02*
X103Y264D01*
X291Y264D02*
X297Y264D01*
X385Y264D02*
X392Y264D01*
X0Y263D02*
X7Y263D01*
X97Y263D02*
X103Y263D01*
X291Y263D02*
X297Y263D01*
X385Y263D02*
X392Y263D01*
X0Y262D02*
X7Y262D01*
X97Y262D02*
X103Y262D01*
X291Y262D02*
X297Y262D01*
X385Y262D02*
X392Y262D01*
X0Y261D02*
X7Y261D01*
X97Y261D02*
X103Y261D01*
X167Y261D02*
X169Y261D01*
X291Y261D02*
X297Y261D01*
X385Y261D02*
X392Y261D01*
X0Y260D02*
X7Y260D01*
X97Y260D02*
X103Y260D01*
X167Y260D02*
X169Y260D01*
X291Y260D02*
X297Y260D01*
X385Y260D02*
X392Y260D01*
X0Y259D02*
X7Y259D01*
X97Y259D02*
X103Y259D01*
X120Y259D02*
X124Y259D01*
X130Y259D02*
X132Y259D01*
X138Y259D02*
X143Y259D01*
X149Y259D02*
X151Y259D01*
X155Y259D02*
X156Y259D01*
X167Y259D02*
X168Y259D01*
X246Y259D02*
X248Y259D01*
X269Y259D02*
X272Y259D01*
X279Y259D02*
X281Y259D01*
X291Y259D02*
X297Y259D01*
X385Y259D02*
X392Y259D01*
X0Y258D02*
X7Y258D01*
X97Y258D02*
X103Y258D01*
X119Y258D02*
X121Y258D01*
X130Y258D02*
X132Y258D01*
X138Y258D02*
X140Y258D01*
X149Y258D02*
X151Y258D01*
X155Y258D02*
X157Y258D01*
X166Y258D02*
X168Y258D01*
X246Y258D02*
X248Y258D01*
X268Y258D02*
X270Y258D01*
X280Y258D02*
X282Y258D01*
X291Y258D02*
X297Y258D01*
X385Y258D02*
X392Y258D01*
X0Y257D02*
X7Y257D01*
X97Y257D02*
X103Y257D01*
X118Y257D02*
X120Y257D01*
X130Y257D02*
X132Y257D01*
X137Y257D02*
X139Y257D01*
X149Y257D02*
X151Y257D01*
X155Y257D02*
X157Y257D01*
X166Y257D02*
X168Y257D01*
X246Y257D02*
X248Y257D01*
X268Y257D02*
X270Y257D01*
X281Y257D02*
X282Y257D01*
X291Y257D02*
X297Y257D01*
X385Y257D02*
X392Y257D01*
X0Y256D02*
X7Y256D01*
X97Y256D02*
X103Y256D01*
X118Y256D02*
X120Y256D01*
X130Y256D02*
X132Y256D01*
X137Y256D02*
X139Y256D01*
X149Y256D02*
X151Y256D01*
X156Y256D02*
X157Y256D01*
X166Y256D02*
X167Y256D01*
X242Y256D02*
X250Y256D01*
X253Y256D02*
X254Y256D01*
X262Y256D02*
X263Y256D01*
X267Y256D02*
X269Y256D01*
X281Y256D02*
X283Y256D01*
X291Y256D02*
X297Y256D01*
X385Y256D02*
X392Y256D01*
X0Y255D02*
X7Y255D01*
X97Y255D02*
X103Y255D01*
X117Y255D02*
X119Y255D01*
X130Y255D02*
X132Y255D01*
X136Y255D02*
X138Y255D01*
X149Y255D02*
X151Y255D01*
X156Y255D02*
X158Y255D01*
X165Y255D02*
X167Y255D01*
X242Y255D02*
X250Y255D01*
X253Y255D02*
X254Y255D01*
X262Y255D02*
X263Y255D01*
X267Y255D02*
X269Y255D01*
X281Y255D02*
X283Y255D01*
X291Y255D02*
X297Y255D01*
X385Y255D02*
X392Y255D01*
X0Y254D02*
X7Y254D01*
X97Y254D02*
X103Y254D01*
X117Y254D02*
X119Y254D01*
X130Y254D02*
X132Y254D01*
X136Y254D02*
X138Y254D01*
X149Y254D02*
X151Y254D01*
X156Y254D02*
X158Y254D01*
X165Y254D02*
X167Y254D01*
X246Y254D02*
X248Y254D01*
X253Y254D02*
X254Y254D01*
X262Y254D02*
X263Y254D01*
X267Y254D02*
X269Y254D01*
X281Y254D02*
X283Y254D01*
X291Y254D02*
X297Y254D01*
X385Y254D02*
X392Y254D01*
X0Y253D02*
X7Y253D01*
X97Y253D02*
X103Y253D01*
X117Y253D02*
X119Y253D01*
X130Y253D02*
X132Y253D01*
X136Y253D02*
X138Y253D01*
X149Y253D02*
X151Y253D01*
X157Y253D02*
X158Y253D01*
X165Y253D02*
X166Y253D01*
X246Y253D02*
X248Y253D01*
X253Y253D02*
X254Y253D01*
X262Y253D02*
X263Y253D01*
X267Y253D02*
X269Y253D01*
X282Y253D02*
X283Y253D01*
X291Y253D02*
X297Y253D01*
X385Y253D02*
X392Y253D01*
X0Y252D02*
X7Y252D01*
X97Y252D02*
X103Y252D01*
X117Y252D02*
X119Y252D01*
X130Y252D02*
X132Y252D01*
X136Y252D02*
X138Y252D01*
X149Y252D02*
X151Y252D01*
X157Y252D02*
X159Y252D01*
X164Y252D02*
X166Y252D01*
X246Y252D02*
X248Y252D01*
X253Y252D02*
X254Y252D01*
X262Y252D02*
X263Y252D01*
X267Y252D02*
X268Y252D01*
X282Y252D02*
X283Y252D01*
X291Y252D02*
X297Y252D01*
X385Y252D02*
X392Y252D01*
X0Y251D02*
X7Y251D01*
X97Y251D02*
X103Y251D01*
X117Y251D02*
X119Y251D01*
X130Y251D02*
X132Y251D01*
X136Y251D02*
X138Y251D01*
X149Y251D02*
X151Y251D01*
X157Y251D02*
X159Y251D01*
X164Y251D02*
X166Y251D01*
X246Y251D02*
X248Y251D01*
X253Y251D02*
X254Y251D01*
X262Y251D02*
X263Y251D01*
X267Y251D02*
X268Y251D01*
X282Y251D02*
X283Y251D01*
X291Y251D02*
X297Y251D01*
X385Y251D02*
X392Y251D01*
X0Y250D02*
X7Y250D01*
X97Y250D02*
X103Y250D01*
X117Y250D02*
X119Y250D01*
X130Y250D02*
X132Y250D01*
X136Y250D02*
X138Y250D01*
X149Y250D02*
X151Y250D01*
X158Y250D02*
X159Y250D01*
X164Y250D02*
X165Y250D01*
X246Y250D02*
X248Y250D01*
X253Y250D02*
X254Y250D01*
X262Y250D02*
X263Y250D01*
X267Y250D02*
X269Y250D01*
X282Y250D02*
X283Y250D01*
X291Y250D02*
X297Y250D01*
X385Y250D02*
X392Y250D01*
X0Y249D02*
X7Y249D01*
X97Y249D02*
X103Y249D01*
X117Y249D02*
X119Y249D01*
X130Y249D02*
X132Y249D01*
X136Y249D02*
X138Y249D01*
X149Y249D02*
X151Y249D01*
X158Y249D02*
X160Y249D01*
X163Y249D02*
X165Y249D01*
X246Y249D02*
X248Y249D01*
X253Y249D02*
X254Y249D01*
X262Y249D02*
X263Y249D01*
X267Y249D02*
X269Y249D01*
X281Y249D02*
X283Y249D01*
X291Y249D02*
X297Y249D01*
X385Y249D02*
X392Y249D01*
X0Y248D02*
X7Y248D01*
X97Y248D02*
X103Y248D01*
X117Y248D02*
X119Y248D01*
X130Y248D02*
X132Y248D01*
X136Y248D02*
X138Y248D01*
X149Y248D02*
X151Y248D01*
X158Y248D02*
X160Y248D01*
X163Y248D02*
X165Y248D01*
X246Y248D02*
X248Y248D01*
X253Y248D02*
X254Y248D01*
X262Y248D02*
X263Y248D01*
X267Y248D02*
X269Y248D01*
X281Y248D02*
X283Y248D01*
X291Y248D02*
X297Y248D01*
X385Y248D02*
X392Y248D01*
X0Y247D02*
X7Y247D01*
X97Y247D02*
X103Y247D01*
X118Y247D02*
X120Y247D01*
X130Y247D02*
X132Y247D01*
X137Y247D02*
X139Y247D01*
X149Y247D02*
X151Y247D01*
X159Y247D02*
X160Y247D01*
X163Y247D02*
X164Y247D01*
X246Y247D02*
X248Y247D01*
X253Y247D02*
X254Y247D01*
X262Y247D02*
X263Y247D01*
X267Y247D02*
X269Y247D01*
X281Y247D02*
X283Y247D01*
X291Y247D02*
X297Y247D01*
X385Y247D02*
X392Y247D01*
X0Y246D02*
X7Y246D01*
X97Y246D02*
X103Y246D01*
X118Y246D02*
X121Y246D01*
X130Y246D02*
X132Y246D01*
X137Y246D02*
X139Y246D01*
X149Y246D02*
X151Y246D01*
X159Y246D02*
X164Y246D01*
X246Y246D02*
X248Y246D01*
X253Y246D02*
X254Y246D01*
X262Y246D02*
X263Y246D01*
X268Y246D02*
X270Y246D01*
X280Y246D02*
X282Y246D01*
X291Y246D02*
X297Y246D01*
X385Y246D02*
X392Y246D01*
X0Y245D02*
X7Y245D01*
X97Y245D02*
X103Y245D01*
X119Y245D02*
X122Y245D01*
X130Y245D02*
X132Y245D01*
X138Y245D02*
X141Y245D01*
X149Y245D02*
X151Y245D01*
X159Y245D02*
X164Y245D01*
X246Y245D02*
X248Y245D01*
X253Y245D02*
X255Y245D01*
X261Y245D02*
X263Y245D01*
X268Y245D02*
X271Y245D01*
X279Y245D02*
X282Y245D01*
X291Y245D02*
X297Y245D01*
X385Y245D02*
X392Y245D01*
X0Y244D02*
X7Y244D01*
X97Y244D02*
X103Y244D01*
X120Y244D02*
X126Y244D01*
X130Y244D02*
X132Y244D01*
X139Y244D02*
X145Y244D01*
X149Y244D02*
X151Y244D01*
X160Y244D02*
X163Y244D01*
X245Y244D02*
X248Y244D01*
X253Y244D02*
X256Y244D01*
X261Y244D02*
X263Y244D01*
X269Y244D02*
X272Y244D01*
X278Y244D02*
X281Y244D01*
X291Y244D02*
X297Y244D01*
X385Y244D02*
X392Y244D01*
X0Y243D02*
X7Y243D01*
X97Y243D02*
X103Y243D01*
X121Y243D02*
X132Y243D01*
X140Y243D02*
X151Y243D01*
X160Y243D02*
X163Y243D01*
X242Y243D02*
X247Y243D01*
X253Y243D02*
X262Y243D01*
X270Y243D02*
X280Y243D01*
X291Y243D02*
X297Y243D01*
X385Y243D02*
X392Y243D01*
X0Y242D02*
X7Y242D01*
X97Y242D02*
X103Y242D01*
X124Y242D02*
X132Y242D01*
X143Y242D02*
X151Y242D01*
X160Y242D02*
X163Y242D01*
X242Y242D02*
X246Y242D01*
X253Y242D02*
X254Y242D01*
X257Y242D02*
X261Y242D01*
X272Y242D02*
X279Y242D01*
X291Y242D02*
X297Y242D01*
X385Y242D02*
X392Y242D01*
X0Y241D02*
X7Y241D01*
X97Y241D02*
X103Y241D01*
X291Y241D02*
X297Y241D01*
X385Y241D02*
X392Y241D01*
X0Y240D02*
X7Y240D01*
X97Y240D02*
X103Y240D01*
X291Y240D02*
X297Y240D01*
X385Y240D02*
X392Y240D01*
X0Y239D02*
X7Y239D01*
X97Y239D02*
X103Y239D01*
X291Y239D02*
X297Y239D01*
X385Y239D02*
X392Y239D01*
X0Y238D02*
X7Y238D01*
X97Y238D02*
X103Y238D01*
X291Y238D02*
X297Y238D01*
X385Y238D02*
X392Y238D01*
X0Y237D02*
X7Y237D01*
X97Y237D02*
X103Y237D01*
X291Y237D02*
X297Y237D01*
X385Y237D02*
X392Y237D01*
X0Y236D02*
X7Y236D01*
X97Y236D02*
X103Y236D01*
X291Y236D02*
X297Y236D01*
X385Y236D02*
X392Y236D01*
X0Y235D02*
X7Y235D01*
X97Y235D02*
X103Y235D01*
X291Y235D02*
X297Y235D01*
X385Y235D02*
X392Y235D01*
X0Y234D02*
X7Y234D01*
X97Y234D02*
X103Y234D01*
X291Y234D02*
X297Y234D01*
X385Y234D02*
X392Y234D01*
X0Y233D02*
X7Y233D01*
X97Y233D02*
X103Y233D01*
X291Y233D02*
X297Y233D01*
X385Y233D02*
X392Y233D01*
X0Y232D02*
X7Y232D01*
X97Y232D02*
X103Y232D01*
X291Y232D02*
X297Y232D01*
X385Y232D02*
X392Y232D01*
X0Y231D02*
X7Y231D01*
X97Y231D02*
X103Y231D01*
X291Y231D02*
X297Y231D01*
X385Y231D02*
X392Y231D01*
X0Y230D02*
X7Y230D01*
X97Y230D02*
X103Y230D01*
X291Y230D02*
X297Y230D01*
X385Y230D02*
X392Y230D01*
X0Y229D02*
X7Y229D01*
X97Y229D02*
X103Y229D01*
X291Y229D02*
X297Y229D01*
X385Y229D02*
X392Y229D01*
X0Y228D02*
X7Y228D01*
X97Y228D02*
X103Y228D01*
X291Y228D02*
X297Y228D01*
X385Y228D02*
X392Y228D01*
X0Y227D02*
X7Y227D01*
X97Y227D02*
X103Y227D01*
X291Y227D02*
X297Y227D01*
X385Y227D02*
X392Y227D01*
X0Y226D02*
X7Y226D01*
X97Y226D02*
X103Y226D01*
X291Y226D02*
X297Y226D01*
X385Y226D02*
X392Y226D01*
X0Y225D02*
X7Y225D01*
X97Y225D02*
X103Y225D01*
X291Y225D02*
X297Y225D01*
X385Y225D02*
X392Y225D01*
X0Y224D02*
X7Y224D01*
X97Y224D02*
X103Y224D01*
X291Y224D02*
X297Y224D01*
X385Y224D02*
X392Y224D01*
X0Y223D02*
X7Y223D01*
X97Y223D02*
X103Y223D01*
X291Y223D02*
X297Y223D01*
X385Y223D02*
X392Y223D01*
X0Y222D02*
X7Y222D01*
X97Y222D02*
X103Y222D01*
X291Y222D02*
X297Y222D01*
X385Y222D02*
X392Y222D01*
X0Y221D02*
X7Y221D01*
X97Y221D02*
X103Y221D01*
X291Y221D02*
X297Y221D01*
X385Y221D02*
X392Y221D01*
X0Y220D02*
X7Y220D01*
X97Y220D02*
X103Y220D01*
X291Y220D02*
X297Y220D01*
X385Y220D02*
X392Y220D01*
X0Y219D02*
X7Y219D01*
X97Y219D02*
X103Y219D01*
X291Y219D02*
X297Y219D01*
X385Y219D02*
X392Y219D01*
X0Y218D02*
X7Y218D01*
X97Y218D02*
X103Y218D01*
X291Y218D02*
X297Y218D01*
X385Y218D02*
X392Y218D01*
X0Y217D02*
X7Y217D01*
X97Y217D02*
X103Y217D01*
X291Y217D02*
X297Y217D01*
X385Y217D02*
X392Y217D01*
X0Y216D02*
X7Y216D01*
X97Y216D02*
X103Y216D01*
X145Y216D02*
X154Y216D01*
X165Y216D02*
X171Y216D01*
X185Y216D02*
X186Y216D01*
X202Y216D02*
X209Y216D01*
X222Y216D02*
X229Y216D01*
X237Y216D02*
X244Y216D01*
X251Y216D02*
X252Y216D01*
X264Y216D02*
X266Y216D01*
X278Y216D02*
X279Y216D01*
X291Y216D02*
X297Y216D01*
X385Y216D02*
X392Y216D01*
X0Y215D02*
X7Y215D01*
X97Y215D02*
X103Y215D01*
X142Y215D02*
X154Y215D01*
X163Y215D02*
X173Y215D01*
X185Y215D02*
X187Y215D01*
X201Y215D02*
X210Y215D01*
X221Y215D02*
X231Y215D01*
X235Y215D02*
X246Y215D01*
X251Y215D02*
X253Y215D01*
X264Y215D02*
X266Y215D01*
X277Y215D02*
X279Y215D01*
X291Y215D02*
X297Y215D01*
X385Y215D02*
X392Y215D01*
X0Y214D02*
X7Y214D01*
X97Y214D02*
X103Y214D01*
X140Y214D02*
X154Y214D01*
X162Y214D02*
X174Y214D01*
X185Y214D02*
X187Y214D01*
X200Y214D02*
X204Y214D01*
X207Y214D02*
X211Y214D01*
X220Y214D02*
X231Y214D01*
X234Y214D02*
X247Y214D01*
X251Y214D02*
X253Y214D01*
X263Y214D02*
X267Y214D01*
X277Y214D02*
X279Y214D01*
X291Y214D02*
X297Y214D01*
X385Y214D02*
X392Y214D01*
X0Y213D02*
X7Y213D01*
X97Y213D02*
X103Y213D01*
X140Y213D02*
X144Y213D01*
X152Y213D02*
X154Y213D01*
X161Y213D02*
X165Y213D01*
X172Y213D02*
X174Y213D01*
X185Y213D02*
X189Y213D01*
X199Y213D02*
X202Y213D01*
X209Y213D02*
X212Y213D01*
X219Y213D02*
X223Y213D01*
X230Y213D02*
X231Y213D01*
X234Y213D02*
X237Y213D01*
X245Y213D02*
X248Y213D01*
X251Y213D02*
X253Y213D01*
X263Y213D02*
X267Y213D01*
X277Y213D02*
X279Y213D01*
X291Y213D02*
X297Y213D01*
X385Y213D02*
X392Y213D01*
X0Y212D02*
X7Y212D01*
X97Y212D02*
X103Y212D01*
X139Y212D02*
X142Y212D01*
X152Y212D02*
X154Y212D01*
X161Y212D02*
X164Y212D01*
X174Y212D02*
X174Y212D01*
X185Y212D02*
X191Y212D01*
X199Y212D02*
X201Y212D01*
X210Y212D02*
X212Y212D01*
X219Y212D02*
X222Y212D01*
X234Y212D02*
X235Y212D01*
X246Y212D02*
X249Y212D01*
X251Y212D02*
X254Y212D01*
X263Y212D02*
X267Y212D01*
X276Y212D02*
X279Y212D01*
X291Y212D02*
X297Y212D01*
X385Y212D02*
X392Y212D01*
X0Y211D02*
X7Y211D01*
X97Y211D02*
X103Y211D01*
X139Y211D02*
X142Y211D01*
X152Y211D02*
X154Y211D01*
X161Y211D02*
X163Y211D01*
X185Y211D02*
X191Y211D01*
X199Y211D02*
X201Y211D01*
X210Y211D02*
X213Y211D01*
X219Y211D02*
X221Y211D01*
X247Y211D02*
X249Y211D01*
X252Y211D02*
X254Y211D01*
X263Y211D02*
X267Y211D01*
X276Y211D02*
X278Y211D01*
X291Y211D02*
X297Y211D01*
X385Y211D02*
X392Y211D01*
X0Y210D02*
X7Y210D01*
X97Y210D02*
X103Y210D01*
X139Y210D02*
X142Y210D01*
X152Y210D02*
X154Y210D01*
X161Y210D02*
X163Y210D01*
X185Y210D02*
X187Y210D01*
X199Y210D02*
X201Y210D01*
X210Y210D02*
X213Y210D01*
X218Y210D02*
X221Y210D01*
X247Y210D02*
X249Y210D01*
X252Y210D02*
X254Y210D01*
X262Y210D02*
X264Y210D01*
X266Y210D02*
X268Y210D01*
X276Y210D02*
X278Y210D01*
X291Y210D02*
X297Y210D01*
X385Y210D02*
X392Y210D01*
X0Y209D02*
X7Y209D01*
X97Y209D02*
X103Y209D01*
X139Y209D02*
X142Y209D01*
X152Y209D02*
X154Y209D01*
X161Y209D02*
X163Y209D01*
X185Y209D02*
X187Y209D01*
X199Y209D02*
X201Y209D01*
X210Y209D02*
X212Y209D01*
X219Y209D02*
X221Y209D01*
X247Y209D02*
X249Y209D01*
X252Y209D02*
X254Y209D01*
X262Y209D02*
X264Y209D01*
X266Y209D02*
X268Y209D01*
X276Y209D02*
X278Y209D01*
X291Y209D02*
X297Y209D01*
X385Y209D02*
X392Y209D01*
X0Y208D02*
X7Y208D01*
X97Y208D02*
X103Y208D01*
X140Y208D02*
X142Y208D01*
X152Y208D02*
X154Y208D01*
X161Y208D02*
X163Y208D01*
X185Y208D02*
X187Y208D01*
X199Y208D02*
X201Y208D01*
X209Y208D02*
X212Y208D01*
X219Y208D02*
X221Y208D01*
X246Y208D02*
X249Y208D01*
X252Y208D02*
X255Y208D01*
X262Y208D02*
X264Y208D01*
X267Y208D02*
X268Y208D01*
X275Y208D02*
X278Y208D01*
X291Y208D02*
X297Y208D01*
X385Y208D02*
X392Y208D01*
X0Y207D02*
X7Y207D01*
X97Y207D02*
X103Y207D01*
X140Y207D02*
X143Y207D01*
X152Y207D02*
X154Y207D01*
X161Y207D02*
X164Y207D01*
X185Y207D02*
X187Y207D01*
X199Y207D02*
X202Y207D01*
X208Y207D02*
X212Y207D01*
X219Y207D02*
X221Y207D01*
X246Y207D02*
X249Y207D01*
X253Y207D02*
X255Y207D01*
X262Y207D02*
X263Y207D01*
X267Y207D02*
X268Y207D01*
X275Y207D02*
X277Y207D01*
X291Y207D02*
X297Y207D01*
X386Y207D02*
X392Y207D01*
X0Y206D02*
X7Y206D01*
X97Y206D02*
X103Y206D01*
X141Y206D02*
X145Y206D01*
X151Y206D02*
X154Y206D01*
X161Y206D02*
X164Y206D01*
X185Y206D02*
X187Y206D01*
X200Y206D02*
X202Y206D01*
X206Y206D02*
X211Y206D01*
X219Y206D02*
X222Y206D01*
X244Y206D02*
X248Y206D01*
X253Y206D02*
X255Y206D01*
X261Y206D02*
X263Y206D01*
X267Y206D02*
X269Y206D01*
X275Y206D02*
X277Y206D01*
X291Y206D02*
X297Y206D01*
X386Y206D02*
X392Y206D01*
X0Y205D02*
X7Y205D01*
X97Y205D02*
X103Y205D01*
X142Y205D02*
X154Y205D01*
X162Y205D02*
X165Y205D01*
X185Y205D02*
X187Y205D01*
X201Y205D02*
X210Y205D01*
X220Y205D02*
X222Y205D01*
X240Y205D02*
X248Y205D01*
X253Y205D02*
X255Y205D01*
X261Y205D02*
X263Y205D01*
X267Y205D02*
X269Y205D01*
X275Y205D02*
X277Y205D01*
X291Y205D02*
X297Y205D01*
X386Y205D02*
X392Y205D01*
X0Y204D02*
X7Y204D01*
X98Y204D02*
X103Y204D01*
X141Y204D02*
X154Y204D01*
X162Y204D02*
X165Y204D01*
X185Y204D02*
X187Y204D01*
X202Y204D02*
X210Y204D01*
X220Y204D02*
X223Y204D01*
X237Y204D02*
X247Y204D01*
X253Y204D02*
X256Y204D01*
X261Y204D02*
X263Y204D01*
X267Y204D02*
X269Y204D01*
X274Y204D02*
X277Y204D01*
X291Y204D02*
X297Y204D01*
X386Y204D02*
X392Y204D01*
X0Y203D02*
X7Y203D01*
X98Y203D02*
X103Y203D01*
X140Y203D02*
X145Y203D01*
X151Y203D02*
X154Y203D01*
X163Y203D02*
X166Y203D01*
X185Y203D02*
X187Y203D01*
X200Y203D02*
X206Y203D01*
X209Y203D02*
X211Y203D01*
X221Y203D02*
X224Y203D01*
X236Y203D02*
X245Y203D01*
X254Y203D02*
X256Y203D01*
X261Y203D02*
X262Y203D01*
X268Y203D02*
X269Y203D01*
X274Y203D02*
X276Y203D01*
X291Y203D02*
X297Y203D01*
X386Y203D02*
X392Y203D01*
X0Y202D02*
X7Y202D01*
X98Y202D02*
X103Y202D01*
X139Y202D02*
X142Y202D01*
X152Y202D02*
X154Y202D01*
X164Y202D02*
X167Y202D01*
X185Y202D02*
X187Y202D01*
X199Y202D02*
X203Y202D01*
X210Y202D02*
X212Y202D01*
X222Y202D02*
X225Y202D01*
X235Y202D02*
X241Y202D01*
X254Y202D02*
X256Y202D01*
X260Y202D02*
X262Y202D01*
X268Y202D02*
X270Y202D01*
X274Y202D02*
X276Y202D01*
X291Y202D02*
X296Y202D01*
X386Y202D02*
X392Y202D01*
X0Y201D02*
X7Y201D01*
X98Y201D02*
X103Y201D01*
X138Y201D02*
X141Y201D01*
X152Y201D02*
X154Y201D01*
X165Y201D02*
X168Y201D01*
X185Y201D02*
X187Y201D01*
X199Y201D02*
X202Y201D01*
X210Y201D02*
X212Y201D01*
X223Y201D02*
X225Y201D01*
X234Y201D02*
X238Y201D01*
X254Y201D02*
X256Y201D01*
X260Y201D02*
X262Y201D01*
X268Y201D02*
X270Y201D01*
X274Y201D02*
X276Y201D01*
X291Y201D02*
X296Y201D01*
X386Y201D02*
X392Y201D01*
X0Y200D02*
X7Y200D01*
X98Y200D02*
X103Y200D01*
X138Y200D02*
X141Y200D01*
X152Y200D02*
X154Y200D01*
X166Y200D02*
X169Y200D01*
X185Y200D02*
X187Y200D01*
X198Y200D02*
X201Y200D01*
X211Y200D02*
X213Y200D01*
X223Y200D02*
X226Y200D01*
X234Y200D02*
X237Y200D01*
X254Y200D02*
X256Y200D01*
X260Y200D02*
X262Y200D01*
X268Y200D02*
X270Y200D01*
X273Y200D02*
X276Y200D01*
X291Y200D02*
X296Y200D01*
X386Y200D02*
X392Y200D01*
X0Y199D02*
X7Y199D01*
X98Y199D02*
X103Y199D01*
X138Y199D02*
X141Y199D01*
X152Y199D02*
X154Y199D01*
X167Y199D02*
X170Y199D01*
X185Y199D02*
X187Y199D01*
X198Y199D02*
X200Y199D01*
X211Y199D02*
X213Y199D01*
X224Y199D02*
X227Y199D01*
X234Y199D02*
X236Y199D01*
X255Y199D02*
X257Y199D01*
X260Y199D02*
X261Y199D01*
X269Y199D02*
X270Y199D01*
X273Y199D02*
X275Y199D01*
X291Y199D02*
X296Y199D01*
X386Y199D02*
X392Y199D01*
X0Y198D02*
X7Y198D01*
X98Y198D02*
X103Y198D01*
X138Y198D02*
X141Y198D01*
X152Y198D02*
X154Y198D01*
X168Y198D02*
X170Y198D01*
X185Y198D02*
X187Y198D01*
X198Y198D02*
X200Y198D01*
X211Y198D02*
X213Y198D01*
X225Y198D02*
X228Y198D01*
X233Y198D02*
X236Y198D01*
X255Y198D02*
X257Y198D01*
X259Y198D02*
X261Y198D01*
X269Y198D02*
X271Y198D01*
X273Y198D02*
X275Y198D01*
X291Y198D02*
X296Y198D01*
X386Y198D02*
X392Y198D01*
X0Y197D02*
X7Y197D01*
X98Y197D02*
X103Y197D01*
X138Y197D02*
X141Y197D01*
X152Y197D02*
X154Y197D01*
X169Y197D02*
X171Y197D01*
X185Y197D02*
X187Y197D01*
X198Y197D02*
X200Y197D01*
X211Y197D02*
X213Y197D01*
X226Y197D02*
X229Y197D01*
X234Y197D02*
X236Y197D01*
X255Y197D02*
X257Y197D01*
X259Y197D02*
X261Y197D01*
X269Y197D02*
X271Y197D01*
X273Y197D02*
X275Y197D01*
X291Y197D02*
X296Y197D01*
X386Y197D02*
X392Y197D01*
X0Y196D02*
X7Y196D01*
X98Y196D02*
X103Y196D01*
X139Y196D02*
X141Y196D01*
X152Y196D02*
X154Y196D01*
X170Y196D02*
X173Y196D01*
X185Y196D02*
X187Y196D01*
X198Y196D02*
X201Y196D01*
X210Y196D02*
X213Y196D01*
X227Y196D02*
X230Y196D01*
X234Y196D02*
X236Y196D01*
X249Y196D02*
X250Y196D01*
X255Y196D02*
X261Y196D01*
X269Y196D02*
X275Y196D01*
X291Y196D02*
X296Y196D01*
X386Y196D02*
X392Y196D01*
X0Y195D02*
X7Y195D01*
X98Y195D02*
X103Y195D01*
X139Y195D02*
X142Y195D01*
X152Y195D02*
X154Y195D01*
X171Y195D02*
X174Y195D01*
X185Y195D02*
X187Y195D01*
X198Y195D02*
X201Y195D01*
X210Y195D02*
X213Y195D01*
X229Y195D02*
X231Y195D01*
X234Y195D02*
X237Y195D01*
X248Y195D02*
X250Y195D01*
X256Y195D02*
X260Y195D01*
X270Y195D02*
X274Y195D01*
X291Y195D02*
X296Y195D01*
X386Y195D02*
X392Y195D01*
X0Y194D02*
X7Y194D01*
X98Y194D02*
X103Y194D01*
X140Y194D02*
X145Y194D01*
X152Y194D02*
X154Y194D01*
X171Y194D02*
X174Y194D01*
X185Y194D02*
X187Y194D01*
X199Y194D02*
X202Y194D01*
X209Y194D02*
X212Y194D01*
X229Y194D02*
X232Y194D01*
X235Y194D02*
X238Y194D01*
X246Y194D02*
X250Y194D01*
X256Y194D02*
X260Y194D01*
X270Y194D02*
X274Y194D01*
X291Y194D02*
X297Y194D01*
X386Y194D02*
X392Y194D01*
X0Y193D02*
X7Y193D01*
X97Y193D02*
X103Y193D01*
X141Y193D02*
X154Y193D01*
X160Y193D02*
X174Y193D01*
X180Y193D02*
X191Y193D01*
X200Y193D02*
X204Y193D01*
X207Y193D02*
X211Y193D01*
X217Y193D02*
X232Y193D01*
X235Y193D02*
X250Y193D01*
X256Y193D02*
X260Y193D01*
X270Y193D02*
X274Y193D01*
X291Y193D02*
X297Y193D01*
X386Y193D02*
X392Y193D01*
X0Y192D02*
X7Y192D01*
X97Y192D02*
X103Y192D01*
X142Y192D02*
X154Y192D01*
X160Y192D02*
X174Y192D01*
X180Y192D02*
X191Y192D01*
X201Y192D02*
X210Y192D01*
X217Y192D02*
X232Y192D01*
X237Y192D02*
X248Y192D01*
X256Y192D02*
X260Y192D01*
X270Y192D02*
X274Y192D01*
X291Y192D02*
X297Y192D01*
X386Y192D02*
X392Y192D01*
X0Y191D02*
X7Y191D01*
X97Y191D02*
X103Y191D01*
X147Y191D02*
X154Y191D01*
X160Y191D02*
X174Y191D01*
X180Y191D02*
X191Y191D01*
X203Y191D02*
X209Y191D01*
X218Y191D02*
X232Y191D01*
X239Y191D02*
X246Y191D01*
X257Y191D02*
X259Y191D01*
X271Y191D02*
X273Y191D01*
X291Y191D02*
X297Y191D01*
X386Y191D02*
X392Y191D01*
X0Y190D02*
X7Y190D01*
X97Y190D02*
X103Y190D01*
X291Y190D02*
X297Y190D01*
X386Y190D02*
X392Y190D01*
X0Y189D02*
X7Y189D01*
X97Y189D02*
X103Y189D01*
X291Y189D02*
X297Y189D01*
X385Y189D02*
X392Y189D01*
X0Y188D02*
X7Y188D01*
X97Y188D02*
X103Y188D01*
X291Y188D02*
X297Y188D01*
X385Y188D02*
X392Y188D01*
X0Y187D02*
X7Y187D01*
X97Y187D02*
X103Y187D01*
X291Y187D02*
X297Y187D01*
X385Y187D02*
X392Y187D01*
X0Y186D02*
X7Y186D01*
X97Y186D02*
X103Y186D01*
X291Y186D02*
X297Y186D01*
X385Y186D02*
X392Y186D01*
X0Y185D02*
X7Y185D01*
X97Y185D02*
X103Y185D01*
X291Y185D02*
X297Y185D01*
X385Y185D02*
X392Y185D01*
X0Y184D02*
X7Y184D01*
X97Y184D02*
X103Y184D01*
X291Y184D02*
X297Y184D01*
X385Y184D02*
X392Y184D01*
X0Y183D02*
X7Y183D01*
X97Y183D02*
X103Y183D01*
X291Y183D02*
X297Y183D01*
X385Y183D02*
X392Y183D01*
X0Y182D02*
X7Y182D01*
X97Y182D02*
X103Y182D01*
X291Y182D02*
X297Y182D01*
X385Y182D02*
X392Y182D01*
X0Y181D02*
X7Y181D01*
X97Y181D02*
X103Y181D01*
X291Y181D02*
X297Y181D01*
X385Y181D02*
X392Y181D01*
X0Y180D02*
X7Y180D01*
X97Y180D02*
X103Y180D01*
X291Y180D02*
X297Y180D01*
X385Y180D02*
X392Y180D01*
X0Y179D02*
X7Y179D01*
X97Y179D02*
X103Y179D01*
X291Y179D02*
X297Y179D01*
X385Y179D02*
X392Y179D01*
X0Y178D02*
X7Y178D01*
X97Y178D02*
X103Y178D01*
X291Y178D02*
X297Y178D01*
X385Y178D02*
X392Y178D01*
X0Y177D02*
X7Y177D01*
X97Y177D02*
X103Y177D01*
X291Y177D02*
X297Y177D01*
X385Y177D02*
X392Y177D01*
X0Y176D02*
X7Y176D01*
X97Y176D02*
X103Y176D01*
X291Y176D02*
X297Y176D01*
X385Y176D02*
X392Y176D01*
X0Y175D02*
X7Y175D01*
X97Y175D02*
X103Y175D01*
X291Y175D02*
X297Y175D01*
X385Y175D02*
X392Y175D01*
X0Y174D02*
X7Y174D01*
X97Y174D02*
X103Y174D01*
X291Y174D02*
X297Y174D01*
X385Y174D02*
X392Y174D01*
X0Y173D02*
X7Y173D01*
X97Y173D02*
X103Y173D01*
X291Y173D02*
X297Y173D01*
X385Y173D02*
X392Y173D01*
X0Y172D02*
X7Y172D01*
X97Y172D02*
X103Y172D01*
X291Y172D02*
X297Y172D01*
X385Y172D02*
X392Y172D01*
X0Y171D02*
X7Y171D01*
X97Y171D02*
X103Y171D01*
X291Y171D02*
X297Y171D01*
X385Y171D02*
X392Y171D01*
X0Y170D02*
X7Y170D01*
X97Y170D02*
X103Y170D01*
X291Y170D02*
X297Y170D01*
X385Y170D02*
X392Y170D01*
X0Y169D02*
X7Y169D01*
X97Y169D02*
X103Y169D01*
X291Y169D02*
X297Y169D01*
X385Y169D02*
X392Y169D01*
X0Y168D02*
X7Y168D01*
X97Y168D02*
X103Y168D01*
X291Y168D02*
X297Y168D01*
X385Y168D02*
X392Y168D01*
X0Y167D02*
X7Y167D01*
X97Y167D02*
X103Y167D01*
X291Y167D02*
X297Y167D01*
X385Y167D02*
X392Y167D01*
X0Y166D02*
X7Y166D01*
X97Y166D02*
X103Y166D01*
X137Y166D02*
X144Y166D01*
X291Y166D02*
X297Y166D01*
X385Y166D02*
X392Y166D01*
X0Y165D02*
X7Y165D01*
X97Y165D02*
X103Y165D01*
X137Y165D02*
X144Y165D01*
X237Y165D02*
X238Y165D01*
X291Y165D02*
X297Y165D01*
X385Y165D02*
X392Y165D01*
X0Y164D02*
X7Y164D01*
X97Y164D02*
X103Y164D01*
X139Y164D02*
X141Y164D01*
X237Y164D02*
X238Y164D01*
X270Y164D02*
X276Y164D01*
X291Y164D02*
X297Y164D01*
X385Y164D02*
X392Y164D01*
X0Y163D02*
X7Y163D01*
X97Y163D02*
X103Y163D01*
X139Y163D02*
X141Y163D01*
X237Y163D02*
X238Y163D01*
X268Y163D02*
X278Y163D01*
X291Y163D02*
X297Y163D01*
X385Y163D02*
X392Y163D01*
X0Y162D02*
X7Y162D01*
X97Y162D02*
X103Y162D01*
X129Y162D02*
X130Y162D01*
X139Y162D02*
X141Y162D01*
X237Y162D02*
X238Y162D01*
X267Y162D02*
X272Y162D01*
X276Y162D02*
X279Y162D01*
X291Y162D02*
X297Y162D01*
X385Y162D02*
X392Y162D01*
X0Y161D02*
X7Y161D01*
X97Y161D02*
X103Y161D01*
X127Y161D02*
X132Y161D01*
X135Y161D02*
X136Y161D01*
X139Y161D02*
X141Y161D01*
X237Y161D02*
X238Y161D01*
X267Y161D02*
X269Y161D01*
X278Y161D02*
X280Y161D01*
X291Y161D02*
X297Y161D01*
X385Y161D02*
X392Y161D01*
X0Y160D02*
X7Y160D01*
X97Y160D02*
X103Y160D01*
X126Y160D02*
X136Y160D01*
X139Y160D02*
X141Y160D01*
X237Y160D02*
X238Y160D01*
X267Y160D02*
X267Y160D01*
X279Y160D02*
X281Y160D01*
X291Y160D02*
X297Y160D01*
X385Y160D02*
X392Y160D01*
X0Y159D02*
X7Y159D01*
X97Y159D02*
X103Y159D01*
X126Y159D02*
X128Y159D01*
X133Y159D02*
X136Y159D01*
X139Y159D02*
X141Y159D01*
X237Y159D02*
X238Y159D01*
X240Y159D02*
X244Y159D01*
X255Y159D02*
X258Y159D01*
X262Y159D02*
X263Y159D01*
X280Y159D02*
X281Y159D01*
X291Y159D02*
X297Y159D01*
X385Y159D02*
X392Y159D01*
X0Y158D02*
X7Y158D01*
X97Y158D02*
X103Y158D01*
X126Y158D02*
X127Y158D01*
X134Y158D02*
X136Y158D01*
X139Y158D02*
X141Y158D01*
X237Y158D02*
X246Y158D01*
X253Y158D02*
X263Y158D01*
X280Y158D02*
X282Y158D01*
X291Y158D02*
X297Y158D01*
X385Y158D02*
X392Y158D01*
X0Y157D02*
X7Y157D01*
X97Y157D02*
X103Y157D01*
X125Y157D02*
X127Y157D01*
X135Y157D02*
X136Y157D01*
X139Y157D02*
X141Y157D01*
X237Y157D02*
X240Y157D01*
X244Y157D02*
X247Y157D01*
X253Y157D02*
X256Y157D01*
X258Y157D02*
X263Y157D01*
X280Y157D02*
X282Y157D01*
X291Y157D02*
X297Y157D01*
X385Y157D02*
X392Y157D01*
X0Y156D02*
X7Y156D01*
X97Y156D02*
X103Y156D01*
X125Y156D02*
X127Y156D01*
X135Y156D02*
X136Y156D01*
X139Y156D02*
X141Y156D01*
X237Y156D02*
X238Y156D01*
X245Y156D02*
X247Y156D01*
X252Y156D02*
X254Y156D01*
X260Y156D02*
X263Y156D01*
X280Y156D02*
X282Y156D01*
X291Y156D02*
X297Y156D01*
X385Y156D02*
X392Y156D01*
X0Y155D02*
X7Y155D01*
X97Y155D02*
X103Y155D01*
X125Y155D02*
X127Y155D01*
X135Y155D02*
X136Y155D01*
X139Y155D02*
X141Y155D01*
X237Y155D02*
X238Y155D01*
X246Y155D02*
X248Y155D01*
X252Y155D02*
X254Y155D01*
X261Y155D02*
X263Y155D01*
X281Y155D02*
X282Y155D01*
X291Y155D02*
X297Y155D01*
X385Y155D02*
X392Y155D01*
X0Y154D02*
X7Y154D01*
X97Y154D02*
X103Y154D01*
X125Y154D02*
X127Y154D01*
X135Y154D02*
X136Y154D01*
X139Y154D02*
X141Y154D01*
X237Y154D02*
X238Y154D01*
X246Y154D02*
X248Y154D01*
X252Y154D02*
X254Y154D01*
X261Y154D02*
X263Y154D01*
X267Y154D02*
X273Y154D01*
X281Y154D02*
X282Y154D01*
X291Y154D02*
X297Y154D01*
X385Y154D02*
X392Y154D01*
X0Y153D02*
X7Y153D01*
X97Y153D02*
X103Y153D01*
X125Y153D02*
X127Y153D01*
X135Y153D02*
X136Y153D01*
X139Y153D02*
X141Y153D01*
X237Y153D02*
X238Y153D01*
X247Y153D02*
X248Y153D01*
X252Y153D02*
X254Y153D01*
X261Y153D02*
X263Y153D01*
X267Y153D02*
X273Y153D01*
X281Y153D02*
X282Y153D01*
X291Y153D02*
X297Y153D01*
X385Y153D02*
X392Y153D01*
X0Y152D02*
X7Y152D01*
X97Y152D02*
X103Y152D01*
X125Y152D02*
X127Y152D01*
X135Y152D02*
X136Y152D01*
X139Y152D02*
X141Y152D01*
X237Y152D02*
X238Y152D01*
X247Y152D02*
X248Y152D01*
X252Y152D02*
X254Y152D01*
X261Y152D02*
X263Y152D01*
X267Y152D02*
X273Y152D01*
X280Y152D02*
X282Y152D01*
X291Y152D02*
X297Y152D01*
X385Y152D02*
X392Y152D01*
X0Y151D02*
X7Y151D01*
X97Y151D02*
X103Y151D01*
X125Y151D02*
X127Y151D01*
X135Y151D02*
X136Y151D01*
X139Y151D02*
X141Y151D01*
X237Y151D02*
X238Y151D01*
X247Y151D02*
X248Y151D01*
X252Y151D02*
X254Y151D01*
X261Y151D02*
X263Y151D01*
X267Y151D02*
X269Y151D01*
X280Y151D02*
X282Y151D01*
X291Y151D02*
X297Y151D01*
X385Y151D02*
X392Y151D01*
X0Y150D02*
X7Y150D01*
X97Y150D02*
X103Y150D01*
X125Y150D02*
X127Y150D01*
X135Y150D02*
X136Y150D01*
X139Y150D02*
X141Y150D01*
X237Y150D02*
X238Y150D01*
X247Y150D02*
X248Y150D01*
X252Y150D02*
X254Y150D01*
X261Y150D02*
X263Y150D01*
X267Y150D02*
X269Y150D01*
X280Y150D02*
X282Y150D01*
X290Y150D02*
X297Y150D01*
X385Y150D02*
X392Y150D01*
X0Y149D02*
X7Y149D01*
X97Y149D02*
X103Y149D01*
X125Y149D02*
X127Y149D01*
X135Y149D02*
X136Y149D01*
X139Y149D02*
X141Y149D01*
X237Y149D02*
X238Y149D01*
X247Y149D02*
X248Y149D01*
X252Y149D02*
X254Y149D01*
X261Y149D02*
X263Y149D01*
X267Y149D02*
X269Y149D01*
X279Y149D02*
X282Y149D01*
X289Y149D02*
X297Y149D01*
X385Y149D02*
X392Y149D01*
X0Y148D02*
X7Y148D01*
X97Y148D02*
X103Y148D01*
X125Y148D02*
X127Y148D01*
X135Y148D02*
X144Y148D01*
X237Y148D02*
X238Y148D01*
X246Y148D02*
X248Y148D01*
X252Y148D02*
X254Y148D01*
X261Y148D02*
X263Y148D01*
X267Y148D02*
X269Y148D01*
X279Y148D02*
X281Y148D01*
X288Y148D02*
X297Y148D01*
X385Y148D02*
X392Y148D01*
X0Y147D02*
X7Y147D01*
X97Y147D02*
X103Y147D01*
X125Y147D02*
X127Y147D01*
X135Y147D02*
X144Y147D01*
X237Y147D02*
X239Y147D01*
X246Y147D02*
X248Y147D01*
X252Y147D02*
X254Y147D01*
X261Y147D02*
X263Y147D01*
X267Y147D02*
X269Y147D01*
X278Y147D02*
X280Y147D01*
X287Y147D02*
X297Y147D01*
X385Y147D02*
X392Y147D01*
X0Y146D02*
X7Y146D01*
X97Y146D02*
X103Y146D01*
X237Y146D02*
X247Y146D01*
X252Y146D02*
X254Y146D01*
X261Y146D02*
X263Y146D01*
X267Y146D02*
X272Y146D01*
X275Y146D02*
X280Y146D01*
X286Y146D02*
X297Y146D01*
X385Y146D02*
X392Y146D01*
X0Y145D02*
X7Y145D01*
X97Y145D02*
X103Y145D01*
X237Y145D02*
X238Y145D01*
X240Y145D02*
X246Y145D01*
X252Y145D02*
X254Y145D01*
X261Y145D02*
X263Y145D01*
X268Y145D02*
X278Y145D01*
X285Y145D02*
X289Y145D01*
X291Y145D02*
X297Y145D01*
X385Y145D02*
X392Y145D01*
X0Y144D02*
X7Y144D01*
X97Y144D02*
X103Y144D01*
X237Y144D02*
X238Y144D01*
X291Y144D02*
X297Y144D01*
X385Y144D02*
X392Y144D01*
X0Y143D02*
X7Y143D01*
X97Y143D02*
X103Y143D01*
X291Y143D02*
X297Y143D01*
X385Y143D02*
X392Y143D01*
X0Y142D02*
X7Y142D01*
X97Y142D02*
X103Y142D01*
X291Y142D02*
X297Y142D01*
X385Y142D02*
X392Y142D01*
X0Y141D02*
X7Y141D01*
X97Y141D02*
X103Y141D01*
X291Y141D02*
X297Y141D01*
X385Y141D02*
X392Y141D01*
X0Y140D02*
X7Y140D01*
X97Y140D02*
X103Y140D01*
X291Y140D02*
X297Y140D01*
X385Y140D02*
X392Y140D01*
X0Y139D02*
X7Y139D01*
X97Y139D02*
X103Y139D01*
X291Y139D02*
X297Y139D01*
X385Y139D02*
X392Y139D01*
X0Y138D02*
X7Y138D01*
X97Y138D02*
X103Y138D01*
X291Y138D02*
X297Y138D01*
X385Y138D02*
X392Y138D01*
X0Y137D02*
X7Y137D01*
X97Y137D02*
X103Y137D01*
X291Y137D02*
X297Y137D01*
X385Y137D02*
X392Y137D01*
X0Y136D02*
X7Y136D01*
X97Y136D02*
X103Y136D01*
X291Y136D02*
X297Y136D01*
X385Y136D02*
X392Y136D01*
X0Y135D02*
X7Y135D01*
X97Y135D02*
X103Y135D01*
X291Y135D02*
X297Y135D01*
X385Y135D02*
X392Y135D01*
X0Y134D02*
X7Y134D01*
X97Y134D02*
X103Y134D01*
X291Y134D02*
X297Y134D01*
X385Y134D02*
X392Y134D01*
X0Y133D02*
X7Y133D01*
X97Y133D02*
X103Y133D01*
X291Y133D02*
X297Y133D01*
X385Y133D02*
X392Y133D01*
X0Y132D02*
X7Y132D01*
X97Y132D02*
X103Y132D01*
X291Y132D02*
X297Y132D01*
X385Y132D02*
X392Y132D01*
X0Y131D02*
X7Y131D01*
X97Y131D02*
X103Y131D01*
X291Y131D02*
X297Y131D01*
X385Y131D02*
X392Y131D01*
X0Y130D02*
X7Y130D01*
X97Y130D02*
X103Y130D01*
X291Y130D02*
X297Y130D01*
X385Y130D02*
X392Y130D01*
X0Y129D02*
X7Y129D01*
X97Y129D02*
X103Y129D01*
X291Y129D02*
X297Y129D01*
X385Y129D02*
X392Y129D01*
X0Y128D02*
X7Y128D01*
X97Y128D02*
X103Y128D01*
X291Y128D02*
X297Y128D01*
X385Y128D02*
X392Y128D01*
X0Y127D02*
X7Y127D01*
X97Y127D02*
X103Y127D01*
X291Y127D02*
X297Y127D01*
X385Y127D02*
X392Y127D01*
X0Y126D02*
X7Y126D01*
X97Y126D02*
X103Y126D01*
X291Y126D02*
X297Y126D01*
X385Y126D02*
X392Y126D01*
X0Y125D02*
X7Y125D01*
X97Y125D02*
X103Y125D01*
X291Y125D02*
X297Y125D01*
X385Y125D02*
X392Y125D01*
X0Y124D02*
X7Y124D01*
X97Y124D02*
X103Y124D01*
X291Y124D02*
X297Y124D01*
X385Y124D02*
X392Y124D01*
X0Y123D02*
X7Y123D01*
X97Y123D02*
X103Y123D01*
X291Y123D02*
X297Y123D01*
X385Y123D02*
X392Y123D01*
X0Y122D02*
X7Y122D01*
X97Y122D02*
X103Y122D01*
X291Y122D02*
X297Y122D01*
X385Y122D02*
X392Y122D01*
X0Y121D02*
X7Y121D01*
X97Y121D02*
X103Y121D01*
X291Y121D02*
X297Y121D01*
X385Y121D02*
X392Y121D01*
X0Y120D02*
X7Y120D01*
X97Y120D02*
X103Y120D01*
X291Y120D02*
X297Y120D01*
X385Y120D02*
X392Y120D01*
X0Y119D02*
X7Y119D01*
X97Y119D02*
X103Y119D01*
X291Y119D02*
X297Y119D01*
X385Y119D02*
X392Y119D01*
X0Y118D02*
X7Y118D01*
X97Y118D02*
X103Y118D01*
X291Y118D02*
X297Y118D01*
X385Y118D02*
X392Y118D01*
X0Y117D02*
X7Y117D01*
X97Y117D02*
X103Y117D01*
X291Y117D02*
X297Y117D01*
X385Y117D02*
X392Y117D01*
X0Y116D02*
X7Y116D01*
X97Y116D02*
X103Y116D01*
X291Y116D02*
X297Y116D01*
X385Y116D02*
X392Y116D01*
X0Y115D02*
X7Y115D01*
X97Y115D02*
X103Y115D01*
X291Y115D02*
X297Y115D01*
X385Y115D02*
X392Y115D01*
X0Y114D02*
X7Y114D01*
X97Y114D02*
X103Y114D01*
X291Y114D02*
X297Y114D01*
X385Y114D02*
X392Y114D01*
X0Y113D02*
X7Y113D01*
X97Y113D02*
X103Y113D01*
X291Y113D02*
X297Y113D01*
X385Y113D02*
X392Y113D01*
X0Y112D02*
X7Y112D01*
X97Y112D02*
X103Y112D01*
X291Y112D02*
X297Y112D01*
X385Y112D02*
X392Y112D01*
X0Y111D02*
X7Y111D01*
X97Y111D02*
X103Y111D01*
X291Y111D02*
X297Y111D01*
X385Y111D02*
X392Y111D01*
X0Y110D02*
X7Y110D01*
X97Y110D02*
X103Y110D01*
X291Y110D02*
X297Y110D01*
X385Y110D02*
X392Y110D01*
X0Y109D02*
X7Y109D01*
X97Y109D02*
X110Y109D01*
X161Y109D02*
X239Y109D01*
X290Y109D02*
X297Y109D01*
X385Y109D02*
X392Y109D01*
X0Y108D02*
X7Y108D01*
X97Y108D02*
X110Y108D01*
X161Y108D02*
X239Y108D01*
X290Y108D02*
X297Y108D01*
X385Y108D02*
X392Y108D01*
X0Y107D02*
X7Y107D01*
X97Y107D02*
X110Y107D01*
X161Y107D02*
X239Y107D01*
X290Y107D02*
X297Y107D01*
X386Y107D02*
X392Y107D01*
X0Y106D02*
X7Y106D01*
X97Y106D02*
X110Y106D01*
X161Y106D02*
X239Y106D01*
X290Y106D02*
X297Y106D01*
X386Y106D02*
X392Y106D01*
X0Y105D02*
X7Y105D01*
X97Y105D02*
X110Y105D01*
X161Y105D02*
X239Y105D01*
X290Y105D02*
X297Y105D01*
X386Y105D02*
X392Y105D01*
X0Y104D02*
X7Y104D01*
X98Y104D02*
X110Y104D01*
X161Y104D02*
X239Y104D01*
X290Y104D02*
X297Y104D01*
X386Y104D02*
X392Y104D01*
X0Y103D02*
X7Y103D01*
X98Y103D02*
X110Y103D01*
X161Y103D02*
X239Y103D01*
X290Y103D02*
X297Y103D01*
X386Y103D02*
X392Y103D01*
X0Y102D02*
X7Y102D01*
X386Y102D02*
X392Y102D01*
X0Y101D02*
X7Y101D01*
X386Y101D02*
X392Y101D01*
X0Y100D02*
X7Y100D01*
X386Y100D02*
X392Y100D01*
X0Y99D02*
X7Y99D01*
X386Y99D02*
X392Y99D01*
X0Y98D02*
X7Y98D01*
X386Y98D02*
X392Y98D01*
X0Y97D02*
X7Y97D01*
X386Y97D02*
X392Y97D01*
X0Y96D02*
X7Y96D01*
X386Y96D02*
X392Y96D01*
X0Y95D02*
X7Y95D01*
X386Y95D02*
X392Y95D01*
X0Y94D02*
X7Y94D01*
X386Y94D02*
X392Y94D01*
X0Y93D02*
X7Y93D01*
X386Y93D02*
X392Y93D01*
X0Y92D02*
X7Y92D01*
X386Y92D02*
X392Y92D01*
X0Y91D02*
X7Y91D01*
X386Y91D02*
X392Y91D01*
X0Y90D02*
X7Y90D01*
X386Y90D02*
X392Y90D01*
X0Y89D02*
X7Y89D01*
X385Y89D02*
X392Y89D01*
X0Y88D02*
X7Y88D01*
X385Y88D02*
X392Y88D01*
X0Y87D02*
X7Y87D01*
X385Y87D02*
X392Y87D01*
X0Y86D02*
X7Y86D01*
X385Y86D02*
X392Y86D01*
X0Y85D02*
X7Y85D01*
X385Y85D02*
X392Y85D01*
X0Y84D02*
X7Y84D01*
X385Y84D02*
X392Y84D01*
X0Y83D02*
X7Y83D01*
X385Y83D02*
X392Y83D01*
X0Y82D02*
X7Y82D01*
X385Y82D02*
X392Y82D01*
X0Y81D02*
X7Y81D01*
X385Y81D02*
X392Y81D01*
X0Y80D02*
X7Y80D01*
X385Y80D02*
X392Y80D01*
X0Y79D02*
X7Y79D01*
X385Y79D02*
X392Y79D01*
X0Y78D02*
X7Y78D01*
X385Y78D02*
X392Y78D01*
X0Y77D02*
X7Y77D01*
X385Y77D02*
X392Y77D01*
X0Y76D02*
X7Y76D01*
X385Y76D02*
X392Y76D01*
X0Y75D02*
X7Y75D01*
X385Y75D02*
X392Y75D01*
X0Y74D02*
X7Y74D01*
X385Y74D02*
X392Y74D01*
X0Y73D02*
X7Y73D01*
X385Y73D02*
X392Y73D01*
X0Y72D02*
X7Y72D01*
X385Y72D02*
X392Y72D01*
X0Y71D02*
X7Y71D01*
X385Y71D02*
X392Y71D01*
X0Y70D02*
X7Y70D01*
X385Y70D02*
X392Y70D01*
X0Y69D02*
X7Y69D01*
X385Y69D02*
X392Y69D01*
X0Y68D02*
X7Y68D01*
X385Y68D02*
X392Y68D01*
X0Y67D02*
X7Y67D01*
X385Y67D02*
X392Y67D01*
X0Y66D02*
X7Y66D01*
X385Y66D02*
X392Y66D01*
X0Y65D02*
X7Y65D01*
X385Y65D02*
X392Y65D01*
X0Y64D02*
X7Y64D01*
X385Y64D02*
X392Y64D01*
X0Y63D02*
X7Y63D01*
X385Y63D02*
X392Y63D01*
X0Y62D02*
X7Y62D01*
X385Y62D02*
X392Y62D01*
X0Y61D02*
X7Y61D01*
X385Y61D02*
X392Y61D01*
X0Y60D02*
X7Y60D01*
X385Y60D02*
X392Y60D01*
X0Y59D02*
X7Y59D01*
X385Y59D02*
X392Y59D01*
X0Y58D02*
X7Y58D01*
X117Y58D02*
X125Y58D01*
X385Y58D02*
X392Y58D01*
X0Y57D02*
X7Y57D01*
X117Y57D02*
X126Y57D01*
X385Y57D02*
X392Y57D01*
X0Y56D02*
X7Y56D01*
X117Y56D02*
X126Y56D01*
X385Y56D02*
X392Y56D01*
X0Y55D02*
X7Y55D01*
X117Y55D02*
X119Y55D01*
X385Y55D02*
X392Y55D01*
X0Y54D02*
X7Y54D01*
X117Y54D02*
X118Y54D01*
X309Y54D02*
X320Y54D01*
X330Y54D02*
X333Y54D01*
X344Y54D02*
X349Y54D01*
X359Y54D02*
X369Y54D01*
X385Y54D02*
X392Y54D01*
X0Y53D02*
X7Y53D01*
X22Y53D02*
X32Y53D01*
X43Y53D02*
X44Y53D01*
X56Y53D02*
X61Y53D01*
X71Y53D02*
X80Y53D01*
X117Y53D02*
X118Y53D01*
X308Y53D02*
X320Y53D01*
X330Y53D02*
X333Y53D01*
X344Y53D02*
X349Y53D01*
X358Y53D02*
X370Y53D01*
X385Y53D02*
X392Y53D01*
X0Y52D02*
X7Y52D01*
X20Y52D02*
X32Y52D01*
X42Y52D02*
X45Y52D01*
X56Y52D02*
X61Y52D01*
X71Y52D02*
X81Y52D01*
X117Y52D02*
X138Y52D01*
X307Y52D02*
X320Y52D01*
X330Y52D02*
X333Y52D01*
X343Y52D02*
X349Y52D01*
X359Y52D02*
X371Y52D01*
X385Y52D02*
X392Y52D01*
X0Y51D02*
X7Y51D01*
X19Y51D02*
X32Y51D01*
X42Y51D02*
X45Y51D01*
X55Y51D02*
X61Y51D01*
X71Y51D02*
X82Y51D01*
X117Y51D02*
X139Y51D01*
X306Y51D02*
X311Y51D01*
X313Y51D02*
X317Y51D01*
X330Y51D02*
X333Y51D01*
X343Y51D02*
X349Y51D01*
X366Y51D02*
X371Y51D01*
X385Y51D02*
X392Y51D01*
X0Y50D02*
X7Y50D01*
X19Y50D02*
X32Y50D01*
X42Y50D02*
X45Y50D01*
X55Y50D02*
X61Y50D01*
X71Y50D02*
X83Y50D01*
X117Y50D02*
X139Y50D01*
X306Y50D02*
X310Y50D01*
X314Y50D02*
X317Y50D01*
X330Y50D02*
X333Y50D01*
X342Y50D02*
X349Y50D01*
X368Y50D02*
X372Y50D01*
X385Y50D02*
X392Y50D01*
X0Y49D02*
X7Y49D01*
X18Y49D02*
X22Y49D01*
X26Y49D02*
X29Y49D01*
X42Y49D02*
X45Y49D01*
X55Y49D02*
X61Y49D01*
X80Y49D02*
X84Y49D01*
X117Y49D02*
X119Y49D01*
X136Y49D02*
X139Y49D01*
X305Y49D02*
X309Y49D01*
X314Y49D02*
X317Y49D01*
X330Y49D02*
X333Y49D01*
X342Y49D02*
X349Y49D01*
X369Y49D02*
X373Y49D01*
X385Y49D02*
X392Y49D01*
X0Y48D02*
X7Y48D01*
X18Y48D02*
X21Y48D01*
X26Y48D02*
X29Y48D01*
X42Y48D02*
X45Y48D01*
X54Y48D02*
X61Y48D01*
X80Y48D02*
X85Y48D01*
X117Y48D02*
X118Y48D01*
X137Y48D02*
X139Y48D01*
X305Y48D02*
X308Y48D01*
X314Y48D02*
X317Y48D01*
X330Y48D02*
X333Y48D01*
X341Y48D02*
X349Y48D01*
X370Y48D02*
X374Y48D01*
X385Y48D02*
X392Y48D01*
X0Y47D02*
X7Y47D01*
X17Y47D02*
X21Y47D01*
X26Y47D02*
X29Y47D01*
X42Y47D02*
X45Y47D01*
X54Y47D02*
X61Y47D01*
X81Y47D02*
X85Y47D01*
X117Y47D02*
X118Y47D01*
X137Y47D02*
X139Y47D01*
X304Y47D02*
X308Y47D01*
X314Y47D02*
X317Y47D01*
X330Y47D02*
X333Y47D01*
X341Y47D02*
X349Y47D01*
X370Y47D02*
X374Y47D01*
X385Y47D02*
X392Y47D01*
X0Y46D02*
X7Y46D01*
X17Y46D02*
X20Y46D01*
X26Y46D02*
X29Y46D01*
X42Y46D02*
X45Y46D01*
X53Y46D02*
X61Y46D01*
X82Y46D02*
X86Y46D01*
X117Y46D02*
X118Y46D01*
X137Y46D02*
X139Y46D01*
X304Y46D02*
X307Y46D01*
X314Y46D02*
X317Y46D01*
X330Y46D02*
X333Y46D01*
X341Y46D02*
X344Y46D01*
X346Y46D02*
X349Y46D01*
X371Y46D02*
X375Y46D01*
X385Y46D02*
X392Y46D01*
X0Y45D02*
X7Y45D01*
X16Y45D02*
X20Y45D01*
X26Y45D02*
X29Y45D01*
X42Y45D02*
X45Y45D01*
X53Y45D02*
X56Y45D01*
X58Y45D02*
X61Y45D01*
X83Y45D02*
X87Y45D01*
X117Y45D02*
X118Y45D01*
X137Y45D02*
X138Y45D01*
X303Y45D02*
X307Y45D01*
X314Y45D02*
X317Y45D01*
X330Y45D02*
X333Y45D01*
X340Y45D02*
X343Y45D01*
X346Y45D02*
X349Y45D01*
X372Y45D02*
X376Y45D01*
X385Y45D02*
X392Y45D01*
X0Y44D02*
X7Y44D01*
X16Y44D02*
X19Y44D01*
X26Y44D02*
X29Y44D01*
X42Y44D02*
X45Y44D01*
X52Y44D02*
X56Y44D01*
X58Y44D02*
X61Y44D01*
X84Y44D02*
X88Y44D01*
X117Y44D02*
X118Y44D01*
X137Y44D02*
X138Y44D01*
X303Y44D02*
X306Y44D01*
X314Y44D02*
X317Y44D01*
X330Y44D02*
X333Y44D01*
X340Y44D02*
X343Y44D01*
X346Y44D02*
X349Y44D01*
X373Y44D02*
X376Y44D01*
X385Y44D02*
X392Y44D01*
X0Y43D02*
X7Y43D01*
X15Y43D02*
X19Y43D01*
X26Y43D02*
X29Y43D01*
X42Y43D02*
X45Y43D01*
X52Y43D02*
X55Y43D01*
X58Y43D02*
X61Y43D01*
X84Y43D02*
X88Y43D01*
X303Y43D02*
X306Y43D01*
X314Y43D02*
X317Y43D01*
X330Y43D02*
X333Y43D01*
X339Y43D02*
X343Y43D01*
X346Y43D02*
X349Y43D01*
X373Y43D02*
X377Y43D01*
X385Y43D02*
X392Y43D01*
X0Y42D02*
X7Y42D01*
X15Y42D02*
X18Y42D01*
X26Y42D02*
X29Y42D01*
X42Y42D02*
X45Y42D01*
X51Y42D02*
X55Y42D01*
X58Y42D02*
X61Y42D01*
X85Y42D02*
X89Y42D01*
X302Y42D02*
X305Y42D01*
X314Y42D02*
X317Y42D01*
X330Y42D02*
X333Y42D01*
X339Y42D02*
X342Y42D01*
X346Y42D02*
X349Y42D01*
X374Y42D02*
X377Y42D01*
X385Y42D02*
X392Y42D01*
X0Y41D02*
X7Y41D01*
X14Y41D02*
X18Y41D01*
X26Y41D02*
X29Y41D01*
X42Y41D02*
X45Y41D01*
X51Y41D02*
X54Y41D01*
X58Y41D02*
X61Y41D01*
X86Y41D02*
X89Y41D01*
X302Y41D02*
X305Y41D01*
X314Y41D02*
X317Y41D01*
X330Y41D02*
X333Y41D01*
X338Y41D02*
X342Y41D01*
X346Y41D02*
X349Y41D01*
X374Y41D02*
X377Y41D01*
X385Y41D02*
X392Y41D01*
X0Y40D02*
X7Y40D01*
X14Y40D02*
X17Y40D01*
X26Y40D02*
X29Y40D01*
X42Y40D02*
X45Y40D01*
X51Y40D02*
X54Y40D01*
X58Y40D02*
X61Y40D01*
X86Y40D02*
X89Y40D01*
X302Y40D02*
X305Y40D01*
X314Y40D02*
X317Y40D01*
X330Y40D02*
X333Y40D01*
X338Y40D02*
X341Y40D01*
X346Y40D02*
X349Y40D01*
X374Y40D02*
X377Y40D01*
X385Y40D02*
X392Y40D01*
X0Y39D02*
X7Y39D01*
X14Y39D02*
X17Y39D01*
X26Y39D02*
X29Y39D01*
X42Y39D02*
X45Y39D01*
X50Y39D02*
X53Y39D01*
X58Y39D02*
X61Y39D01*
X86Y39D02*
X89Y39D01*
X302Y39D02*
X305Y39D01*
X314Y39D02*
X317Y39D01*
X330Y39D02*
X333Y39D01*
X337Y39D02*
X341Y39D01*
X346Y39D02*
X349Y39D01*
X374Y39D02*
X377Y39D01*
X385Y39D02*
X392Y39D01*
X0Y38D02*
X7Y38D01*
X14Y38D02*
X17Y38D01*
X26Y38D02*
X29Y38D01*
X42Y38D02*
X45Y38D01*
X50Y38D02*
X53Y38D01*
X58Y38D02*
X61Y38D01*
X86Y38D02*
X89Y38D01*
X302Y38D02*
X305Y38D01*
X314Y38D02*
X317Y38D01*
X330Y38D02*
X333Y38D01*
X337Y38D02*
X340Y38D01*
X346Y38D02*
X349Y38D01*
X359Y38D02*
X366Y38D01*
X374Y38D02*
X377Y38D01*
X385Y38D02*
X392Y38D01*
X0Y37D02*
X7Y37D01*
X14Y37D02*
X17Y37D01*
X26Y37D02*
X29Y37D01*
X42Y37D02*
X45Y37D01*
X49Y37D02*
X53Y37D01*
X58Y37D02*
X61Y37D01*
X86Y37D02*
X89Y37D01*
X302Y37D02*
X306Y37D01*
X314Y37D02*
X317Y37D01*
X330Y37D02*
X333Y37D01*
X337Y37D02*
X340Y37D01*
X346Y37D02*
X349Y37D01*
X358Y37D02*
X367Y37D01*
X374Y37D02*
X377Y37D01*
X385Y37D02*
X392Y37D01*
X0Y36D02*
X7Y36D01*
X14Y36D02*
X17Y36D01*
X26Y36D02*
X29Y36D01*
X42Y36D02*
X45Y36D01*
X49Y36D02*
X52Y36D01*
X58Y36D02*
X61Y36D01*
X70Y36D02*
X79Y36D01*
X86Y36D02*
X89Y36D01*
X117Y36D02*
X118Y36D01*
X137Y36D02*
X138Y36D01*
X303Y36D02*
X306Y36D01*
X314Y36D02*
X317Y36D01*
X330Y36D02*
X333Y36D01*
X336Y36D02*
X340Y36D01*
X346Y36D02*
X349Y36D01*
X358Y36D02*
X367Y36D01*
X374Y36D02*
X377Y36D01*
X385Y36D02*
X392Y36D01*
X0Y35D02*
X7Y35D01*
X15Y35D02*
X18Y35D01*
X26Y35D02*
X29Y35D01*
X42Y35D02*
X45Y35D01*
X48Y35D02*
X52Y35D01*
X58Y35D02*
X61Y35D01*
X70Y35D02*
X79Y35D01*
X86Y35D02*
X89Y35D01*
X117Y35D02*
X118Y35D01*
X137Y35D02*
X139Y35D01*
X303Y35D02*
X307Y35D01*
X314Y35D02*
X317Y35D01*
X330Y35D02*
X333Y35D01*
X336Y35D02*
X339Y35D01*
X346Y35D02*
X349Y35D01*
X358Y35D02*
X367Y35D01*
X374Y35D02*
X377Y35D01*
X385Y35D02*
X392Y35D01*
X0Y34D02*
X7Y34D01*
X15Y34D02*
X18Y34D01*
X26Y34D02*
X29Y34D01*
X42Y34D02*
X45Y34D01*
X48Y34D02*
X51Y34D01*
X58Y34D02*
X61Y34D01*
X70Y34D02*
X79Y34D01*
X86Y34D02*
X89Y34D01*
X117Y34D02*
X118Y34D01*
X137Y34D02*
X139Y34D01*
X304Y34D02*
X307Y34D01*
X314Y34D02*
X317Y34D01*
X330Y34D02*
X333Y34D01*
X335Y34D02*
X339Y34D01*
X346Y34D02*
X349Y34D01*
X358Y34D02*
X361Y34D01*
X374Y34D02*
X377Y34D01*
X385Y34D02*
X392Y34D01*
X0Y33D02*
X7Y33D01*
X15Y33D02*
X19Y33D01*
X26Y33D02*
X29Y33D01*
X42Y33D02*
X45Y33D01*
X47Y33D02*
X51Y33D01*
X58Y33D02*
X61Y33D01*
X70Y33D02*
X78Y33D01*
X86Y33D02*
X89Y33D01*
X117Y33D02*
X118Y33D01*
X137Y33D02*
X139Y33D01*
X304Y33D02*
X308Y33D01*
X314Y33D02*
X317Y33D01*
X330Y33D02*
X333Y33D01*
X335Y33D02*
X338Y33D01*
X346Y33D02*
X349Y33D01*
X358Y33D02*
X361Y33D01*
X374Y33D02*
X377Y33D01*
X385Y33D02*
X392Y33D01*
X0Y32D02*
X7Y32D01*
X16Y32D02*
X19Y32D01*
X26Y32D02*
X29Y32D01*
X42Y32D02*
X45Y32D01*
X47Y32D02*
X50Y32D01*
X58Y32D02*
X61Y32D01*
X70Y32D02*
X73Y32D01*
X86Y32D02*
X89Y32D01*
X117Y32D02*
X118Y32D01*
X137Y32D02*
X139Y32D01*
X305Y32D02*
X308Y32D01*
X314Y32D02*
X317Y32D01*
X330Y32D02*
X338Y32D01*
X346Y32D02*
X349Y32D01*
X358Y32D02*
X361Y32D01*
X374Y32D02*
X377Y32D01*
X385Y32D02*
X392Y32D01*
X0Y31D02*
X7Y31D01*
X16Y31D02*
X20Y31D01*
X26Y31D02*
X29Y31D01*
X42Y31D02*
X50Y31D01*
X58Y31D02*
X61Y31D01*
X70Y31D02*
X73Y31D01*
X86Y31D02*
X89Y31D01*
X117Y31D02*
X118Y31D01*
X137Y31D02*
X139Y31D01*
X305Y31D02*
X309Y31D01*
X314Y31D02*
X317Y31D01*
X330Y31D02*
X337Y31D01*
X346Y31D02*
X349Y31D01*
X358Y31D02*
X361Y31D01*
X374Y31D02*
X377Y31D01*
X385Y31D02*
X392Y31D01*
X0Y30D02*
X7Y30D01*
X17Y30D02*
X20Y30D01*
X26Y30D02*
X29Y30D01*
X42Y30D02*
X50Y30D01*
X58Y30D02*
X61Y30D01*
X70Y30D02*
X73Y30D01*
X86Y30D02*
X89Y30D01*
X117Y30D02*
X119Y30D01*
X136Y30D02*
X138Y30D01*
X306Y30D02*
X309Y30D01*
X314Y30D02*
X317Y30D01*
X330Y30D02*
X337Y30D01*
X346Y30D02*
X349Y30D01*
X358Y30D02*
X361Y30D01*
X374Y30D02*
X377Y30D01*
X385Y30D02*
X392Y30D01*
X0Y29D02*
X7Y29D01*
X17Y29D02*
X21Y29D01*
X26Y29D02*
X29Y29D01*
X42Y29D02*
X49Y29D01*
X58Y29D02*
X61Y29D01*
X70Y29D02*
X73Y29D01*
X86Y29D02*
X89Y29D01*
X117Y29D02*
X119Y29D01*
X136Y29D02*
X138Y29D01*
X306Y29D02*
X310Y29D01*
X314Y29D02*
X317Y29D01*
X330Y29D02*
X336Y29D01*
X346Y29D02*
X349Y29D01*
X359Y29D02*
X362Y29D01*
X373Y29D02*
X377Y29D01*
X385Y29D02*
X392Y29D01*
X0Y28D02*
X7Y28D01*
X18Y28D02*
X21Y28D01*
X26Y28D02*
X29Y28D01*
X42Y28D02*
X49Y28D01*
X58Y28D02*
X61Y28D01*
X71Y28D02*
X74Y28D01*
X86Y28D02*
X89Y28D01*
X117Y28D02*
X121Y28D01*
X134Y28D02*
X138Y28D01*
X307Y28D02*
X319Y28D01*
X330Y28D02*
X336Y28D01*
X346Y28D02*
X349Y28D01*
X359Y28D02*
X377Y28D01*
X385Y28D02*
X392Y28D01*
X0Y27D02*
X7Y27D01*
X18Y27D02*
X23Y27D01*
X25Y27D02*
X29Y27D01*
X42Y27D02*
X48Y27D01*
X58Y27D02*
X61Y27D01*
X71Y27D02*
X75Y27D01*
X85Y27D02*
X89Y27D01*
X118Y27D02*
X123Y27D01*
X132Y27D02*
X137Y27D01*
X307Y27D02*
X320Y27D01*
X330Y27D02*
X336Y27D01*
X346Y27D02*
X349Y27D01*
X360Y27D02*
X376Y27D01*
X385Y27D02*
X392Y27D01*
X0Y26D02*
X7Y26D01*
X19Y26D02*
X32Y26D01*
X42Y26D02*
X48Y26D01*
X58Y26D02*
X61Y26D01*
X71Y26D02*
X88Y26D01*
X119Y26D02*
X125Y26D01*
X130Y26D02*
X136Y26D01*
X308Y26D02*
X320Y26D01*
X330Y26D02*
X335Y26D01*
X346Y26D02*
X349Y26D01*
X360Y26D02*
X375Y26D01*
X385Y26D02*
X392Y26D01*
X0Y25D02*
X7Y25D01*
X20Y25D02*
X32Y25D01*
X42Y25D02*
X47Y25D01*
X58Y25D02*
X61Y25D01*
X72Y25D02*
X88Y25D01*
X121Y25D02*
X134Y25D01*
X309Y25D02*
X320Y25D01*
X330Y25D02*
X335Y25D01*
X346Y25D02*
X348Y25D01*
X362Y25D02*
X374Y25D01*
X385Y25D02*
X392Y25D01*
X0Y24D02*
X7Y24D01*
X21Y24D02*
X32Y24D01*
X42Y24D02*
X47Y24D01*
X58Y24D02*
X60Y24D01*
X73Y24D02*
X86Y24D01*
X123Y24D02*
X132Y24D01*
X385Y24D02*
X392Y24D01*
X0Y23D02*
X7Y23D01*
X23Y23D02*
X31Y23D01*
X42Y23D02*
X46Y23D01*
X59Y23D02*
X59Y23D01*
X75Y23D02*
X84Y23D01*
X125Y23D02*
X130Y23D01*
X385Y23D02*
X392Y23D01*
X0Y22D02*
X7Y22D01*
X385Y22D02*
X392Y22D01*
X0Y21D02*
X7Y21D01*
X385Y21D02*
X392Y21D01*
X0Y20D02*
X7Y20D01*
X385Y20D02*
X392Y20D01*
X0Y19D02*
X7Y19D01*
X385Y19D02*
X392Y19D01*
X0Y18D02*
X7Y18D01*
X385Y18D02*
X392Y18D01*
X0Y17D02*
X7Y17D01*
X385Y17D02*
X392Y17D01*
X0Y16D02*
X7Y16D01*
X385Y16D02*
X392Y16D01*
X0Y15D02*
X7Y15D01*
X385Y15D02*
X392Y15D01*
X0Y14D02*
X7Y14D01*
X385Y14D02*
X392Y14D01*
X0Y13D02*
X7Y13D01*
X385Y13D02*
X392Y13D01*
X0Y12D02*
X7Y12D01*
X385Y12D02*
X392Y12D01*
X0Y11D02*
X7Y11D01*
X385Y11D02*
X392Y11D01*
X0Y10D02*
X7Y10D01*
X385Y10D02*
X392Y10D01*
X0Y9D02*
X392Y9D01*
X0Y8D02*
X392Y8D01*
X0Y7D02*
X392Y7D01*
X0Y6D02*
X392Y6D01*
X0Y5D02*
X392Y5D01*
X0Y4D02*
X392Y4D01*
X0Y3D02*
X392Y3D01*
X0Y2D02*
X392Y2D01*
D02*
G04 End of Silk0*
M02*